<?xml version="1.0" encoding="utf-8"?>
<!-- Generator: Adobe Illustrator 17.0.2, SVG Export Plug-In . SVG Version: 6.00 Build 0)  -->
<!DOCTYPE svg PUBLIC "-//W3C//DTD SVG 1.1//EN" "http://www.w3.org/Graphics/SVG/1.1/DTD/svg11.dtd">
<svg version="1.1" xmlns="http://www.w3.org/2000/svg" xmlns:xlink="http://www.w3.org/1999/xlink" x="0px" y="0px" width="765px"
	 height="209.333px" viewBox="0 0 765 209.333" enable-background="new 0 0 765 209.333" xml:space="preserve">
<g id="Layer_1">
	<path fill="#44ABE0" d="M230.174,135.779l-39.688-0.067l-8.268,29.182l-11.713-0.02l36.924-125.294l5.947,0.01l36.68,125.416
		l-11.628-0.02L230.174,135.779z M193.562,124.962l33.656,0.058l-16.424-57.811l-0.343-4.634l-0.355,4.634L193.562,124.962z"/>
	<path fill="#44ABE0" d="M291.421,50.472l-0.193,114.603l-11.278-0.02l0.193-114.602l-29.896-0.05l0.017-10.752l71.069,0.119
		l-0.017,10.752L291.421,50.472z"/>
	<path fill="#44ABE0" d="M380.793,136.033l-39.686-0.068l-8.267,29.18l-11.716-0.02l36.927-125.293l5.942,0.01l36.68,125.418
		l-11.626-0.02L380.793,136.033z M344.185,125.216l33.654,0.058l-16.424-57.811l-0.343-4.634l-0.36,4.632L344.185,125.216z"/>
	<path fill="#44ABE0" d="M417.483,165.283l0.023-13.461l13.464,0.023l-0.023,13.461L417.483,165.283z"/>
	<path fill="#44ABE0" d="M517.125,165.468l-3.581-0.007l-6.542-10.06c-2.746,3.606-6.072,6.472-9.98,8.59
		c-3.909,2.126-8.25,3.181-13.029,3.171l-6.557-0.01c-4.256-0.007-8.262-0.818-12.018-2.428c-3.756-1.608-7.032-3.811-9.823-6.614
		c-2.791-2.801-4.986-6.069-6.584-9.802c-1.596-3.732-2.391-7.727-2.383-11.981l0.115-67.309c0.008-4.256,0.813-8.247,2.423-11.972
		c1.608-3.729,3.816-6.987,6.614-9.779c2.801-2.793,6.087-4.987,9.848-6.584c3.761-1.597,7.767-2.393,12.023-2.386l8.917,0.015
		c4.254,0.007,8.245,0.816,11.973,2.425c3.726,1.609,6.987,3.816,9.777,6.617c2.791,2.802,4.986,6.068,6.584,9.801
		c1.596,3.73,2.391,7.726,2.383,11.98l-0.01,5.071l-11.281,1.728l0.013-6.818c0.005-2.797-0.513-5.406-1.558-7.827
		c-1.045-2.418-2.468-4.534-4.276-6.345c-1.803-1.809-3.911-3.241-6.329-4.294c-2.416-1.053-5.024-1.582-7.82-1.587l-7.867-0.013
		c-2.798-0.005-5.406,0.514-7.83,1.559c-2.418,1.045-4.549,2.469-6.384,4.274c-1.843,1.804-3.286,3.915-4.341,6.331
		c-1.055,2.416-1.578,5.025-1.583,7.822l-0.115,67.311c-0.005,2.797,0.513,5.405,1.558,7.827c1.045,2.419,2.483,4.55,4.321,6.388
		c1.831,1.838,3.956,3.283,6.369,4.339c2.418,1.053,5.026,1.58,7.825,1.586l7.867,0.015c2.796,0.005,5.404-0.518,7.824-1.56
		c2.423-1.045,4.534-2.486,6.344-4.319c1.813-1.83,3.241-3.956,4.296-6.373c1.055-2.417,1.578-5.025,1.583-7.822l0.045-26.138
		l-20.015-0.034l0.018-10.752l31.293,0.053L517.125,165.468z"/>
	<path fill="#44ABE0" d="M604.385,148.578c-1.605,3.726-3.813,6.989-6.614,9.78c-2.803,2.793-6.072,4.986-9.803,6.579
		c-3.734,1.6-7.725,2.396-11.978,2.388l-8.915-0.015c-4.256-0.005-8.262-0.815-12.021-2.428c-3.753-1.606-7.027-3.809-9.82-6.612
		c-2.793-2.801-4.989-6.072-6.587-9.804c-1.593-3.731-2.391-7.726-2.383-11.979l0.115-67.311c0.008-4.255,0.815-8.247,2.423-11.971
		c1.608-3.729,3.814-6.987,6.617-9.78c2.803-2.792,6.087-4.986,9.845-6.583c3.764-1.597,7.77-2.393,12.026-2.386l8.915,0.015
		c4.254,0.008,8.245,0.817,11.973,2.426c3.726,1.609,6.985,3.815,9.778,6.617c2.793,2.802,4.989,6.068,6.584,9.801
		c1.595,3.73,2.393,7.725,2.385,11.98l-0.115,67.311C606.804,140.86,605.996,144.852,604.385,148.578z M595.648,69.277
		c0.003-2.797-0.518-5.408-1.56-7.827c-1.043-2.418-2.468-4.534-4.274-6.345c-1.803-1.809-3.914-3.241-6.329-4.294
		c-2.418-1.054-5.024-1.582-7.822-1.587l-7.867-0.013c-2.798-0.005-5.406,0.514-7.827,1.559c-2.423,1.045-4.551,2.469-6.389,4.272
		c-1.838,1.806-3.283,3.916-4.336,6.332c-1.053,2.416-1.583,5.024-1.588,7.821l-0.115,67.311c-0.005,2.797,0.52,5.407,1.563,7.829
		c1.043,2.419,2.483,4.55,4.316,6.387c1.831,1.838,3.956,3.286,6.374,4.339c2.415,1.053,5.024,1.583,7.822,1.588l7.867,0.013
		c2.798,0.005,5.404-0.515,7.827-1.56c2.421-1.045,4.534-2.486,6.344-4.316c1.81-1.832,3.241-3.959,4.294-6.374
		c1.053-2.418,1.581-5.025,1.585-7.822L595.648,69.277z"/>
	<path fill="#44ABE0" d="M658.008,138.184l0.343,4.633l0.357-4.631l27.965-97.774l11.626,0.02l-37.1,125.291l-5.947-0.01
		L618.749,40.298l11.711,0.019L658.008,138.184z"/>
</g>
<g id="Old_D" display="none">
	<path display="inline" d="M127.626,50.192c2.797,0.005,5.406,0.535,7.822,1.589c2.418,1.05,4.541,2.498,6.375,4.336
		c1.833,1.839,3.271,3.967,4.316,6.388c1.045,2.419,1.564,5.03,1.559,7.827l-0.108,63.727c-0.004,2.797-0.533,5.404-1.585,7.822
		c-1.053,2.416-2.498,4.528-4.337,6.329c-1.841,1.803-3.969,3.231-6.389,4.274c-2.421,1.045-5.031,1.565-7.827,1.56l-17.72-0.03
		l-0.001,0.05l-21.442-0.035l-0.017,10.7l39.688,0.065c4.254,0.007,8.261-0.788,12.022-2.383c3.761-1.595,7.044-3.789,9.846-6.584
		c2.802-2.791,5.007-6.049,6.617-9.777c1.608-3.729,2.417-7.718,2.423-11.972l0.108-63.727c0.008-4.255-0.788-8.262-2.383-12.023
		c-1.596-3.76-3.791-7.044-6.583-9.847c-2.792-2.801-6.068-5.007-9.824-6.616c-3.756-1.609-7.761-2.418-12.014-2.424l-39.688-0.068
		l-0.019,10.824L127.626,50.192z"/>
	<rect x="88.271" y="39.374" display="inline" width="10.818" height="45.338"/>
	<rect x="71.011" y="95.53" display="inline" width="45.338" height="10.818"/>
	<rect x="88.271" y="117.166" display="inline" width="10.818" height="47.629"/>
</g>
<g id="New_D">
	<g id="Layer_9">
		<g>
			<path fill="#44ABE0" d="M99.556,154.142h27.876c2.796,0,5.403-0.524,7.821-1.573c2.417-1.049,4.544-2.476,6.379-4.282
				c1.835-1.805,3.277-3.918,4.326-6.336c1.049-2.417,1.573-5.025,1.573-7.821V70.426c0-2.796-0.524-5.403-1.573-7.821
				c-1.049-2.417-2.491-4.544-4.326-6.379s-3.962-3.277-6.379-4.326c-2.418-1.049-5.025-1.573-7.821-1.573H99.556l-11.273-0.014
				V39.578h39.674c4.252,0,8.258,0.801,12.016,2.403c3.758,1.603,7.035,3.801,9.831,6.598s4.995,6.073,6.598,9.831
				c1.602,3.758,2.403,7.764,2.403,12.016v63.705c0,4.253-0.802,8.244-2.403,11.972c-1.603,3.729-3.801,6.991-6.598,9.787
				s-6.073,4.996-9.831,6.598c-3.758,1.603-7.764,2.403-12.016,2.403H88.283v-10.734"/>
		</g>
	</g>
	<g id="New_bar">
		<rect x="88.283" y="119.144" fill="#44ABE0" width="11.273" height="45.746"/>
	</g>
	<g id="New_bar_copy_2">
		<rect x="88.283" y="39.579" fill="#44ABE0" width="11.273" height="45.746"/>
	</g>
	<g id="Bar">
		<rect x="71.046" y="96.598" fill="#44ABE0" width="45.746" height="11.273"/>
	</g>
	<g display="none">
		<path display="inline" d="M156.401,146.102c-1.603,3.729-3.801,6.991-6.598,9.787s-6.073,4.996-9.831,6.598
			c-3.758,1.603-7.764,2.403-12.016,2.403H88.283v-10.734V50.312V39.578h39.674c4.252,0,8.258,0.801,12.016,2.403
			c3.758,1.603,7.035,3.801,9.831,6.598s4.995,6.073,6.598,9.831c1.602,3.758,2.403,7.764,2.403,12.016v63.705
			C158.804,138.383,158.003,142.375,156.401,146.102z M147.531,70.426c0-2.796-0.524-5.403-1.573-7.821
			c-1.049-2.417-2.491-4.544-4.326-6.379s-3.962-3.277-6.379-4.326c-2.418-1.049-5.025-1.573-7.821-1.573H99.556v103.815h27.876
			c2.796,0,5.403-0.524,7.821-1.573c2.417-1.049,4.544-2.476,6.379-4.282c1.835-1.805,3.277-3.918,4.326-6.336
			c1.049-2.417,1.573-5.025,1.573-7.821V70.426z"/>
	</g>
</g>
<g id="Guides">
</g>
</svg>
