<?xml version="1.0" encoding="utf-8"?>
<!-- Generator: Adobe Illustrator 17.0.2, SVG Export Plug-In . SVG Version: 6.00 Build 0)  -->
<!DOCTYPE svg PUBLIC "-//W3C//DTD SVG 1.1//EN" "http://www.w3.org/Graphics/SVG/1.1/DTD/svg11.dtd">
<svg version="1.1" id="Layer_1" xmlns="http://www.w3.org/2000/svg" xmlns:xlink="http://www.w3.org/1999/xlink" x="0px" y="0px"
	 width="940.453px" height="209.333px" viewBox="-264.377 0 940.453 209.333" enable-background="new -264.377 0 940.453 209.333"
	 xml:space="preserve">
<g id="Layer_1_1_">
	<path fill="#22629A" d="M178.147,135.779l-39.688-0.067l-8.268,29.182l-11.713-0.02L155.402,39.58l5.947,0.01l36.68,125.416
		l-11.628-0.02L178.147,135.779z M141.535,124.962l33.656,0.058l-16.424-57.811l-0.343-4.634l-0.355,4.634L141.535,124.962z"/>
	<path fill="#22629A" d="M239.394,50.472l-0.193,114.603l-11.278-0.02l0.193-114.602l-29.896-0.05l0.017-10.752l71.069,0.119
		l-0.017,10.752L239.394,50.472z"/>
	<path fill="#22629A" d="M328.766,136.033l-39.686-0.068l-8.267,29.18l-11.716-0.02l36.927-125.293l5.942,0.01l36.68,125.418
		l-11.626-0.02L328.766,136.033z M292.158,125.216l33.654,0.058l-16.424-57.811l-0.343-4.634l-0.36,4.632L292.158,125.216z"/>
	<path fill="#22629A" d="M365.456,165.283l0.023-13.461l13.464,0.023l-0.023,13.461L365.456,165.283z"/>
	<path fill="#22629A" d="M465.098,165.468l-3.581-0.007l-6.542-10.06c-2.746,3.606-6.072,6.472-9.98,8.59
		c-3.909,2.126-8.25,3.181-13.029,3.171l-6.557-0.01c-4.256-0.007-8.262-0.818-12.018-2.428c-3.756-1.608-7.032-3.811-9.823-6.614
		c-2.791-2.801-4.986-6.069-6.584-9.802c-1.596-3.732-2.391-7.727-2.383-11.981l0.115-67.309c0.008-4.256,0.813-8.247,2.423-11.972
		c1.608-3.729,3.816-6.987,6.614-9.779c2.801-2.793,6.087-4.987,9.848-6.584s7.767-2.393,12.023-2.386l8.917,0.015
		c4.254,0.007,8.245,0.816,11.973,2.425c3.726,1.609,6.987,3.816,9.777,6.617c2.791,2.802,4.986,6.068,6.584,9.801
		c1.596,3.73,2.391,7.726,2.383,11.98l-0.01,5.071l-11.281,1.728l0.013-6.818c0.005-2.797-0.513-5.406-1.558-7.827
		c-1.045-2.418-2.468-4.534-4.276-6.345c-1.803-1.809-3.911-3.241-6.329-4.294c-2.416-1.053-5.024-1.582-7.82-1.587l-7.867-0.013
		c-2.798-0.005-5.406,0.514-7.83,1.559c-2.418,1.045-4.549,2.469-6.384,4.274c-1.843,1.804-3.286,3.915-4.341,6.331
		s-1.578,5.025-1.583,7.822l-0.115,67.311c-0.005,2.797,0.513,5.405,1.558,7.827c1.045,2.419,2.483,4.55,4.321,6.388
		c1.831,1.838,3.956,3.283,6.369,4.339c2.418,1.053,5.026,1.58,7.825,1.586l7.867,0.015c2.796,0.005,5.404-0.518,7.824-1.56
		c2.423-1.045,4.534-2.486,6.344-4.319c1.813-1.83,3.241-3.956,4.296-6.373s1.578-5.025,1.583-7.822l0.045-26.138l-20.015-0.034
		l0.018-10.752l31.293,0.053L465.098,165.468z"/>
	<path fill="#22629A" d="M552.358,148.578c-1.605,3.726-3.813,6.989-6.614,9.78c-2.803,2.793-6.072,4.986-9.803,6.579
		c-3.734,1.6-7.725,2.396-11.978,2.388l-8.915-0.015c-4.256-0.005-8.262-0.815-12.021-2.428c-3.753-1.606-7.027-3.809-9.82-6.612
		c-2.793-2.801-4.989-6.072-6.587-9.804c-1.593-3.731-2.391-7.726-2.383-11.979l0.115-67.311c0.008-4.255,0.815-8.247,2.423-11.971
		c1.608-3.729,3.814-6.987,6.617-9.78c2.803-2.792,6.087-4.986,9.845-6.583c3.764-1.597,7.77-2.393,12.026-2.386l8.915,0.015
		c4.254,0.008,8.245,0.817,11.973,2.426c3.726,1.609,6.985,3.815,9.778,6.617s4.989,6.068,6.584,9.801
		c1.595,3.73,2.393,7.725,2.385,11.98l-0.115,67.311C554.777,140.86,553.969,144.852,552.358,148.578z M543.621,69.277
		c0.003-2.797-0.518-5.408-1.56-7.827c-1.043-2.418-2.468-4.534-4.274-6.345c-1.803-1.809-3.914-3.241-6.329-4.294
		c-2.418-1.054-5.024-1.582-7.822-1.587l-7.867-0.013c-2.798-0.005-5.406,0.514-7.827,1.559c-2.423,1.045-4.551,2.469-6.389,4.272
		c-1.838,1.806-3.283,3.916-4.336,6.332s-1.583,5.024-1.588,7.821l-0.115,67.311c-0.005,2.797,0.52,5.407,1.563,7.829
		c1.043,2.419,2.483,4.55,4.316,6.387c1.831,1.838,3.956,3.286,6.374,4.339c2.415,1.053,5.024,1.583,7.822,1.588l7.867,0.013
		c2.798,0.005,5.404-0.515,7.827-1.56c2.421-1.045,4.534-2.486,6.344-4.316c1.81-1.832,3.241-3.959,4.294-6.374
		c1.053-2.418,1.581-5.025,1.585-7.822L543.621,69.277z"/>
	<path fill="#22629A" d="M605.981,138.184l0.343,4.633l0.357-4.631l27.965-97.774l11.626,0.02l-37.1,125.291l-5.947-0.01
		L566.722,40.298l11.711,0.019L605.981,138.184z"/>
</g>
<g id="Old_D" display="none">
	<path display="inline" d="M127.626,50.192c2.797,0.005,5.406,0.535,7.822,1.589c2.418,1.05,4.541,2.498,6.375,4.336
		c1.833,1.839,3.271,3.967,4.316,6.388c1.045,2.419,1.564,5.03,1.559,7.827l-0.108,63.727c-0.004,2.797-0.533,5.404-1.585,7.822
		c-1.053,2.416-2.498,4.528-4.337,6.329c-1.841,1.803-3.969,3.231-6.389,4.274c-2.421,1.045-5.031,1.565-7.827,1.56l-17.72-0.03
		l-0.001,0.05l-21.442-0.035l-0.017,10.7l39.688,0.065c4.254,0.007,8.261-0.788,12.022-2.383s7.044-3.789,9.846-6.584
		c2.802-2.791,5.007-6.049,6.617-9.777c1.608-3.729,2.417-7.718,2.423-11.972l0.108-63.727c0.008-4.255-0.788-8.262-2.383-12.023
		c-1.596-3.76-3.791-7.044-6.583-9.847c-2.792-2.801-6.068-5.007-9.824-6.616c-3.756-1.609-7.761-2.418-12.014-2.424l-39.688-0.068
		l-0.019,10.824L127.626,50.192z"/>
	<rect x="88.271" y="39.374" display="inline" width="10.818" height="45.338"/>
	<rect x="71.011" y="95.53" display="inline" width="45.338" height="10.818"/>
	<rect x="88.271" y="117.166" display="inline" width="10.818" height="47.629"/>
</g>
<g id="New_D">
	<g id="Layer_9">
		<g>
			<path fill="#22629A" d="M47.529,154.142h27.876c2.796,0,5.403-0.524,7.821-1.573c2.417-1.049,4.544-2.476,6.379-4.282
				c1.835-1.805,3.277-3.918,4.326-6.336c1.049-2.417,1.573-5.025,1.573-7.821V70.426c0-2.796-0.524-5.403-1.573-7.821
				c-1.049-2.417-2.491-4.544-4.326-6.379s-3.962-3.277-6.379-4.326c-2.418-1.049-5.025-1.573-7.821-1.573H47.529l-11.273-0.014
				V39.578H75.93c4.252,0,8.258,0.801,12.016,2.403c3.758,1.603,7.035,3.801,9.831,6.598s4.995,6.073,6.598,9.831
				c1.602,3.758,2.403,7.764,2.403,12.016v63.705c0,4.253-0.802,8.244-2.403,11.972c-1.603,3.729-3.801,6.991-6.598,9.787
				s-6.073,4.996-9.831,6.598c-3.758,1.603-7.764,2.403-12.016,2.403H36.256v-10.734"/>
		</g>
	</g>
	<g id="New_bar">
		<rect x="36.256" y="119.144" fill="#22629A" width="11.273" height="45.746"/>
	</g>
	<g id="New_bar_copy_2">
		<rect x="36.256" y="39.579" fill="#22629A" width="11.273" height="45.746"/>
	</g>
	<g id="Bar">
		<rect x="19.019" y="96.598" fill="#22629A" width="45.746" height="11.273"/>
	</g>
	<g display="none">
		<path display="inline" fill="#22629A" d="M104.374,146.102c-1.603,3.729-3.801,6.991-6.598,9.787s-6.073,4.996-9.831,6.598
			c-3.758,1.603-7.764,2.403-12.016,2.403H36.256v-10.734V50.312V39.578H75.93c4.252,0,8.258,0.801,12.016,2.403
			c3.758,1.603,7.035,3.801,9.831,6.598s4.995,6.073,6.598,9.831c1.602,3.758,2.403,7.764,2.403,12.016v63.705
			C106.777,138.383,105.976,142.375,104.374,146.102z M95.504,70.426c0-2.796-0.524-5.403-1.573-7.821
			c-1.049-2.417-2.491-4.544-4.326-6.379s-3.962-3.277-6.379-4.326c-2.418-1.049-5.025-1.573-7.821-1.573H47.529v103.815h27.876
			c2.796,0,5.403-0.524,7.821-1.573c2.417-1.049,4.544-2.476,6.379-4.282c1.835-1.805,3.277-3.918,4.326-6.336
			c1.049-2.417,1.573-5.025,1.573-7.821V70.426z"/>
	</g>
</g>
<g id="Guides">
</g>
<g>
	<g>
		<g>
			<rect id="stripe_63_" x="-233.039" y="96.261" fill="#E54520" width="218.498" height="10.263"/>
		</g>
		<g>
			<rect id="stripe_62_" x="-233.039" y="39.633" fill="#E54520" width="218.498" height="9.502"/>
		</g>
		<g>
			<rect id="stripe_61_" x="-233.039" y="58.637" fill="#E54520" width="218.498" height="9.5"/>
		</g>
		<g>
			<rect id="stripe_60_" x="-233.039" y="77.639" fill="#E54520" width="218.498" height="9.502"/>
		</g>
		<g>
			<rect id="stripe_59_" x="-233.039" y="115.646" fill="#E54520" width="218.498" height="9.502"/>
		</g>
		<g>
			<rect id="stripe_58_" x="-233.039" y="134.648" fill="#E54520" width="218.498" height="9.503"/>
		</g>
		<g>
			<rect id="stripe_57_" x="-233.039" y="153.653" fill="#E54520" width="218.498" height="9.503"/>
		</g>
		<rect x="-233.039" y="39.633" fill="#22629A" width="101.732" height="66.984"/>
	</g>
</g>
<g>
	<path fill="#29A9E0" d="M-168.558-108.552v-17.366h14.448c2.818,0,5.385,0.458,7.7,1.372c2.314,0.915,4.302,2.231,5.964,3.948
		c1.661,1.718,2.949,3.799,3.864,6.244c0.914,2.445,1.372,5.189,1.372,8.232c0,3.062-0.458,5.815-1.372,8.26
		c-0.915,2.445-2.203,4.526-3.864,6.244c-1.662,1.718-3.649,3.034-5.964,3.948c-2.315,0.915-4.882,1.372-7.7,1.372h-14.448v-16.39
		 M-138.177-106.123c0-2.762-0.383-5.227-1.148-7.392c-0.766-2.165-1.844-3.994-3.234-5.488c-1.391-1.493-3.065-2.632-5.025-3.416
		c-1.96-0.784-4.135-1.176-6.524-1.176h-11.564v21.156v13.816h11.564c2.39,0,4.564-0.392,6.524-1.176
		c1.96-0.784,3.635-1.922,5.025-3.416c1.391-1.493,2.469-3.322,3.234-5.488C-138.56-100.868-138.177-103.341-138.177-106.123z"/>
	<path fill="#29A9E0" d="M-97.018-86.299h-2.212c-0.262,0-0.476-0.07-0.644-0.21c-0.168-0.14-0.299-0.322-0.392-0.546l-4.676-11.508
		h-19.46l-4.648,11.508c-0.074,0.206-0.205,0.383-0.392,0.532c-0.187,0.149-0.411,0.224-0.672,0.224h-2.185l16.213-39.62h2.856
		L-97.018-86.299z M-123.533-100.69h17.752l-8.092-20.02c-0.131-0.317-0.262-0.676-0.392-1.078
		c-0.131-0.401-0.262-0.826-0.392-1.274c-0.131,0.448-0.262,0.873-0.393,1.274c-0.131,0.402-0.261,0.77-0.392,1.106L-123.533-100.69
		z"/>
	<path fill="#29A9E0" d="M-68.094-125.919v2.436H-82.01v37.184h-2.856v-37.184h-14v-2.436H-68.094z"/>
	<path fill="#29A9E0" d="M-34.634-86.299h-2.212c-0.262,0-0.476-0.07-0.644-0.21c-0.168-0.14-0.299-0.322-0.392-0.546l-4.676-11.508
		h-19.46l-4.647,11.508c-0.075,0.206-0.206,0.383-0.393,0.532c-0.187,0.149-0.41,0.224-0.672,0.224h-2.184l16.212-39.62h2.856
		L-34.634-86.299z M-61.15-100.69h17.752l-8.092-20.02c-0.131-0.317-0.262-0.676-0.392-1.078c-0.13-0.401-0.261-0.826-0.392-1.274
		c-0.131,0.448-0.262,0.873-0.392,1.274c-0.131,0.402-0.262,0.77-0.393,1.106L-61.15-100.69z"/>
	<path fill="#29A9E0" d="M-31.303-88.455c0-0.354,0.065-0.69,0.196-1.008c0.13-0.317,0.312-0.592,0.546-0.826
		c0.233-0.233,0.504-0.42,0.812-0.56c0.308-0.14,0.648-0.21,1.022-0.21c0.354,0,0.69,0.07,1.008,0.21
		c0.317,0.14,0.592,0.327,0.826,0.56c0.233,0.234,0.42,0.509,0.56,0.826c0.14,0.317,0.21,0.653,0.21,1.008
		c0,0.373-0.07,0.714-0.21,1.022c-0.14,0.308-0.327,0.579-0.56,0.812c-0.234,0.234-0.509,0.415-0.826,0.546
		c-0.318,0.13-0.654,0.196-1.008,0.196c-0.729,0-1.34-0.248-1.834-0.742C-31.056-87.115-31.303-87.727-31.303-88.455z"/>
	<path fill="#29A9E0" d="M-1.903-88.175c1.362,0,2.604-0.07,3.724-0.21c1.12-0.14,2.16-0.35,3.122-0.63
		c0.961-0.28,1.876-0.62,2.744-1.022c0.868-0.401,1.741-0.854,2.618-1.358v-10.668H2.69c-0.206,0-0.378-0.065-0.519-0.196
		c-0.14-0.13-0.21-0.28-0.21-0.448v-1.568h10.948v14.084c-0.99,0.69-2.016,1.307-3.08,1.848c-1.064,0.542-2.203,0.994-3.416,1.358
		c-1.214,0.364-2.52,0.644-3.92,0.84c-1.4,0.196-2.931,0.294-4.592,0.294c-2.857,0-5.465-0.48-7.826-1.442
		c-2.362-0.961-4.387-2.324-6.076-4.088c-1.689-1.764-3.001-3.896-3.934-6.397c-0.934-2.502-1.4-5.283-1.4-8.344
		c0-3.061,0.467-5.838,1.4-8.33c0.933-2.492,2.258-4.62,3.976-6.384c1.717-1.764,3.803-3.126,6.258-4.088
		c2.455-0.961,5.203-1.442,8.246-1.442c1.512,0,2.907,0.103,4.187,0.308c1.278,0.206,2.468,0.509,3.569,0.91
		c1.102,0.401,2.128,0.896,3.08,1.484c0.952,0.588,1.867,1.265,2.744,2.03l-0.756,1.233c-0.168,0.28-0.401,0.42-0.7,0.42
		c-0.168,0-0.327-0.037-0.476-0.112c-0.28-0.112-0.687-0.373-1.218-0.784c-0.532-0.411-1.251-0.84-2.156-1.288
		c-0.906-0.448-2.04-0.849-3.402-1.204c-1.363-0.354-3.015-0.532-4.956-0.532c-2.576,0-4.9,0.411-6.972,1.232
		c-2.072,0.821-3.841,1.998-5.306,3.528c-1.465,1.531-2.595,3.397-3.388,5.6c-0.793,2.203-1.189,4.676-1.189,7.42
		c0,2.8,0.401,5.311,1.204,7.532c0.802,2.222,1.927,4.103,3.374,5.642c1.446,1.54,3.182,2.721,5.208,3.542
		C-6.584-88.585-4.349-88.175-1.903-88.175z"/>
	<path fill="#29A9E0" d="M58.325-106.123c0,3.062-0.458,5.838-1.372,8.33c-0.914,2.492-2.203,4.62-3.864,6.384
		c-1.662,1.764-3.65,3.127-5.964,4.088c-2.315,0.961-4.882,1.442-7.7,1.442c-2.782,0-5.33-0.48-7.644-1.442
		c-2.315-0.961-4.303-2.324-5.964-4.088c-1.661-1.764-2.954-3.892-3.878-6.384c-0.924-2.492-1.386-5.268-1.386-8.33
		c0-3.042,0.462-5.81,1.386-8.302c0.924-2.492,2.217-4.62,3.878-6.384c1.661-1.764,3.649-3.131,5.964-4.102
		c2.314-0.97,4.862-1.456,7.644-1.456c2.818,0,5.385,0.481,7.7,1.442c2.314,0.962,4.302,2.329,5.964,4.102
		c1.661,1.774,2.949,3.906,3.864,6.398C57.867-111.933,58.325-109.165,58.325-106.123z M55.356-106.123
		c0-2.762-0.383-5.245-1.147-7.448c-0.766-2.203-1.844-4.069-3.234-5.6c-1.391-1.531-3.066-2.702-5.026-3.514
		c-1.96-0.812-4.135-1.218-6.524-1.218c-2.352,0-4.504,0.406-6.454,1.218c-1.951,0.812-3.631,1.983-5.04,3.514
		c-1.41,1.531-2.502,3.397-3.276,5.6c-0.774,2.203-1.162,4.685-1.162,7.448c0,2.782,0.387,5.269,1.162,7.462
		c0.774,2.194,1.867,4.056,3.276,5.586c1.409,1.531,3.089,2.698,5.04,3.5c1.95,0.803,4.102,1.204,6.454,1.204
		c2.389,0,4.563-0.401,6.524-1.204c1.96-0.802,3.635-1.969,5.026-3.5c1.391-1.53,2.469-3.392,3.234-5.586
		C54.974-100.854,55.356-103.341,55.356-106.123z"/>
	<path fill="#29A9E0" d="M60.928-125.919h2.269c0.261,0,0.476,0.07,0.643,0.21c0.168,0.14,0.299,0.322,0.393,0.546L77.728-92.29
		c0.354,0.859,0.644,1.773,0.868,2.744c0.206-1.008,0.477-1.922,0.812-2.744l13.468-32.872c0.093-0.205,0.228-0.382,0.406-0.532
		c0.177-0.15,0.396-0.224,0.658-0.224h2.24l-16.352,39.62H77.28L60.928-125.919z"/>
</g>
<rect x="-173.788" y="-109.115" transform="matrix(1 0.0017 -0.0017 1 -0.1807 0.2854)" fill="#FFFFFF" width="13.962" height="7.35"/>
<rect x="-173.789" y="-106.839" transform="matrix(1 0.0016 -0.0016 1 -0.1739 0.2747)" fill="#29A9E0" width="13.961" height="2.799"/>
<path fill="#29A9E0" d="M-165.673-108.552"/>
<g>
	<rect id="stripe_3_" x="199.488" y="-112.228" fill="#DD2A0E" width="113.444" height="4.594"/>
</g>
<g>
	<rect id="stripe" x="199.488" y="-137.571" fill="#DD2A0E" width="105.03" height="4.253"/>
</g>
<g>
	<rect id="stripe_1_" x="199.488" y="-129.067" fill="#DD2A0E" width="105.03" height="4.253"/>
</g>
<g>
	<rect id="stripe_2_" x="199.488" y="-120.562" fill="#DD2A0E" width="105.03" height="4.252"/>
</g>
<g>
	<rect id="stripe_4_" x="199.488" y="-103.553" fill="#DD2A0E" width="105.03" height="4.253"/>
</g>
<g>
	<rect id="stripe_5_" x="199.488" y="-95.048" fill="#DD2A0E" width="105.03" height="4.252"/>
</g>
<g>
	<rect id="stripe_6_" x="199.488" y="-86.543" fill="#DD2A0E" width="105.03" height="4.251"/>
</g>
<rect x="199.488" y="-137.571" fill="#22629A" width="42.012" height="29.937"/>
<polygon id="pt" fill="#FFFFFF" points="203.529,-134.303 202.08,-133.251 202.634,-134.952 "/>
<polygon id="pt_1_" fill="#FFFFFF" points="202.911,-134.103 201.462,-135.154 203.252,-135.154 "/>
<polygon id="pt_2_" fill="#FFFFFF" points="202.528,-134.628 203.081,-136.331 203.635,-134.628 "/>
<polygon id="pt_3_" fill="#FFFFFF" points="202.911,-135.154 204.701,-135.154 203.252,-134.103 "/>
<polygon id="pt_4_" fill="#FFFFFF" points="203.529,-134.952 204.082,-133.251 202.634,-134.303 "/>
<polygon id="pt_5_" fill="#FFFFFF" points="210.495,-134.303 209.045,-133.251 209.599,-134.952 "/>
<polygon id="pt_6_" fill="#FFFFFF" points="209.875,-134.103 208.428,-135.154 210.218,-135.154 "/>
<polygon id="pt_7_" fill="#FFFFFF" points="209.494,-134.628 210.047,-136.331 210.6,-134.628 "/>
<polygon id="pt_8_" fill="#FFFFFF" points="209.875,-135.154 211.665,-135.154 210.218,-134.103 "/>
<polygon id="pt_9_" fill="#FFFFFF" points="210.495,-134.952 211.048,-133.251 209.599,-134.303 "/>
<polygon id="pt_10_" fill="#FFFFFF" points="217.459,-134.303 216.011,-133.251 216.564,-134.952 "/>
<polygon id="pt_11_" fill="#FFFFFF" points="216.84,-134.103 215.392,-135.154 217.183,-135.154 "/>
<polygon id="pt_12_" fill="#FFFFFF" points="216.459,-134.628 217.012,-136.331 217.565,-134.628 "/>
<polygon id="pt_13_" fill="#FFFFFF" points="216.84,-135.154 218.631,-135.154 217.183,-134.103 "/>
<polygon id="pt_14_" fill="#FFFFFF" points="217.459,-134.952 218.013,-133.251 216.564,-134.303 "/>
<g transform="rotate(-144)">
	<polygon id="pt_15_" fill="#FFFFFF" points="224.424,-134.303 222.976,-133.251 223.529,-134.952 	"/>
</g>
<g transform="rotate(-72)">
	<polygon id="pt_16_" fill="#FFFFFF" points="223.805,-134.103 222.358,-135.154 224.148,-135.154 	"/>
</g>
<g>
	<polygon id="pt_17_" fill="#FFFFFF" points="223.423,-134.628 223.976,-136.331 224.53,-134.628 	"/>
</g>
<g transform="rotate(72)">
	<polygon id="pt_18_" fill="#FFFFFF" points="223.805,-135.154 225.596,-135.154 224.148,-134.103 	"/>
</g>
<g transform="rotate(144)">
	<polygon id="pt_19_" fill="#FFFFFF" points="224.424,-134.952 224.977,-133.251 223.529,-134.303 	"/>
</g>
<g id="star_4_">
	<g transform="rotate(-144)">
		<polygon id="pt_20_" fill="#FFFFFF" points="231.39,-134.303 229.941,-133.251 230.495,-134.952 		"/>
	</g>
	<g transform="rotate(-72)">
		<polygon id="pt_21_" fill="#FFFFFF" points="230.771,-134.103 229.323,-135.154 231.113,-135.154 		"/>
	</g>
	<g>
		<polygon id="pt_22_" fill="#FFFFFF" points="230.388,-134.628 230.941,-136.331 231.495,-134.628 		"/>
	</g>
	<g transform="rotate(72)">
		<polygon id="pt_23_" fill="#FFFFFF" points="230.771,-135.154 232.561,-135.154 231.113,-134.103 		"/>
	</g>
	<g transform="rotate(144)">
		<polygon id="pt_24_" fill="#FFFFFF" points="231.39,-134.952 231.942,-133.251 230.495,-134.303 		"/>
	</g>
</g>
<g id="star_5_">
	<g transform="rotate(-144)">
		<polygon id="pt_25_" fill="#FFFFFF" points="238.355,-134.303 236.906,-133.251 237.459,-134.952 		"/>
	</g>
	<g transform="rotate(-72)">
		<polygon id="pt_26_" fill="#FFFFFF" points="237.736,-134.103 236.287,-135.154 238.078,-135.154 		"/>
	</g>
	<g>
		<polygon id="pt_27_" fill="#FFFFFF" points="237.353,-134.628 237.907,-136.331 238.46,-134.628 		"/>
	</g>
	<g transform="rotate(72)">
		<polygon id="pt_28_" fill="#FFFFFF" points="237.736,-135.154 239.526,-135.154 238.078,-134.103 		"/>
	</g>
	<g transform="rotate(144)">
		<polygon id="pt_29_" fill="#FFFFFF" points="238.355,-134.952 238.908,-133.251 237.459,-134.303 		"/>
	</g>
</g>
<g>
	<g>
		<g id="star_6_">
			<g transform="rotate(-144)">
				<polygon id="pt_30_" fill="#FFFFFF" points="207.012,-131.318 205.563,-130.266 206.117,-131.968 				"/>
			</g>
			<g transform="rotate(-72)">
				<polygon id="pt_31_" fill="#FFFFFF" points="206.393,-131.117 204.945,-132.169 206.735,-132.169 				"/>
			</g>
			<g>
				<polygon id="pt_32_" fill="#FFFFFF" points="206.01,-131.643 206.564,-133.345 207.117,-131.643 				"/>
			</g>
			<g transform="rotate(72)">
				<polygon id="pt_33_" fill="#FFFFFF" points="206.393,-132.169 208.183,-132.169 206.735,-131.117 				"/>
			</g>
			<g transform="rotate(144)">
				<polygon id="pt_34_" fill="#FFFFFF" points="207.012,-131.968 207.564,-130.266 206.117,-131.318 				"/>
			</g>
		</g>
		<g>
			<g id="star_7_">
				<g transform="rotate(-144)">
					<polygon id="pt_35_" fill="#FFFFFF" points="213.976,-131.318 212.528,-130.266 213.082,-131.968 					"/>
				</g>
				<g transform="rotate(-72)">
					<polygon id="pt_36_" fill="#FFFFFF" points="213.358,-131.117 211.91,-132.169 213.7,-132.169 					"/>
				</g>
				<g>
					<polygon id="pt_37_" fill="#FFFFFF" points="212.976,-131.643 213.529,-133.345 214.082,-131.643 					"/>
				</g>
				<g transform="rotate(72)">
					<polygon id="pt_38_" fill="#FFFFFF" points="213.358,-132.169 215.149,-132.169 213.7,-131.117 					"/>
				</g>
				<g transform="rotate(144)">
					<polygon id="pt_39_" fill="#FFFFFF" points="213.976,-131.968 214.53,-130.266 213.082,-131.318 					"/>
				</g>
			</g>
			<g>
				<g id="star_8_">
					<g transform="rotate(-144)">
						<polygon id="pt_40_" fill="#FFFFFF" points="220.942,-131.318 219.494,-130.266 220.047,-131.968 						"/>
					</g>
					<g transform="rotate(-72)">
						<polygon id="pt_41_" fill="#FFFFFF" points="220.324,-131.117 218.875,-132.169 220.665,-132.169 						"/>
					</g>
					<g>
						<polygon id="pt_42_" fill="#FFFFFF" points="219.941,-131.643 220.494,-133.345 221.047,-131.643 						"/>
					</g>
					<g transform="rotate(72)">
						<polygon id="pt_43_" fill="#FFFFFF" points="220.324,-132.169 222.114,-132.169 220.665,-131.117 						"/>
					</g>
					<g transform="rotate(144)">
						<polygon id="pt_44_" fill="#FFFFFF" points="220.942,-131.968 221.495,-130.266 220.047,-131.318 						"/>
					</g>
				</g>
				<g>
					<g id="star_9_">
						<g transform="rotate(-144)">
							<polygon id="pt_45_" fill="#FFFFFF" points="227.907,-131.318 226.458,-130.266 227.012,-131.968 							"/>
						</g>
						<g transform="rotate(-72)">
							<polygon id="pt_46_" fill="#FFFFFF" points="227.288,-131.117 225.84,-132.169 227.63,-132.169 							"/>
						</g>
						<g>
							<polygon id="pt_47_" fill="#FFFFFF" points="226.906,-131.643 227.459,-133.345 228.012,-131.643 							"/>
						</g>
						<g transform="rotate(72)">
							<polygon id="pt_48_" fill="#FFFFFF" points="227.288,-132.169 229.079,-132.169 227.63,-131.117 							"/>
						</g>
						<g transform="rotate(144)">
							<polygon id="pt_49_" fill="#FFFFFF" points="227.907,-131.968 228.46,-130.266 227.012,-131.318 							"/>
						</g>
					</g>
					<g id="s5_1_">
						<g id="star_10_">
							<g transform="rotate(-144)">
								<polygon id="pt_50_" fill="#FFFFFF" points="234.872,-131.318 233.424,-130.266 233.976,-131.968 								"/>
							</g>
							<g transform="rotate(-72)">
								<polygon id="pt_51_" fill="#FFFFFF" points="234.253,-131.117 232.805,-132.169 234.595,-132.169 								"/>
							</g>
							<g>
								<polygon id="pt_52_" fill="#FFFFFF" points="233.871,-131.643 234.425,-133.345 234.978,-131.643 								"/>
							</g>
							<g transform="rotate(72)">
								<polygon id="pt_53_" fill="#FFFFFF" points="234.253,-132.169 236.043,-132.169 234.595,-131.117 								"/>
							</g>
							<g transform="rotate(144)">
								<polygon id="pt_54_" fill="#FFFFFF" points="234.872,-131.968 235.425,-130.266 233.976,-131.318 								"/>
							</g>
						</g>
					</g>
					<g>
						<g>
							<g>
								<g>
									<g>
										<g id="star_11_">
											<g transform="rotate(-144)">
												<polygon id="pt_55_" fill="#FFFFFF" points="203.529,-128.332 202.08,-127.281 202.634,-128.984 												"/>
											</g>
											<g transform="rotate(-72)">
												<polygon id="pt_56_" fill="#FFFFFF" points="202.911,-128.132 201.462,-129.184 203.252,-129.184 												"/>
											</g>
											<g>
												<polygon id="pt_57_" fill="#FFFFFF" points="202.528,-128.658 203.081,-130.361 203.635,-128.658 												"/>
											</g>
											<g transform="rotate(72)">
												<polygon id="pt_58_" fill="#FFFFFF" points="202.911,-129.184 204.701,-129.184 203.252,-128.132 												"/>
											</g>
											<g transform="rotate(144)">
												<polygon id="pt_59_" fill="#FFFFFF" points="203.529,-128.984 204.082,-127.281 202.634,-128.332 												"/>
											</g>
										</g>
										<g>
											<g id="star_12_">
												<g transform="rotate(-144)">
													<polygon id="pt_60_" fill="#FFFFFF" points="210.495,-128.332 209.045,-127.281 209.599,-128.984 													"/>
												</g>
												<g transform="rotate(-72)">
													<polygon id="pt_61_" fill="#FFFFFF" points="209.875,-128.132 208.428,-129.184 210.218,-129.184 													"/>
												</g>
												<g>
													<polygon id="pt_62_" fill="#FFFFFF" points="209.494,-128.658 210.047,-130.361 210.6,-128.658 													"/>
												</g>
												<g transform="rotate(72)">
													<polygon id="pt_63_" fill="#FFFFFF" points="209.875,-129.184 211.665,-129.184 210.218,-128.132 													"/>
												</g>
												<g transform="rotate(144)">
													<polygon id="pt_64_" fill="#FFFFFF" points="210.495,-128.984 211.048,-127.281 209.599,-128.332 													"/>
												</g>
											</g>
											<g>
												<g id="star_13_">
													<g transform="rotate(-144)">
														<polygon id="pt_65_" fill="#FFFFFF" points="217.459,-128.332 216.011,-127.281 216.564,-128.984 														"/>
													</g>
													<g transform="rotate(-72)">
														<polygon id="pt_66_" fill="#FFFFFF" points="216.84,-128.132 215.392,-129.184 217.183,-129.184 														"/>
													</g>
													<g>
														<polygon id="pt_67_" fill="#FFFFFF" points="216.459,-128.658 217.012,-130.361 217.565,-128.658 														"/>
													</g>
													<g transform="rotate(72)">
														<polygon id="pt_68_" fill="#FFFFFF" points="216.84,-129.184 218.631,-129.184 217.183,-128.132 														"/>
													</g>
													<g transform="rotate(144)">
														<polygon id="pt_69_" fill="#FFFFFF" points="217.459,-128.984 218.013,-127.281 216.564,-128.332 														"/>
													</g>
												</g>
												<g>
													<g id="star_14_">
														<g transform="rotate(-144)">
															<polygon id="pt_70_" fill="#FFFFFF" points="224.424,-128.332 222.976,-127.281 223.529,-128.984 															"/>
														</g>
														<g transform="rotate(-72)">
															<polygon id="pt_71_" fill="#FFFFFF" points="223.805,-128.132 222.358,-129.184 224.148,-129.184 															"/>
														</g>
														<g>
															<polygon id="pt_72_" fill="#FFFFFF" points="223.423,-128.658 223.976,-130.361 224.53,-128.658 															"/>
														</g>
														<g transform="rotate(72)">
															<polygon id="pt_73_" fill="#FFFFFF" points="223.805,-129.184 225.596,-129.184 224.148,-128.132 															"/>
														</g>
														<g transform="rotate(144)">
															<polygon id="pt_74_" fill="#FFFFFF" points="224.424,-128.984 224.977,-127.281 223.529,-128.332 															"/>
														</g>
													</g>
													<g id="s5_2_">
														<g id="star_15_">
															<g transform="rotate(-144)">
																<polygon id="pt_75_" fill="#FFFFFF" points="231.39,-128.332 229.941,-127.281 230.495,-128.984 																
																	"/>
															</g>
															<g transform="rotate(-72)">
																<polygon id="pt_76_" fill="#FFFFFF" points="230.771,-128.132 229.323,-129.184 231.113,-129.184 																
																	"/>
															</g>
															<g>
																<polygon id="pt_77_" fill="#FFFFFF" points="230.388,-128.658 230.941,-130.361 231.495,-128.658 																
																	"/>
															</g>
															<g transform="rotate(72)">
																<polygon id="pt_78_" fill="#FFFFFF" points="230.771,-129.184 232.561,-129.184 231.113,-128.132 																
																	"/>
															</g>
															<g transform="rotate(144)">
																<polygon id="pt_79_" fill="#FFFFFF" points="231.39,-128.984 231.942,-127.281 230.495,-128.332 																
																	"/>
															</g>
														</g>
													</g>
													<g id="s6_1_">
														<g id="star_16_">
															<g transform="rotate(-144)">
																<polygon id="pt_80_" fill="#FFFFFF" points="238.355,-128.332 236.906,-127.281 237.459,-128.984 																
																	"/>
															</g>
															<g transform="rotate(-72)">
																<polygon id="pt_81_" fill="#FFFFFF" points="237.736,-128.132 236.287,-129.184 238.078,-129.184 																
																	"/>
															</g>
															<g>
																<polygon id="pt_82_" fill="#FFFFFF" points="237.353,-128.658 237.907,-130.361 238.46,-128.658 																
																	"/>
															</g>
															<g transform="rotate(72)">
																<polygon id="pt_83_" fill="#FFFFFF" points="237.736,-129.184 239.526,-129.184 238.078,-128.132 																
																	"/>
															</g>
															<g transform="rotate(144)">
																<polygon id="pt_84_" fill="#FFFFFF" points="238.355,-128.984 238.908,-127.281 237.459,-128.332 																
																	"/>
															</g>
														</g>
													</g>
													<g>
														<g>
															<g id="star_17_">
															</g>
															<g id="star_18_">
															</g>
															<g id="star_19_">
															</g>
															<g id="star_20_">
															</g>
															<g id="star_21_">
															</g>
														</g>
													</g>
													<g>
														<g>
															<g id="s6_2_">
															</g>
															<g id="s5_3_">
															</g>
															<g id="s6_3_">
															</g>
															<g id="s5_4_">
															</g>
														</g>
														<g id="s6_4_">
														</g>
													</g>
												</g>
											</g>
										</g>
									</g>
								</g>
							</g>
						</g>
					</g>
				</g>
			</g>
		</g>
	</g>
</g>
<g>
	<g id="star_56_">
		<g transform="rotate(-144)">
			<polygon id="pt_224_" fill="#FFFFFF" points="207.012,-125.216 205.563,-124.165 206.117,-125.867 			"/>
		</g>
		<g transform="rotate(-72)">
			<polygon id="pt_223_" fill="#FFFFFF" points="206.393,-125.016 204.945,-126.068 206.735,-126.068 			"/>
		</g>
		<g>
			<polygon id="pt_222_" fill="#FFFFFF" points="206.01,-125.542 206.564,-127.244 207.117,-125.542 			"/>
		</g>
		<g transform="rotate(72)">
			<polygon id="pt_221_" fill="#FFFFFF" points="206.393,-126.068 208.183,-126.068 206.735,-125.016 			"/>
		</g>
		<g transform="rotate(144)">
			<polygon id="pt_220_" fill="#FFFFFF" points="207.012,-125.867 207.564,-124.165 206.117,-125.216 			"/>
		</g>
	</g>
	<g id="star_55_">
		<g transform="rotate(-144)">
			<polygon id="pt_219_" fill="#FFFFFF" points="213.976,-125.216 212.528,-124.165 213.082,-125.867 			"/>
		</g>
		<g transform="rotate(-72)">
			<polygon id="pt_218_" fill="#FFFFFF" points="213.358,-125.016 211.91,-126.068 213.7,-126.068 			"/>
		</g>
		<g>
			<polygon id="pt_217_" fill="#FFFFFF" points="212.976,-125.542 213.529,-127.244 214.082,-125.542 			"/>
		</g>
		<g transform="rotate(72)">
			<polygon id="pt_216_" fill="#FFFFFF" points="213.358,-126.068 215.149,-126.068 213.7,-125.016 			"/>
		</g>
		<g transform="rotate(144)">
			<polygon id="pt_215_" fill="#FFFFFF" points="213.976,-125.867 214.53,-124.165 213.082,-125.216 			"/>
		</g>
	</g>
	<g id="star_54_">
		<g transform="rotate(-144)">
			<polygon id="pt_214_" fill="#FFFFFF" points="220.942,-125.216 219.494,-124.165 220.047,-125.867 			"/>
		</g>
		<g transform="rotate(-72)">
			<polygon id="pt_213_" fill="#FFFFFF" points="220.324,-125.016 218.875,-126.068 220.665,-126.068 			"/>
		</g>
		<g>
			<polygon id="pt_212_" fill="#FFFFFF" points="219.941,-125.542 220.494,-127.244 221.047,-125.542 			"/>
		</g>
		<g transform="rotate(72)">
			<polygon id="pt_211_" fill="#FFFFFF" points="220.324,-126.068 222.114,-126.068 220.665,-125.016 			"/>
		</g>
		<g transform="rotate(144)">
			<polygon id="pt_210_" fill="#FFFFFF" points="220.942,-125.867 221.495,-124.165 220.047,-125.216 			"/>
		</g>
	</g>
	<g id="star_53_">
		<g transform="rotate(-144)">
			<polygon id="pt_209_" fill="#FFFFFF" points="227.907,-125.216 226.458,-124.165 227.012,-125.867 			"/>
		</g>
		<g transform="rotate(-72)">
			<polygon id="pt_208_" fill="#FFFFFF" points="227.288,-125.016 225.84,-126.068 227.63,-126.068 			"/>
		</g>
		<g>
			<polygon id="pt_207_" fill="#FFFFFF" points="226.906,-125.542 227.459,-127.244 228.012,-125.542 			"/>
		</g>
		<g transform="rotate(72)">
			<polygon id="pt_206_" fill="#FFFFFF" points="227.288,-126.068 229.079,-126.068 227.63,-125.016 			"/>
		</g>
		<g transform="rotate(144)">
			<polygon id="pt_205_" fill="#FFFFFF" points="227.907,-125.867 228.46,-124.165 227.012,-125.216 			"/>
		</g>
	</g>
	<g id="star_52_">
		<g transform="rotate(-144)">
			<polygon id="pt_204_" fill="#FFFFFF" points="234.872,-125.216 233.424,-124.165 233.976,-125.867 			"/>
		</g>
		<g transform="rotate(-72)">
			<polygon id="pt_203_" fill="#FFFFFF" points="234.253,-125.016 232.805,-126.068 234.595,-126.068 			"/>
		</g>
		<g>
			<polygon id="pt_202_" fill="#FFFFFF" points="233.871,-125.542 234.425,-127.244 234.978,-125.542 			"/>
		</g>
		<g transform="rotate(72)">
			<polygon id="pt_201_" fill="#FFFFFF" points="234.253,-126.068 236.043,-126.068 234.595,-125.016 			"/>
		</g>
		<g transform="rotate(144)">
			<polygon id="pt_200_" fill="#FFFFFF" points="234.872,-125.867 235.425,-124.165 233.976,-125.216 			"/>
		</g>
	</g>
</g>
<g id="star_66_">
	<g transform="rotate(-144)">
		<polygon id="pt_274_" fill="#FFFFFF" points="207.012,-119.648 205.563,-118.596 206.117,-120.298 		"/>
	</g>
	<g transform="rotate(-72)">
		<polygon id="pt_273_" fill="#FFFFFF" points="206.393,-119.447 204.945,-120.499 206.735,-120.499 		"/>
	</g>
	<g>
		<polygon id="pt_272_" fill="#FFFFFF" points="206.01,-119.973 206.564,-121.675 207.117,-119.973 		"/>
	</g>
	<g transform="rotate(72)">
		<polygon id="pt_271_" fill="#FFFFFF" points="206.393,-120.499 208.183,-120.499 206.735,-119.447 		"/>
	</g>
	<g transform="rotate(144)">
		<polygon id="pt_270_" fill="#FFFFFF" points="207.012,-120.298 207.564,-118.596 206.117,-119.648 		"/>
	</g>
</g>
<g id="star_65_">
	<g transform="rotate(-144)">
		<polygon id="pt_269_" fill="#FFFFFF" points="213.976,-119.648 212.528,-118.596 213.082,-120.298 		"/>
	</g>
	<g transform="rotate(-72)">
		<polygon id="pt_268_" fill="#FFFFFF" points="213.358,-119.447 211.91,-120.499 213.7,-120.499 		"/>
	</g>
	<g>
		<polygon id="pt_267_" fill="#FFFFFF" points="212.976,-119.973 213.529,-121.675 214.082,-119.973 		"/>
	</g>
	<g transform="rotate(72)">
		<polygon id="pt_266_" fill="#FFFFFF" points="213.358,-120.499 215.149,-120.499 213.7,-119.447 		"/>
	</g>
	<g transform="rotate(144)">
		<polygon id="pt_265_" fill="#FFFFFF" points="213.976,-120.298 214.53,-118.596 213.082,-119.648 		"/>
	</g>
</g>
<g id="star_64_">
	<g transform="rotate(-144)">
		<polygon id="pt_264_" fill="#FFFFFF" points="220.942,-119.648 219.494,-118.596 220.047,-120.298 		"/>
	</g>
	<g transform="rotate(-72)">
		<polygon id="pt_263_" fill="#FFFFFF" points="220.324,-119.447 218.875,-120.499 220.665,-120.499 		"/>
	</g>
	<g>
		<polygon id="pt_262_" fill="#FFFFFF" points="219.941,-119.973 220.494,-121.675 221.047,-119.973 		"/>
	</g>
	<g transform="rotate(72)">
		<polygon id="pt_261_" fill="#FFFFFF" points="220.324,-120.499 222.114,-120.499 220.665,-119.447 		"/>
	</g>
	<g transform="rotate(144)">
		<polygon id="pt_260_" fill="#FFFFFF" points="220.942,-120.298 221.495,-118.596 220.047,-119.648 		"/>
	</g>
</g>
<g id="star_63_">
	<g transform="rotate(-144)">
		<polygon id="pt_259_" fill="#FFFFFF" points="227.907,-119.648 226.458,-118.596 227.012,-120.298 		"/>
	</g>
	<g transform="rotate(-72)">
		<polygon id="pt_258_" fill="#FFFFFF" points="227.288,-119.447 225.84,-120.499 227.63,-120.499 		"/>
	</g>
	<g>
		<polygon id="pt_257_" fill="#FFFFFF" points="226.906,-119.973 227.459,-121.675 228.012,-119.973 		"/>
	</g>
	<g transform="rotate(72)">
		<polygon id="pt_256_" fill="#FFFFFF" points="227.288,-120.499 229.079,-120.499 227.63,-119.447 		"/>
	</g>
	<g transform="rotate(144)">
		<polygon id="pt_255_" fill="#FFFFFF" points="227.907,-120.298 228.46,-118.596 227.012,-119.648 		"/>
	</g>
</g>
<g id="star_62_">
	<g transform="rotate(-144)">
		<polygon id="pt_254_" fill="#FFFFFF" points="234.872,-119.648 233.424,-118.596 233.976,-120.298 		"/>
	</g>
	<g transform="rotate(-72)">
		<polygon id="pt_253_" fill="#FFFFFF" points="234.253,-119.447 232.805,-120.499 234.595,-120.499 		"/>
	</g>
	<g>
		<polygon id="pt_252_" fill="#FFFFFF" points="233.871,-119.973 234.425,-121.675 234.978,-119.973 		"/>
	</g>
	<g transform="rotate(72)">
		<polygon id="pt_251_" fill="#FFFFFF" points="234.253,-120.499 236.043,-120.499 234.595,-119.447 		"/>
	</g>
	<g transform="rotate(144)">
		<polygon id="pt_250_" fill="#FFFFFF" points="234.872,-120.298 235.425,-118.596 233.976,-119.648 		"/>
	</g>
</g>
<g>
	<g>
		<g>
			<g>
				<g>
					<g id="star_51_">
						<g transform="rotate(-144)">
							<polygon id="pt_199_" fill="#FFFFFF" points="203.529,-122.232 202.08,-121.18 202.634,-122.882 							"/>
						</g>
						<g transform="rotate(-72)">
							<polygon id="pt_198_" fill="#FFFFFF" points="202.911,-122.031 201.462,-123.083 203.252,-123.083 							"/>
						</g>
						<g>
							<polygon id="pt_197_" fill="#FFFFFF" points="202.528,-122.556 203.081,-124.26 203.635,-122.556 							"/>
						</g>
						<g transform="rotate(72)">
							<polygon id="pt_196_" fill="#FFFFFF" points="202.911,-123.083 204.701,-123.083 203.252,-122.031 							"/>
						</g>
						<g transform="rotate(144)">
							<polygon id="pt_195_" fill="#FFFFFF" points="203.529,-122.882 204.082,-121.18 202.634,-122.232 							"/>
						</g>
					</g>
					<g>
						<g id="star_50_">
							<g transform="rotate(-144)">
								<polygon id="pt_194_" fill="#FFFFFF" points="210.495,-122.232 209.045,-121.18 209.599,-122.882 								"/>
							</g>
							<g transform="rotate(-72)">
								<polygon id="pt_193_" fill="#FFFFFF" points="209.875,-122.031 208.428,-123.083 210.218,-123.083 								"/>
							</g>
							<g>
								<polygon id="pt_192_" fill="#FFFFFF" points="209.494,-122.556 210.047,-124.26 210.6,-122.556 								"/>
							</g>
							<g transform="rotate(72)">
								<polygon id="pt_191_" fill="#FFFFFF" points="209.875,-123.083 211.665,-123.083 210.218,-122.031 								"/>
							</g>
							<g transform="rotate(144)">
								<polygon id="pt_190_" fill="#FFFFFF" points="210.495,-122.882 211.048,-121.18 209.599,-122.232 								"/>
							</g>
						</g>
						<g>
							<g id="star_49_">
								<g transform="rotate(-144)">
									<polygon id="pt_189_" fill="#FFFFFF" points="217.459,-122.232 216.011,-121.18 216.564,-122.882 									"/>
								</g>
								<g transform="rotate(-72)">
									<polygon id="pt_188_" fill="#FFFFFF" points="216.84,-122.031 215.392,-123.083 217.183,-123.083 									"/>
								</g>
								<g>
									<polygon id="pt_187_" fill="#FFFFFF" points="216.459,-122.556 217.012,-124.26 217.565,-122.556 									"/>
								</g>
								<g transform="rotate(72)">
									<polygon id="pt_186_" fill="#FFFFFF" points="216.84,-123.083 218.631,-123.083 217.183,-122.031 									"/>
								</g>
								<g transform="rotate(144)">
									<polygon id="pt_185_" fill="#FFFFFF" points="217.459,-122.882 218.013,-121.18 216.564,-122.232 									"/>
								</g>
							</g>
							<g>
								<g id="star_48_">
									<g transform="rotate(-144)">
										<polygon id="pt_184_" fill="#FFFFFF" points="224.424,-122.232 222.976,-121.18 223.529,-122.882 										"/>
									</g>
									<g transform="rotate(-72)">
										<polygon id="pt_183_" fill="#FFFFFF" points="223.805,-122.031 222.358,-123.083 224.148,-123.083 										"/>
									</g>
									<g>
										<polygon id="pt_182_" fill="#FFFFFF" points="223.423,-122.556 223.976,-124.26 224.53,-122.556 										"/>
									</g>
									<g transform="rotate(72)">
										<polygon id="pt_181_" fill="#FFFFFF" points="223.805,-123.083 225.596,-123.083 224.148,-122.031 										"/>
									</g>
									<g transform="rotate(144)">
										<polygon id="pt_180_" fill="#FFFFFF" points="224.424,-122.882 224.977,-121.18 223.529,-122.232 										"/>
									</g>
								</g>
								<g id="s5_12_">
									<g id="star_47_">
										<g transform="rotate(-144)">
											<polygon id="pt_179_" fill="#FFFFFF" points="231.39,-122.232 229.941,-121.18 230.495,-122.882 											"/>
										</g>
										<g transform="rotate(-72)">
											<polygon id="pt_178_" fill="#FFFFFF" points="230.771,-122.031 229.323,-123.083 231.113,-123.083 											"/>
										</g>
										<g>
											<polygon id="pt_177_" fill="#FFFFFF" points="230.388,-122.556 230.941,-124.26 231.495,-122.556 											"/>
										</g>
										<g transform="rotate(72)">
											<polygon id="pt_176_" fill="#FFFFFF" points="230.771,-123.083 232.561,-123.083 231.113,-122.031 											"/>
										</g>
										<g transform="rotate(144)">
											<polygon id="pt_175_" fill="#FFFFFF" points="231.39,-122.882 231.942,-121.18 230.495,-122.232 											"/>
										</g>
									</g>
								</g>
								<g id="s6_13_">
									<g id="star_46_">
										<g transform="rotate(-144)">
											<polygon id="pt_174_" fill="#FFFFFF" points="238.355,-122.232 236.906,-121.18 237.459,-122.882 											"/>
										</g>
										<g transform="rotate(-72)">
											<polygon id="pt_173_" fill="#FFFFFF" points="237.736,-122.031 236.287,-123.083 238.078,-123.083 											"/>
										</g>
										<g>
											<polygon id="pt_172_" fill="#FFFFFF" points="237.353,-122.556 237.907,-124.26 238.46,-122.556 											"/>
										</g>
										<g transform="rotate(72)">
											<polygon id="pt_171_" fill="#FFFFFF" points="237.736,-123.083 239.526,-123.083 238.078,-122.031 											"/>
										</g>
										<g transform="rotate(144)">
											<polygon id="pt_170_" fill="#FFFFFF" points="238.355,-122.882 238.908,-121.18 237.459,-122.232 											"/>
										</g>
									</g>
								</g>
								<g>
									<g>
										<g id="star_45_">
										</g>
										<g id="star_44_">
										</g>
										<g id="star_3_">
										</g>
										<g id="star_2_">
										</g>
										<g id="star_1_">
										</g>
									</g>
								</g>
								<g>
									<g>
										<g id="s6_12_">
										</g>
										<g id="s5_11_">
										</g>
										<g id="s6_11_">
										</g>
										<g id="s5_10_">
										</g>
									</g>
									<g id="s6_10_">
									</g>
								</g>
							</g>
						</g>
					</g>
				</g>
			</g>
		</g>
	</g>
</g>
<g>
	<g>
		<g>
			<g>
				<g>
					<g>
						<g>
							<g>
								<g>
									<g id="star_43_">
										<g transform="rotate(-144)">
											<polygon id="pt_169_" fill="#FFFFFF" points="203.529,-116.8 202.08,-115.747 202.634,-117.451 											"/>
										</g>
										<g transform="rotate(-72)">
											<polygon id="pt_168_" fill="#FFFFFF" points="202.911,-116.599 201.462,-117.651 203.252,-117.651 											"/>
										</g>
										<g>
											<polygon id="pt_167_" fill="#FFFFFF" points="202.528,-117.125 203.081,-118.828 203.635,-117.125 											"/>
										</g>
										<g transform="rotate(72)">
											<polygon id="pt_166_" fill="#FFFFFF" points="202.911,-117.651 204.701,-117.651 203.252,-116.599 											"/>
										</g>
										<g transform="rotate(144)">
											<polygon id="pt_165_" fill="#FFFFFF" points="203.529,-117.451 204.082,-115.747 202.634,-116.8 											"/>
										</g>
									</g>
									<g>
										<g id="star_42_">
											<g transform="rotate(-144)">
												<polygon id="pt_164_" fill="#FFFFFF" points="210.495,-116.8 209.045,-115.747 209.599,-117.451 												"/>
											</g>
											<g transform="rotate(-72)">
												<polygon id="pt_163_" fill="#FFFFFF" points="209.875,-116.599 208.428,-117.651 210.218,-117.651 												"/>
											</g>
											<g>
												<polygon id="pt_162_" fill="#FFFFFF" points="209.494,-117.125 210.047,-118.828 210.6,-117.125 												"/>
											</g>
											<g transform="rotate(72)">
												<polygon id="pt_161_" fill="#FFFFFF" points="209.875,-117.651 211.665,-117.651 210.218,-116.599 												"/>
											</g>
											<g transform="rotate(144)">
												<polygon id="pt_160_" fill="#FFFFFF" points="210.495,-117.451 211.048,-115.747 209.599,-116.8 												"/>
											</g>
										</g>
										<g>
											<g id="star_41_">
												<g transform="rotate(-144)">
													<polygon id="pt_159_" fill="#FFFFFF" points="217.459,-116.8 216.011,-115.747 216.564,-117.451 													"/>
												</g>
												<g transform="rotate(-72)">
													<polygon id="pt_158_" fill="#FFFFFF" points="216.84,-116.599 215.392,-117.651 217.183,-117.651 													"/>
												</g>
												<g>
													<polygon id="pt_157_" fill="#FFFFFF" points="216.459,-117.125 217.012,-118.828 217.565,-117.125 													"/>
												</g>
												<g transform="rotate(72)">
													<polygon id="pt_156_" fill="#FFFFFF" points="216.84,-117.651 218.631,-117.651 217.183,-116.599 													"/>
												</g>
												<g transform="rotate(144)">
													<polygon id="pt_155_" fill="#FFFFFF" points="217.459,-117.451 218.013,-115.747 216.564,-116.8 													"/>
												</g>
											</g>
											<g>
												<g id="star_40_">
													<g transform="rotate(-144)">
														<polygon id="pt_154_" fill="#FFFFFF" points="224.424,-116.8 222.976,-115.747 223.529,-117.451 														"/>
													</g>
													<g transform="rotate(-72)">
														<polygon id="pt_153_" fill="#FFFFFF" points="223.805,-116.599 222.358,-117.651 224.148,-117.651 														"/>
													</g>
													<g>
														<polygon id="pt_152_" fill="#FFFFFF" points="223.423,-117.125 223.976,-118.828 224.53,-117.125 														"/>
													</g>
													<g transform="rotate(72)">
														<polygon id="pt_151_" fill="#FFFFFF" points="223.805,-117.651 225.596,-117.651 224.148,-116.599 														"/>
													</g>
													<g transform="rotate(144)">
														<polygon id="pt_150_" fill="#FFFFFF" points="224.424,-117.451 224.977,-115.747 223.529,-116.8 														"/>
													</g>
												</g>
												<g id="s5_9_">
													<g id="star_39_">
														<g transform="rotate(-144)">
															<polygon id="pt_149_" fill="#FFFFFF" points="231.39,-116.8 229.941,-115.747 230.495,-117.451 															"/>
														</g>
														<g transform="rotate(-72)">
															<polygon id="pt_148_" fill="#FFFFFF" points="230.771,-116.599 229.323,-117.651 231.113,-117.651 															
																"/>
														</g>
														<g>
															<polygon id="pt_147_" fill="#FFFFFF" points="230.388,-117.125 230.941,-118.828 231.495,-117.125 															
																"/>
														</g>
														<g transform="rotate(72)">
															<polygon id="pt_146_" fill="#FFFFFF" points="230.771,-117.651 232.561,-117.651 231.113,-116.599 															
																"/>
														</g>
														<g transform="rotate(144)">
															<polygon id="pt_145_" fill="#FFFFFF" points="231.39,-117.451 231.942,-115.747 230.495,-116.8 															"/>
														</g>
													</g>
												</g>
												<g id="s6_9_">
													<g id="star_38_">
														<g transform="rotate(-144)">
															<polygon id="pt_144_" fill="#FFFFFF" points="238.355,-116.8 236.906,-115.747 237.459,-117.451 															"/>
														</g>
														<g transform="rotate(-72)">
															<polygon id="pt_143_" fill="#FFFFFF" points="237.736,-116.599 236.287,-117.651 238.078,-117.651 															
																"/>
														</g>
														<g>
															<polygon id="pt_142_" fill="#FFFFFF" points="237.353,-117.125 237.907,-118.828 238.46,-117.125 															"/>
														</g>
														<g transform="rotate(72)">
															<polygon id="pt_141_" fill="#FFFFFF" points="237.736,-117.651 239.526,-117.651 238.078,-116.599 															
																"/>
														</g>
														<g transform="rotate(144)">
															<polygon id="pt_140_" fill="#FFFFFF" points="238.355,-117.451 238.908,-115.747 237.459,-116.8 															"/>
														</g>
													</g>
												</g>
												<g>
													<g>
														<g>
															<g id="star_37_">
																<g transform="rotate(-144)">
																	<polygon id="pt_139_" fill="#FFFFFF" points="207.012,-113.815 205.563,-112.763 206.117,-114.465 
																																			"/>
																</g>
																<g transform="rotate(-72)">
																	<polygon id="pt_138_" fill="#FFFFFF" points="206.393,-113.615 204.945,-114.666 206.735,-114.666 
																																			"/>
																</g>
																<g>
																	<polygon id="pt_137_" fill="#FFFFFF" points="206.01,-114.14 206.564,-115.842 207.117,-114.14 																	
																		"/>
																</g>
																<g transform="rotate(72)">
																	<polygon id="pt_136_" fill="#FFFFFF" points="206.393,-114.666 208.183,-114.666 206.735,-113.615 
																																			"/>
																</g>
																<g transform="rotate(144)">
																	<polygon id="pt_135_" fill="#FFFFFF" points="207.012,-114.465 207.564,-112.763 206.117,-113.815 
																																			"/>
																</g>
															</g>
															<g>
																<g id="star_36_">
																	<g transform="rotate(-144)">
																		<polygon id="pt_134_" fill="#FFFFFF" points="213.976,-113.815 212.528,-112.763 213.082,-114.465 
																																					"/>
																	</g>
																	<g transform="rotate(-72)">
																		<polygon id="pt_133_" fill="#FFFFFF" points="213.358,-113.615 211.91,-114.666 213.7,-114.666 
																																					"/>
																	</g>
																	<g>
																		<polygon id="pt_132_" fill="#FFFFFF" points="212.976,-114.14 213.529,-115.842 214.082,-114.14 
																																					"/>
																	</g>
																	<g transform="rotate(72)">
																		<polygon id="pt_131_" fill="#FFFFFF" points="213.358,-114.666 215.149,-114.666 213.7,-113.615 
																																					"/>
																	</g>
																	<g transform="rotate(144)">
																		<polygon id="pt_130_" fill="#FFFFFF" points="213.976,-114.465 214.53,-112.763 213.082,-113.815 
																																					"/>
																	</g>
																</g>
																<g>
																	<g id="star_35_">
																		<g transform="rotate(-144)">
																			<polygon id="pt_129_" fill="#FFFFFF" points="220.942,-113.815 219.494,-112.763 220.047,-114.465 
																																							"/>
																		</g>
																		<g transform="rotate(-72)">
																			<polygon id="pt_128_" fill="#FFFFFF" points="220.324,-113.615 218.875,-114.666 220.665,-114.666 
																																							"/>
																		</g>
																		<g>
																			<polygon id="pt_127_" fill="#FFFFFF" points="219.941,-114.14 220.494,-115.842 221.047,-114.14 
																																							"/>
																		</g>
																		<g transform="rotate(72)">
																			<polygon id="pt_126_" fill="#FFFFFF" points="220.324,-114.666 222.114,-114.666 220.665,-113.615 
																																							"/>
																		</g>
																		<g transform="rotate(144)">
																			<polygon id="pt_125_" fill="#FFFFFF" points="220.942,-114.465 221.495,-112.763 220.047,-113.815 
																																							"/>
																		</g>
																	</g>
																	<g>
																		<g id="star_34_">
																			<g transform="rotate(-144)">
																				<polygon id="pt_124_" fill="#FFFFFF" points="227.907,-113.815 226.458,-112.763 227.012,-114.465 
																																									"/>
																			</g>
																			<g transform="rotate(-72)">
																				<polygon id="pt_123_" fill="#FFFFFF" points="227.288,-113.615 225.84,-114.666 227.63,-114.666 
																																									"/>
																			</g>
																			<g>
																				<polygon id="pt_122_" fill="#FFFFFF" points="226.906,-114.14 227.459,-115.842 228.012,-114.14 
																																									"/>
																			</g>
																			<g transform="rotate(72)">
																				<polygon id="pt_121_" fill="#FFFFFF" points="227.288,-114.666 229.079,-114.666 227.63,-113.615 
																																									"/>
																			</g>
																			<g transform="rotate(144)">
																				<polygon id="pt_120_" fill="#FFFFFF" points="227.907,-114.465 228.46,-112.763 227.012,-113.815 
																																									"/>
																			</g>
																		</g>
																		<g id="s5_8_">
																			<g id="star_33_">
																				<g transform="rotate(-144)">
																					<polygon id="pt_119_" fill="#FFFFFF" points="234.872,-113.815 233.424,-112.763 233.976,-114.465 
																																											"/>
																				</g>
																				<g transform="rotate(-72)">
																					<polygon id="pt_118_" fill="#FFFFFF" points="234.253,-113.615 232.805,-114.666 234.595,-114.666 
																																											"/>
																				</g>
																				<g>
																					<polygon id="pt_117_" fill="#FFFFFF" points="233.871,-114.14 234.425,-115.842 234.978,-114.14 
																																											"/>
																				</g>
																				<g transform="rotate(72)">
																					<polygon id="pt_116_" fill="#FFFFFF" points="234.253,-114.666 236.043,-114.666 234.595,-113.615 
																																											"/>
																				</g>
																				<g transform="rotate(144)">
																					<polygon id="pt_115_" fill="#FFFFFF" points="234.872,-114.465 235.425,-112.763 233.976,-113.815 
																																											"/>
																				</g>
																			</g>
																		</g>
																		<g>
																			<g>
																				<g>
																					<g>
																						<g>
																							<g id="star_32_">
																								<g transform="rotate(-144)">
																									<polygon id="pt_114_" fill="#FFFFFF" points="203.529,-110.829 202.08,-109.779 202.634,-111.481 
																																																			"/>
																								</g>
																								<g transform="rotate(-72)">
																									<polygon id="pt_113_" fill="#FFFFFF" points="202.911,-110.629 201.462,-111.681 203.252,-111.681 
																																																			"/>
																								</g>
																								<g>
																									<polygon id="pt_112_" fill="#FFFFFF" points="202.528,-111.155 203.081,-112.858 203.635,-111.155 
																																																			"/>
																								</g>
																								<g transform="rotate(72)">
																									<polygon id="pt_111_" fill="#FFFFFF" points="202.911,-111.681 204.701,-111.681 203.252,-110.629 
																																																			"/>
																								</g>
																								<g transform="rotate(144)">
																									<polygon id="pt_110_" fill="#FFFFFF" points="203.529,-111.481 204.082,-109.779 202.634,-110.829 
																																																			"/>
																								</g>
																							</g>
																							<g>
																								<g id="star_31_">
																									<g transform="rotate(-144)">
																										<polygon id="pt_109_" fill="#FFFFFF" points="210.495,-110.829 209.045,-109.779 209.599,-111.481 
																																																					"/>
																									</g>
																									<g transform="rotate(-72)">
																										<polygon id="pt_108_" fill="#FFFFFF" points="209.875,-110.629 208.428,-111.681 210.218,-111.681 
																																																					"/>
																									</g>
																									<g>
																										<polygon id="pt_107_" fill="#FFFFFF" points="209.494,-111.155 210.047,-112.858 210.6,-111.155 
																																																					"/>
																									</g>
																									<g transform="rotate(72)">
																										<polygon id="pt_106_" fill="#FFFFFF" points="209.875,-111.681 211.665,-111.681 210.218,-110.629 
																																																					"/>
																									</g>
																									<g transform="rotate(144)">
																										<polygon id="pt_105_" fill="#FFFFFF" points="210.495,-111.481 211.048,-109.779 209.599,-110.829 
																																																					"/>
																									</g>
																								</g>
																								<g>
																									<g id="star_30_">
																										<g transform="rotate(-144)">
																											<polygon id="pt_104_" fill="#FFFFFF" points="217.459,-110.829 216.011,-109.779 216.564,-111.481 
																																																							"/>
																										</g>
																										<g transform="rotate(-72)">
																											<polygon id="pt_103_" fill="#FFFFFF" points="216.84,-110.629 215.392,-111.681 217.183,-111.681 
																																																							"/>
																										</g>
																										<g>
																											<polygon id="pt_102_" fill="#FFFFFF" points="216.459,-111.155 217.012,-112.858 217.565,-111.155 
																																																							"/>
																										</g>
																										<g transform="rotate(72)">
																											<polygon id="pt_101_" fill="#FFFFFF" points="216.84,-111.681 218.631,-111.681 217.183,-110.629 
																																																							"/>
																										</g>
																										<g transform="rotate(144)">
																											<polygon id="pt_100_" fill="#FFFFFF" points="217.459,-111.481 218.013,-109.779 216.564,-110.829 
																																																							"/>
																										</g>
																									</g>
																									<g>
																										<g id="star_29_">
																											<g transform="rotate(-144)">
																												<polygon id="pt_99_" fill="#FFFFFF" points="224.424,-110.829 222.976,-109.779 223.529,-111.481 
																																																									"/>
																											</g>
																											<g transform="rotate(-72)">
																												<polygon id="pt_98_" fill="#FFFFFF" points="223.805,-110.629 222.358,-111.681 224.148,-111.681 
																																																									"/>
																											</g>
																											<g>
																												<polygon id="pt_97_" fill="#FFFFFF" points="223.423,-111.155 223.976,-112.858 224.53,-111.155 
																																																									"/>
																											</g>
																											<g transform="rotate(72)">
																												<polygon id="pt_96_" fill="#FFFFFF" points="223.805,-111.681 225.596,-111.681 224.148,-110.629 
																																																									"/>
																											</g>
																											<g transform="rotate(144)">
																												<polygon id="pt_95_" fill="#FFFFFF" points="224.424,-111.481 224.977,-109.779 223.529,-110.829 
																																																									"/>
																											</g>
																										</g>
																										<g id="s5_7_">
																											<g id="star_28_">
																												<g transform="rotate(-144)">
																													<polygon id="pt_94_" fill="#FFFFFF" points="231.39,-110.829 229.941,-109.779 230.495,-111.481 
																																																											"/>
																												</g>
																												<g transform="rotate(-72)">
																													<polygon id="pt_93_" fill="#FFFFFF" points="230.771,-110.629 229.323,-111.681 231.113,-111.681 
																																																											"/>
																												</g>
																												<g>
																													<polygon id="pt_92_" fill="#FFFFFF" points="230.388,-111.155 230.941,-112.858 231.495,-111.155 
																																																											"/>
																												</g>
																												<g transform="rotate(72)">
																													<polygon id="pt_91_" fill="#FFFFFF" points="230.771,-111.681 232.561,-111.681 231.113,-110.629 
																																																											"/>
																												</g>
																												<g transform="rotate(144)">
																													<polygon id="pt_90_" fill="#FFFFFF" points="231.39,-111.481 231.942,-109.779 230.495,-110.829 
																																																											"/>
																												</g>
																											</g>
																										</g>
																										<g id="s6_8_">
																											<g id="star_27_">
																												<g transform="rotate(-144)">
																													<polygon id="pt_89_" fill="#FFFFFF" points="238.355,-110.829 236.906,-109.779 237.459,-111.481 
																																																											"/>
																												</g>
																												<g transform="rotate(-72)">
																													<polygon id="pt_88_" fill="#FFFFFF" points="237.736,-110.629 236.287,-111.681 238.078,-111.681 
																																																											"/>
																												</g>
																												<g>
																													<polygon id="pt_87_" fill="#FFFFFF" points="237.353,-111.155 237.907,-112.858 238.46,-111.155 
																																																											"/>
																												</g>
																												<g transform="rotate(72)">
																													<polygon id="pt_86_" fill="#FFFFFF" points="237.736,-111.681 239.526,-111.681 238.078,-110.629 
																																																											"/>
																												</g>
																												<g transform="rotate(144)">
																													<polygon id="pt_85_" fill="#FFFFFF" points="238.355,-111.481 238.908,-109.779 237.459,-110.829 
																																																											"/>
																												</g>
																											</g>
																										</g>
																										<g>
																											<g>
																												<g id="star_26_">
																												</g>
																												<g id="star_25_">
																												</g>
																												<g id="star_24_">
																												</g>
																												<g id="star_23_">
																												</g>
																												<g id="star_22_">
																												</g>
																											</g>
																										</g>
																										<g>
																											<g>
																												<g id="s6_7_">
																												</g>
																												<g id="s5_6_">
																												</g>
																												<g id="s6_6_">
																												</g>
																												<g id="s5_5_">
																												</g>
																											</g>
																											<g id="s6_5_">
																											</g>
																										</g>
																									</g>
																								</g>
																							</g>
																						</g>
																					</g>
																				</g>
																			</g>
																		</g>
																	</g>
																</g>
															</g>
														</g>
													</g>
												</g>
											</g>
										</g>
									</g>
								</g>
							</g>
						</g>
					</g>
				</g>
			</g>
		</g>
	</g>
</g>
</svg>
