<?xml version="1.0" encoding="utf-8"?>
<!-- Generator: Adobe Illustrator 17.0.2, SVG Export Plug-In . SVG Version: 6.00 Build 0)  -->
<!DOCTYPE svg PUBLIC "-//W3C//DTD SVG 1.1//EN" "http://www.w3.org/Graphics/SVG/1.1/DTD/svg11.dtd">
<svg version="1.1" id="Layer_1" xmlns="http://www.w3.org/2000/svg" xmlns:xlink="http://www.w3.org/1999/xlink" x="0px" y="0px"
	 width="72.212px" height="63.48px" viewBox="1275.799 45.921 72.212 63.48" enable-background="new 1275.799 45.921 72.212 63.48"
	 xml:space="preserve">
<path fill="#8792A4" d="M1341.742,55.29h-60.209l-5.734,9.318h0.001c0.009,3.161,2.57,5.719,5.733,5.719
	c1.715,0,3.25-0.756,4.301-1.949c1.051,1.193,2.585,1.949,4.301,1.949s3.25-0.756,4.301-1.949c1.051,1.193,2.585,1.949,4.301,1.949
	s3.25-0.756,4.301-1.949c1.051,1.193,2.585,1.949,4.301,1.949c1.715,0,3.25-0.756,4.301-1.949c1.051,1.193,2.585,1.949,4.301,1.949
	s3.25-0.756,4.301-1.949c1.051,1.193,2.585,1.949,4.301,1.949c1.716,0,3.25-0.756,4.301-1.949c1.051,1.193,2.585,1.949,4.301,1.949
	s3.25-0.756,4.301-1.949c1.051,1.193,2.585,1.949,4.301,1.949c3.163,0,5.725-2.558,5.734-5.719h0.001L1341.742,55.29z"/>
<path fill="#8792A4" d="M1337.442,72.038c-1.295,0.864-2.776,1.332-4.301,1.332s-3.005-0.469-4.301-1.332
	c-1.295,0.864-2.776,1.332-4.301,1.332c-1.525,0-3.005-0.469-4.301-1.332c-1.295,0.864-2.776,1.332-4.301,1.332
	s-3.005-0.469-4.301-1.332c-1.295,0.864-2.776,1.332-4.301,1.332c-1.525,0-3.005-0.469-4.301-1.332
	c-1.295,0.864-2.776,1.332-4.301,1.332s-3.005-0.469-4.301-1.332c-1.295,0.864-2.776,1.332-4.301,1.332
	c-1.525,0-3.005-0.469-4.301-1.332c-1.295,0.864-2.776,1.332-4.301,1.332v32.094h6.451V79.661h12.902v25.804h40.856V73.37
	C1340.218,73.37,1338.737,72.901,1337.442,72.038z M1335.291,96.146h-27.954V79.661h27.954V96.146z"/>
</svg>
