<svg xmlns="http://www.w3.org/2000/svg" xmlns:xlink="http://www.w3.org/1999/xlink" version="1.1" id="Layer_1" x="0px" y="0px" width="100px" height="100px" viewBox="0 0 100 100" enable-background="new 0 0 100 100" xml:space="preserve">
<path d="M69.563,30.597c-0.446,0-0.901-0.074-1.347-0.229L30.792,17.29c-2.129-0.744-3.252-3.072-2.508-5.2  c0.743-2.129,3.075-3.25,5.2-2.508l37.425,13.077c2.129,0.744,3.252,3.072,2.507,5.2C72.829,29.543,71.25,30.597,69.563,30.597z"/>
<path d="M69.563,16.811c-0.435,0-0.877-0.071-1.312-0.219L51.58,10.937c-2.136-0.725-3.278-3.042-2.555-5.178  c0.725-2.134,3.045-3.279,5.178-2.555L70.874,8.86c2.136,0.725,3.278,3.042,2.555,5.178C72.852,15.737,71.264,16.811,69.563,16.811z  "/>
<path d="M60.036,49.382v-3.65l10.354-2.144c1.797-0.372,3.124-1.896,3.245-3.728c0.121-1.832-0.994-3.52-2.727-4.124L33.484,22.659  c-2.125-0.743-4.457,0.379-5.2,2.508c-0.744,2.128,0.379,4.456,2.508,5.2l23.628,8.257c-1.518,0.614-2.549,2.099-2.549,3.783v6.975  h-1.021V46.32c0-0.242-0.03-0.475-0.07-0.704c0.324-1.976-0.828-3.939-2.795-4.554l-16.331-5.104  c-2.151-0.671-4.441,0.525-5.113,2.68c-0.673,2.151,0.526,4.441,2.679,5.114l13.466,4.207v1.422h-15.99v19.393  c0,6.013,4.874,10.887,10.887,10.887h1.021v6.805c0,3.006,2.438,5.443,5.443,5.443h0.035c0.178,2.845,2.52,5.104,5.408,5.104h2.382  c2.89,0,5.23-2.259,5.409-5.104h0.034c3.006,0,5.443-2.438,5.443-5.443v-6.805c6.013,0,10.888-4.874,10.888-10.887V49.382H60.036z"/>
</svg>