<?xml version="1.0" encoding="utf-8"?>
<!-- Generator: Adobe Illustrator 16.0.0, SVG Export Plug-In . SVG Version: 6.00 Build 0)  -->
<!DOCTYPE svg PUBLIC "-//W3C//DTD SVG 1.1//EN" "http://www.w3.org/Graphics/SVG/1.1/DTD/svg11.dtd">
<svg version="1.1" id="Layer_1" xmlns="http://www.w3.org/2000/svg" xmlns:xlink="http://www.w3.org/1999/xlink" x="0px" y="0px"
	 width="71.138px" height="62.205px" viewBox="-181.243 47.195 71.138 62.205"
	 enable-background="new -181.243 47.195 71.138 62.205" xml:space="preserve">
<g id="Your_Icon_16_">
	<path fill="#8792A4" d="M-125.378,104.326l-12.666-21.936V51.688h0.127c1.053,0,1.908-0.854,1.908-1.908s-0.855-1.908-1.908-1.908
		h-15.516c-1.055,0-1.908,0.854-1.908,1.908s0.853,1.908,1.908,1.908h0.127v1.569v4.266h3.545c0.474,0,0.858,0.384,0.858,0.858
		c0,0.474-0.384,0.858-0.858,0.858h-3.545v5.999h3.545c0.474,0,0.858,0.385,0.858,0.858c0,0.475-0.384,0.858-0.858,0.858h-3.545
		v5.999h3.545c0.474,0,0.858,0.387,0.858,0.859c0,0.474-0.384,0.858-0.858,0.858h-3.545v6h3.545c0.474,0,0.858,0.385,0.858,0.858
		s-0.384,0.859-0.858,0.859h-3.545l-3.463,5.998h3.547c0.475,0,0.858,0.385,0.858,0.857c0,0.477-0.383,0.86-0.858,0.86h-4.539
		l-3.463,5.999h4.541c0.475,0,0.859,0.384,0.859,0.858c0,0.474-0.384,0.859-0.859,0.859h-5.533l-3.754,6.503
		c-1.456,2.523-0.264,4.589,2.65,4.589h35.292C-125.114,108.916-123.922,106.851-125.378,104.326z M-127.244,106.303
		c-0.137,0.241-0.387,0.393-0.663,0.402c-0.04,0.001-0.08,0.001-0.122,0.001c-0.423,0-0.769-0.33-0.794-0.746l-12.915-22.366
		c-0.068-0.122-0.106-0.259-0.106-0.397V51.476c0-0.439,0.357-0.795,0.794-0.795c0.44,0,0.795,0.355,0.795,0.795v31.508
		l13.016,22.545C-127.105,105.771-127.108,106.062-127.244,106.303z"/>
</g>
</svg>
