<?xml version="1.0" encoding="utf-8"?>
<!-- Generator: Adobe Illustrator 16.0.0, SVG Export Plug-In . SVG Version: 6.00 Build 0)  -->
<!DOCTYPE svg PUBLIC "-//W3C//DTD SVG 1.1//EN" "http://www.w3.org/Graphics/SVG/1.1/DTD/svg11.dtd">
<svg version="1.1" id="Layer_1" xmlns="http://www.w3.org/2000/svg" xmlns:xlink="http://www.w3.org/1999/xlink" x="0px" y="0px"
	 width="71.138px" height="62.205px" viewBox="1012.591 47.196 71.138 62.205"
	 enable-background="new 1012.591 47.196 71.138 62.205" xml:space="preserve">
<g>
	<path fill="#8792A4" d="M1068.746,99.066c2.292,2.295,2.292,5.964-0.094,8.349c-2.293,2.294-6.056,2.294-8.439,0l-14.681-15.689
		l-13.763,16.607c-1.286,1.376-3.67,1.468-4.954,0l-3.488-3.578c-1.468-1.378-1.468-3.669-0.091-5.046l15.873-14.772l-7.615-7.247
		c-2.57-2.386-4.037-3.121-6.056-2.479c-2.02,0.734-4.862,0.734-7.524-1.01c-5.597-3.577-5.321-10.551-5.321-10.551l0.46-0.734
		l5.779,3.764c0,0,3.58,2.201,6.331-2.02c3.118-4.954-0.367-6.973-0.367-6.973l-5.78-3.67l0.551-0.734c0,0,5.321-3.394,11.561,0.184
		c3.854,2.292,5.78,6.788,4.771,11.193c-0.551,2.66,0,3.577,2.111,5.872l7.706,7.614l8.992-9.267l6.791,6.79l-8.994,8.899
		L1068.746,99.066z M1078.012,70.899c1.102-1.102,2.937-0.918,3.944,0.092l1.01,1.01c1.102,1.102,0.918,2.751-0.092,3.761
		l-5.505,5.505c-1.102,1.103-2.752,1.193-3.853,0.093l-1.01-1.01c-1.102-1.1-1.102-2.844,0-3.945
		c0.184-0.643-0.367-1.836-1.469-2.937c-2.292-2.295-4.954-2.385-6.239-1.193l-1.833,1.927l-6.698-6.881l1.926-1.835
		c2.11-2.202-0.273-4.496-0.273-4.496c-5.873-5.872-14.132-5.687-14.132-5.687l-0.091-2.203c16.79-4.403,23.12,2.936,25.415,5.138
		l4.862,4.863c1.193,1.282-0.092,4.77,1.652,6.605C1076.36,70.532,1077.279,70.808,1078.012,70.899z M1064.524,106.315
		c1.744,0,3.12-1.377,3.12-3.118c0-1.744-1.376-3.121-3.12-3.121c-1.741,0-3.118,1.377-3.118,3.121
		C1061.406,104.938,1062.782,106.315,1064.524,106.315z"/>
</g>
</svg>
