<?xml version="1.0" encoding="utf-8"?>
<!-- Generator: Adobe Illustrator 17.0.2, SVG Export Plug-In . SVG Version: 6.00 Build 0)  -->
<!DOCTYPE svg PUBLIC "-//W3C//DTD SVG 1.1//EN" "http://www.w3.org/Graphics/SVG/1.1/DTD/svg11.dtd">
<svg version="1.1" id="Layer_1" xmlns="http://www.w3.org/2000/svg" xmlns:xlink="http://www.w3.org/1999/xlink" x="0px" y="0px"
	 width="71.404px" height="63.283px" viewBox="1188.023 46.117 71.404 63.283"
	 enable-background="new 1188.023 46.117 71.404 63.283" xml:space="preserve">
<rect x="1193.328" y="104.321" fill="#8792A4" width="61.601" height="3.423"/>
<circle fill="#8792A4" cx="1208.728" cy="61.542" r="8.556"/>
<path fill="#8792A4" d="M1198.461,61.542c0-0.289,0.02-0.574,0.043-0.856h-5.176v1.711h5.177
	C1198.481,62.116,1198.461,61.831,1198.461,61.542z"/>
<path fill="#8792A4" d="M1202.102,53.707l-3.892-3.892l-1.21,1.21l3.892,3.892C1201.261,54.481,1201.666,54.075,1202.102,53.707z"/>
<path fill="#8792A4" d="M1208.728,51.276c0.289,0,0.573,0.02,0.856,0.043v-5.176h-1.711v5.177
	C1208.154,51.296,1208.439,51.276,1208.728,51.276z"/>
<path fill="#8792A4" d="M1216.564,54.916l3.426-3.426l-1.21-1.21l-3.426,3.426C1215.79,54.075,1216.194,54.48,1216.564,54.916z"/>
<path fill="#8792A4" d="M1215.354,69.378l3.426,3.426l1.21-1.21l-3.426-3.426C1216.195,68.604,1215.79,69.01,1215.354,69.378z"/>
<path fill="#8792A4" d="M1218.951,60.687c0.023,0.282,0.043,0.566,0.043,0.856c0,0.29-0.02,0.574-0.043,0.856h5.177v-1.711
	L1218.951,60.687L1218.951,60.687z"/>
<path fill="#8792A4" d="M1208.728,71.809c-0.289,0-0.574-0.02-0.856-0.043v5.176h1.711v-5.177
	C1209.302,71.789,1209.017,71.809,1208.728,71.809z"/>
<path fill="#8792A4" d="M1200.892,68.168L1197,72.06l1.21,1.21l3.892-3.892C1201.666,69.01,1201.261,68.604,1200.892,68.168z"/>
<path fill="#8792A4" d="M1198.461,92.343h-3.422c-0.944,0-1.711,0.765-1.711,1.711v6.844h6.844v-6.844
	C1200.172,93.108,1199.406,92.343,1198.461,92.343z"/>
<path fill="#8792A4" d="M1212.15,82.076h-3.422c-0.945,0-1.711,0.765-1.711,1.711v17.111h6.844l-0.001-17.111
	C1213.861,82.842,1213.094,82.076,1212.15,82.076z"/>
<path fill="#8792A4" d="M1225.839,85.498h-3.422c-0.944,0-1.711,0.766-1.711,1.711l0.001,13.689h6.844V87.21
	C1227.551,86.263,1226.784,85.498,1225.839,85.498z"/>
<path fill="#8792A4" d="M1239.528,72.665h-3.422c-0.944,0-1.711,0.765-1.711,1.711l0.001,26.522h6.844V74.376
	C1241.24,73.43,1240.473,72.665,1239.528,72.665z"/>
<path fill="#8792A4" d="M1253.217,52.131h-3.423c-0.944,0-1.711,0.766-1.711,1.711v47.056h6.845V53.842
	C1254.928,52.897,1254.162,52.131,1253.217,52.131z"/>
</svg>
