<svg xmlns="http://www.w3.org/2000/svg" xmlns:xlink="http://www.w3.org/1999/xlink" version="1.1" id="Layer_1" x="0px" y="0px" width="100px" height="100px" viewBox="0 0 100 100" enable-background="new 0 0 100 100" xml:space="preserve">
<g>
	<path d="M47.099,20.569c0,4.444-10.165,8.045-22.707,8.045c-12.536,0-22.704-3.602-22.704-8.045c0-4.445,10.167-8.046,22.704-8.046   C36.934,12.523,47.099,16.124,47.099,20.569"/>
	<path d="M47.099,27.472"/>
	<path d="M47.099,35.886"/>
	<path d="M47.099,26.261c0,4.444-10.165,8.046-22.707,8.046c-12.536,0-22.704-3.602-22.704-8.046v8.414   c0,4.444,10.167,8.046,22.704,8.046c12.542,0,22.707-3.602,22.707-8.046V26.261z"/>
	<path d="M47.099,41.146c0,4.444-10.165,8.045-22.707,8.045c-12.536,0-22.704-3.602-22.704-8.045v8.414   c0,4.443,10.167,8.045,22.704,8.045c12.542,0,22.707-3.602,22.707-8.045V41.146z"/>
	<path d="M98.442,50.553c0,4.446-10.166,8.048-22.708,8.048c-12.535,0-22.703-3.602-22.703-8.048c0-4.442,10.168-8.044,22.703-8.044   C88.276,42.509,98.442,46.11,98.442,50.553"/>
	<path d="M98.442,56.247c0,4.443-10.166,8.045-22.708,8.045c-12.535,0-22.703-3.602-22.703-8.045v8.413   c0,4.443,10.168,8.045,22.703,8.045c12.542,0,22.708-3.602,22.708-8.045V56.247z"/>
	<path d="M98.442,71.131c0,4.445-10.166,8.046-22.708,8.046c-12.535,0-22.703-3.601-22.703-8.046v8.413   c0,4.445,10.168,8.046,22.703,8.046c12.542,0,22.708-3.601,22.708-8.046V71.131z"/>
	<path d="M47.099,55.814c0,4.445-10.165,8.048-22.707,8.048c-12.536,0-22.704-3.603-22.704-8.048v8.414   c0,4.445,10.167,8.047,22.704,8.047c12.542,0,22.707-3.602,22.707-8.047V55.814z"/>
	<path d="M47.099,70.916c0,4.445-10.165,8.046-22.707,8.046c-12.536,0-22.704-3.601-22.704-8.046v8.413   c0,4.445,10.167,8.046,22.704,8.046c12.542,0,22.707-3.601,22.707-8.046V70.916z"/>
</g>
</svg>