<?xml version="1.0" encoding="utf-8"?>
<!-- Generator: Adobe Illustrator 16.0.0, SVG Export Plug-In . SVG Version: 6.00 Build 0)  -->
<!DOCTYPE svg PUBLIC "-//W3C//DTD SVG 1.1//EN" "http://www.w3.org/Graphics/SVG/1.1/DTD/svg11.dtd">
<svg version="1.1" id="Layer_1" xmlns="http://www.w3.org/2000/svg" xmlns:xlink="http://www.w3.org/1999/xlink" x="0px" y="0px"
	 width="71.138px" height="62.205px" viewBox="546.826 47.196 71.138 62.205" enable-background="new 546.826 47.196 71.138 62.205"
	 xml:space="preserve">
<path fill="#8792A4" d="M594.02,52.146c-1.921-1.575-3.259-1.205-5.186,2.229c-1.272,2.273-3.299,2.546-4.54,2.477l0.009-0.454
	c1.439-0.716,2.455-2.166,2.455-3.877c0-2.414-1.955-4.363-4.362-4.363s-4.37,1.95-4.37,4.363c0,1.713,1.017,3.163,2.458,3.875
	l0.006,0.456c-1.238,0.071-3.268-0.202-4.54-2.476c-1.919-3.435-3.259-3.805-5.178-2.229c-1.931,1.577-9.542,10.675-18.825,9.839
	c0,0,1.84,4.178,6.855,3.251c0,0,2.681,2.782,7.028,0.835c0,0,2.261,2.038,5.856,0.184c0,0,2.672,2.044,5.523,0.278
	c0,0,1.609,1.167,3.397,0.864l0.115,10.503c-0.204-0.041-0.365-0.088-0.579-0.125c-0.007-0.004-3.115-0.669-6.404-1.594
	c-3.163-0.826-6.636-2.169-7.147-2.87c0.045-0.044,0.115-0.079,0.207-0.121c0.28-0.15,0.76-0.303,1.332-0.418
	c1.162-0.236,2.735-0.357,4.317-0.423c3.144-0.111,3.711,0.024,3.767,0.037c0.004-0.101,1.819,0.212,2.319-1.637
	c-0.02-0.016,0.037-0.092,0.004-0.136c-0.103-1.271-1.082-1.335-1.883-1.485c-1.3-0.169-0.623-0.103-2.374-0.079
	c-2.879,0.213-11.748-0.505-12.865,4.164c0,0.132-0.009,0.215-0.023,0.328c0.372,4.067,8.79,5.832,14.886,7.047
	c-2.068,1.417-3.175,3.261-3.614,5.644c-0.211,2.541,1.808,4.959,6.494,7.664c-3.562,2.521-5.9,4.888-5.711,7.746
	c0.334,2.332,2.393,5.447,6.437,7.411c0.012,0.003,0.015-0.003,0.023,0c0,0,0.004,0,0.012,0c0,0-2.831-4.317-3.021-6.68
	c-0.187-1.381,0.598-3.418,4.041-5.873l0.1,8.636h0.016c0.023,0.735,0.589,1.32,1.303,1.32c0.715,0,1.283-0.585,1.306-1.32h0.011
	l0.115-8.41c3.173,2.351,3.89,4.306,3.707,5.646c-0.189,2.362-3.016,6.681-3.016,6.681c0.003,0,0.003,0,0.006,0
	c0,0,0.01,0.004,0.029,0c4.04-1.963,6.101-5.078,6.431-7.41c0.191-2.858-2.148-5.226-5.706-7.747
	c4.684-2.704,6.705-5.122,6.495-7.663c-0.441-2.383-1.546-4.227-3.621-5.644c6.104-1.215,14.518-2.979,14.888-7.047
	c-0.014-0.113-0.023-0.196-0.023-0.328c-1.113-4.669-9.987-3.951-12.865-4.167c-1.752-0.021-1.074-0.087-2.373,0.081
	c-0.802,0.148-1.781,0.214-1.886,1.485c-0.03,0.044,0.03,0.119,0.009,0.136c0.499,1.85,2.317,1.536,2.32,1.638
	c0.052-0.013,0.619-0.148,3.767-0.037c1.577,0.064,3.152,0.187,4.313,0.422c0.574,0.116,1.047,0.269,1.333,0.419
	c0.091,0.042,0.165,0.077,0.21,0.121c-0.511,0.701-3.984,2.044-7.147,2.87c-3.292,0.923-6.4,1.589-6.407,1.594
	c-0.08,0.016-0.142,0.031-0.223,0.044l0.136-10.425c1.801,0.317,3.422-0.861,3.422-0.861c2.841,1.765,5.522-0.278,5.522-0.278
	c3.595,1.854,5.851-0.184,5.851-0.184c4.35,1.947,7.03-0.835,7.03-0.835c5.012,0.927,6.855-3.251,6.855-3.251
	C603.56,62.821,595.948,53.724,594.02,52.146z M578.296,89.392c-1.162-0.722-1.705-1.696-1.598-2.354
	c0.062-0.916-0.254-3.099,4.079-4.69l0.099,8.676C580.041,90.492,579.176,89.95,578.296,89.392z M587.693,87.037
	c0.107,0.658-0.438,1.633-1.598,2.354c-0.761,0.487-1.508,0.952-2.235,1.411l0.109-8.321
	C587.923,84.062,587.628,86.149,587.693,87.037z"/>
</svg>
