<?xml version="1.0" encoding="utf-8"?>
<!-- Generator: Adobe Illustrator 16.0.0, SVG Export Plug-In . SVG Version: 6.00 Build 0)  -->
<!DOCTYPE svg PUBLIC "-//W3C//DTD SVG 1.1//EN" "http://www.w3.org/Graphics/SVG/1.1/DTD/svg11.dtd">
<svg version="1.1" id="Layer_1" xmlns="http://www.w3.org/2000/svg" xmlns:xlink="http://www.w3.org/1999/xlink" x="0px" y="0px"
	 width="88.005px" height="62.205px" viewBox="820.24 47.196 88.005 62.205" enable-background="new 820.24 47.196 88.005 62.205"
	 xml:space="preserve">
<g>
	<path fill="#8792A4" d="M851.066,97.303c-6.804-2.769-10.261-3.068-13.922-3.387c-3.609-0.312-7.347-0.642-14.416-3.477
		c-0.525,0.794-0.96,2.335-1.31,4.2c7.271,1.895,10.951,1.749,14.5,1.603c3.592-0.147,7.303-0.3,14.562,1.625
		c2.457,0.652,4.37,1.294,5.893,1.915C855.02,99.035,853.299,98.212,851.066,97.303z"/>
	<path fill="#8792A4" d="M850.201,99.797c-7.099-1.885-10.566-1.742-14.239-1.592c-3.617,0.148-7.363,0.299-14.73-1.614
		c-0.237,1.455-0.43,3.031-0.582,4.554c7.187,0.853,10.75,0.235,14.188-0.366c3.539-0.619,7.198-1.259,14.649-0.307
		c2.914,0.373,5.11,0.827,6.804,1.319C854.786,101.159,852.821,100.492,850.201,99.797z"/>
	<path fill="#8792A4" d="M835.025,102.726c-3.512,0.612-7.15,1.242-14.478,0.378c-0.149,1.668-0.252,3.208-0.308,4.352
		c7.362-0.051,10.835-1.127,14.197-2.17c3.433-1.062,6.981-2.16,14.492-2.16c2.54,0,4.554,0.127,6.183,0.34
		c-1.498-0.379-3.371-0.731-5.762-1.037C842.064,101.495,838.645,102.092,835.025,102.726z"/>
	<path fill="#8792A4" d="M890.297,96.265c3.559,0.146,7.244,0.294,14.55-1.615c-0.36-2.028-0.797-3.604-1.302-4.207
		c-7.109,2.855-10.854,3.184-14.475,3.497c-3.659,0.318-7.118,0.615-13.922,3.387c-2.234,0.91-3.957,1.733-5.308,2.482
		c1.521-0.621,3.437-1.265,5.896-1.916C882.994,95.965,886.707,96.118,890.297,96.265z"/>
	<path fill="#8792A4" d="M902.996,88.616l-7.704-22.243c-5.576,2.213-8.549,2.469-11.427,2.718
		c-2.939,0.255-5.718,0.495-11.182,2.72c-7.578,3.085-7.988,5.012-8.209,6.048c-0.106,0.497-0.231,1.053-0.912,1.416v25.277
		c0.004-0.005,0.01-0.011,0.015-0.018c0.032-0.045,0.06-0.102,0.089-0.161c0.057-0.14,0.1-0.306,0.152-0.551
		c0.343-1.61,0.916-4.309,10.924-8.38c6.955-2.834,10.658-3.153,14.238-3.464C892.494,91.675,896.126,91.361,902.996,88.616z"/>
	<path fill="#8792A4" d="M891.376,100.801c3.44,0.602,7.006,1.217,14.204,0.364c-0.15-1.575-0.336-3.141-0.557-4.562
		c-7.391,1.921-11.145,1.774-14.771,1.624c-3.673-0.151-7.14-0.292-14.241,1.593c-2.618,0.694-4.584,1.361-6.091,1.997
		c1.694-0.493,3.892-0.946,6.806-1.321C884.177,99.542,887.84,100.182,891.376,100.801z"/>
	<path fill="#8792A4" d="M891.778,105.31c3.361,1.041,6.837,2.116,14.197,2.17c-0.062-1.328-0.166-2.827-0.295-4.354
		c-7.334,0.866-10.977,0.236-14.489-0.378c-3.62-0.633-7.038-1.229-14.325-0.298c-2.39,0.308-4.264,0.66-5.76,1.038
		c1.628-0.211,3.641-0.342,6.18-0.342C884.797,103.146,888.347,104.246,891.778,105.31z"/>
	<path fill="#8792A4" d="M862.399,103.802c0.027,0.136,0.053,0.245,0.079,0.345V79.274c-0.681-0.362-0.807-0.919-0.913-1.416
		c-0.221-1.034-0.63-2.963-8.209-6.048c-5.464-2.225-8.24-2.464-11.182-2.719c-2.877-0.248-5.849-0.506-11.422-2.718l-7.537,22.218
		c6.873,2.747,10.506,3.062,14.021,3.365c3.58,0.311,7.281,0.631,14.238,3.463C861.483,99.492,862.055,102.189,862.399,103.802z"/>
</g>
</svg>
