<?xml version="1.0" encoding="utf-8"?>
<!-- Generator: Adobe Illustrator 16.0.0, SVG Export Plug-In . SVG Version: 6.00 Build 0)  -->
<!DOCTYPE svg PUBLIC "-//W3C//DTD SVG 1.1//EN" "http://www.w3.org/Graphics/SVG/1.1/DTD/svg11.dtd">
<svg version="1.1" id="Layer_1" xmlns="http://www.w3.org/2000/svg" xmlns:xlink="http://www.w3.org/1999/xlink" x="0px" y="0px"
	 width="71.138px" height="62.205px" viewBox="729.102 47.196 71.138 62.205" enable-background="new 729.102 47.196 71.138 62.205"
	 xml:space="preserve">
<path fill="#8792A4" d="M764.468,47.326c-4.555,0.033-8.859,1.068-12.736,2.854c0.273,0.032,0.467,0.049,0.467,0.049
	s5.578,0.494,8.231-0.591c2.647-1.071,4.784,1.829,3.728,1.839c-1.066,0.003-2.37,3.201-1.304,3.201
	c1.057-0.012,1.326,1.579,2.908-0.293c1.584-1.868,1.326-1.064,4.262,0.776c2.927,1.834-1.854,1.861-1.854,1.861
	s-1.041,2.135-2.37,2.144c-1.323,0.008-4.492,3.478-5.269,5.874c-0.78,2.395-1.042,2.398-2.122,0.547
	c-1.07-1.855-2.664-0.518-4.493,1.887c-1.842,2.399,3.477,4.754,3.477,4.754l2.673,2.366c0,0,2.123-0.537,3.181-1.08
	c1.05-0.536,0.801,1.058,4.533,2.628c3.721,1.572,0.542,1.853,3.998,2.895c3.451,1.034,4.273,3.689,4.273,3.689L775,84.854
	l-1.042,3.198c0,0-1.586,0.535-2.362,3.198c-0.785,2.652-2.634,3.194-3.957,4.535c-1.324,1.332,0.294,4.246,1.103,5.83
	c0.809,1.599-1.588-0.253-2.654-0.51c-1.071-0.261-1.622-3.441-2.163-5.025c-0.534-1.586,0.237-5.309,0.221-7.17
	c-0.007-1.854-1.075-2.378-2.413-3.969c-1.335-1.586-1.342-1.844-2.152-4.762c-0.82-2.914-0.3-3.713,0.492-4.251
	c0.793-0.531-2.127-1.573-3.462-2.102c-1.325-0.521-2.664-1.577-4.525-2.881c-1.868-1.316-2.414-3.433-3.224-4.49
	c-0.796-1.058-1.098-5.839-1.109-7.432c-0.008-1.583,1.829-3.461,1.025-4.788c-0.358-0.58-1.448-0.686-2.7-0.666
	c-7.593,5.707-12.492,14.771-12.426,24.986c0.034,5.915,1.759,11.404,4.665,16.094c1.07,0.37,3.532,1.172,4.587,1.172
	c1.358,0,5.11-0.337,6.128,2.386c1.02,2.725,2.729,3.064,0.338,5.794c-0.29,0.333-0.549,0.611-0.775,0.838
	c4.753,2.891,10.317,4.561,16.29,4.521c17.122-0.107,30.921-14.094,30.808-31.227C795.575,61.004,781.601,47.218,764.468,47.326z"/>
</svg>
