<svg xmlns:dc="http://purl.org/dc/elements/1.1/" xmlns:cc="http://creativecommons.org/ns#" xmlns:rdf="http://www.w3.org/1999/02/22-rdf-syntax-ns#" xmlns:svg="http://www.w3.org/2000/svg" xmlns="http://www.w3.org/2000/svg" xmlns:sodipodi="http://sodipodi.sourceforge.net/DTD/sodipodi-0.dtd" xmlns:inkscape="http://www.inkscape.org/namespaces/inkscape" id="Layer_1" version="1.1" x="0px" y="0px" width="100px" height="100px" viewBox="0 0 100 100" enable-background="new 0 0 100 100" xml:space="preserve" inkscape:version="0.48.1 " sodipodi:docname="NounProject_Law.svg"><metadata id="metadata22"><rdf:RDF><cc:Work rdf:about=""><dc:format>image/svg+xml</dc:format><dc:type rdf:resource="http://purl.org/dc/dcmitype/StillImage"/><dc:title/><cc:license rdf:resource="http://creativecommons.org/licenses/publicdomain/"/><dc:date>28 Nov 2012</dc:date></cc:Work><cc:License rdf:about="http://creativecommons.org/licenses/publicdomain/"><cc:permits rdf:resource="http://creativecommons.org/ns#Reproduction"/><cc:permits rdf:resource="http://creativecommons.org/ns#Distribution"/><cc:permits rdf:resource="http://creativecommons.org/ns#DerivativeWorks"/></cc:License></rdf:RDF></metadata><sodipodi:namedview pagecolor="#ffffff" bordercolor="#666666" borderopacity="1" objecttolerance="10" gridtolerance="10" guidetolerance="10" inkscape:pageopacity="0" inkscape:pageshadow="2" inkscape:window-width="1280" inkscape:window-height="744" id="namedview20" showgrid="false" inkscape:zoom="2.63" inkscape:cx="-3.2319392" inkscape:cy="46.768061" inkscape:window-x="-4" inkscape:window-y="-4" inkscape:window-maximized="1" inkscape:current-layer="Layer_1"/>
    <defs id="defs3">
		<path id="label" d="M0,0 h2 q5,0 5,5 v3.2 q0,5 -5,5 h-2 Z"/>
	</defs>
	
	
	
	
	
	
	
<path d="M 20.40625 10 C 17.072917 10 15.40625 11.666667 15.40625 15 L 15.40625 85 C 15.40625 88.333333 17.072917 90 20.40625 90 L 23.40625 90 L 23.40625 10 L 20.40625 10 z M 25.40625 10 L 25.40625 90 L 82.5625 90.375 L 82.5625 10.375 L 25.40625 10 z M 51.4375 23.46875 L 56.15625 23.46875 L 56.15625 30.875 L 71.5625 30.875 L 71.5625 33.96875 L 79.65625 52.875 C 79.65625 55.467791 76.033435 57.59375 71.5625 57.59375 C 67.088461 57.59375 63.46875 55.467791 63.46875 52.875 L 71.5625 33.96875 L 56.15625 33.96875 L 56.15625 69.25 L 63.28125 69.25 L 63.28125 72.34375 L 44.34375 72.34375 L 44.34375 69.25 L 51.4375 69.25 L 51.4375 33.96875 L 36.03125 33.96875 L 44.15625 52.875 C 44.15625 55.467791 40.505288 57.59375 36.03125 57.59375 C 31.560314 57.59375 27.9375 55.467791 27.9375 52.875 L 36.03125 33.96875 L 36.03125 30.875 L 51.4375 30.875 L 51.4375 23.46875 z M 36.03125 37.09375 L 29.28125 52.875 L 42.8125 52.875 L 36.03125 37.09375 z M 71.5625 37.09375 L 64.8125 52.875 L 78.3125 52.875 L 71.5625 37.09375 z " id="polygon3"/></svg>