<?xml version="1.0" encoding="utf-8"?>
<!-- Generator: Adobe Illustrator 16.0.0, SVG Export Plug-In . SVG Version: 6.00 Build 0)  -->
<!DOCTYPE svg PUBLIC "-//W3C//DTD SVG 1.1//EN" "http://www.w3.org/Graphics/SVG/1.1/DTD/svg11.dtd">
<svg version="1.1" id="Layer_1" xmlns="http://www.w3.org/2000/svg" xmlns:xlink="http://www.w3.org/1999/xlink" x="0px" y="0px"
	 width="71.138px" height="62.205px" viewBox="0 47.196 71.138 62.205" enable-background="new 0 47.196 71.138 62.205"
	 xml:space="preserve">
<g>
	<g>
		<path fill="#8792A4" d="M28.691,109.828c0,0,2.076-1.415,8.197-17.113c7.059-18.086,23.369-25.5,31.581-9.05
			c0,0-9.181-4.194-9.602,6.566c-0.093,2.304,2.465,19.649,18.104,19.597H28.691z"/>
		<path fill="#FFFFFF" d="M76.902,110.35h-49.9l1.396-0.951c0.066-0.057,2.163-1.888,8.006-16.874
			c4.323-11.078,12.338-18.522,19.941-18.522c3.597,0,8.701,1.637,12.591,9.43l0.657,1.316l-1.338-0.608
			c-0.018-0.009-1.692-0.759-3.562-0.759c-3.341,0-5.124,2.313-5.302,6.87c-0.07,1.715,1.18,9.338,5.93,14.303
			c3.003,3.138,6.876,4.737,11.512,4.754h0.141l0.002,1.042H76.902z M29.793,109.308h40.888c-2.306-0.842-4.349-2.188-6.115-4.033
			c-5.344-5.585-6.271-13.788-6.218-15.064c0.268-6.848,4.09-7.871,6.344-7.871c1.021,0,1.976,0.192,2.694,0.395
			c-2.836-5.037-6.634-7.688-11.042-7.688c-7.178,0-14.802,7.178-18.97,17.859C33.211,103.581,30.897,107.721,29.793,109.308z"/>
	</g>
	<g>
		<path fill="#8792A4" d="M13.741,109.793c0,0,2.4-1.637,9.477-19.783c8.158-20.908,27.014-29.478,36.508-10.462
			c0,0-10.613-4.849-11.099,7.592c-0.107,2.662,2.851,22.714,20.929,22.653H13.741z"/>
		<path fill="#FFFFFF" d="M69.473,110.314H12.052l1.396-0.952c0.082-0.068,2.501-2.148,9.285-19.542
			c4.985-12.777,14.218-21.36,22.977-21.36c4.135,0,10.003,1.884,14.482,10.855l0.657,1.316l-1.34-0.608
			c-0.02-0.01-1.969-0.884-4.15-0.884c-3.913,0-6.004,2.697-6.209,8.02c-0.082,1.991,1.367,10.835,6.877,16.593
			c3.488,3.644,7.985,5.502,13.366,5.519h0.163l0.002,1.044H69.473z M14.864,109.271h47.898c-2.838-0.952-5.342-2.556-7.489-4.797
			c-6.157-6.437-7.226-15.886-7.166-17.355c0.291-7.456,4.104-9.022,7.252-9.022c1.266,0,2.438,0.258,3.281,0.51
			c-3.304-5.962-7.755-9.103-12.931-9.103c-8.333,0-17.175,8.316-22.006,20.695C18.765,102.863,16.089,107.555,14.864,109.271z"/>
	</g>
	<path fill="#8792A4" d="M-0.965,109.828c0,0,2.693-1.837,10.635-22.202c9.156-23.466,30.317-33.083,40.97-11.741
		c0,0-11.909-5.441-12.454,8.519c-0.12,2.99,3.197,25.493,23.488,25.425H-0.965z"/>
	<path fill="#FFFFFF" d="M61.583,110.35H-2.655l1.396-0.951c0.095-0.077,2.808-2.384,10.443-21.962
		c5.586-14.315,15.925-23.933,25.727-23.933c4.622,0,11.185,2.107,16.197,12.148l0.658,1.317l-1.341-0.61
		c-0.022-0.011-2.222-0.997-4.685-0.997c-4.433,0-6.799,3.049-7.033,9.062c-0.063,1.579,1.095,11.728,7.74,18.669
		c3.927,4.104,8.988,6.192,15.044,6.214h0.183l0.002,1.042H61.583z M0.173,109.308h54.28c-3.33-1.049-6.261-2.884-8.757-5.491
		C38.8,96.612,37.6,86.03,37.666,84.383c0.325-8.318,4.571-10.064,8.075-10.064c1.489,0,2.864,0.32,3.814,0.614
		c-3.728-6.802-8.771-10.387-14.645-10.387c-9.376,0-19.324,9.352-24.755,23.27C4.506,102.304,1.503,107.482,0.173,109.308z"/>
</g>
</svg>
