<?xml version="1.0" encoding="utf-8"?>
<!-- Generator: Adobe Illustrator 16.0.0, SVG Export Plug-In . SVG Version: 6.00 Build 0)  -->
<!DOCTYPE svg PUBLIC "-//W3C//DTD SVG 1.1//EN" "http://www.w3.org/Graphics/SVG/1.1/DTD/svg11.dtd">
<svg version="1.1" id="Layer_1" xmlns="http://www.w3.org/2000/svg" xmlns:xlink="http://www.w3.org/1999/xlink" x="0px" y="0px"
	 width="71.138px" height="62.205px" viewBox="637.964 47.196 71.138 62.205" enable-background="new 637.964 47.196 71.138 62.205"
	 xml:space="preserve">
<path fill="#8792A4" d="M696.694,68.541c0.358-4.337,1.64-8.316,3.896-11.965l-8.655-8.503c-2.736,2.312-5.852,3.594-9.381,3.817
	c-3.232,0.29-6.301-0.315-9.182-1.812c-2.966,1.449-6.021,2.055-9.201,1.812c-3.294-0.287-6.266-1.434-8.927-3.465l-8.679,8.498
	c2.135,3.7,3.323,7.574,3.557,11.617c0.11,1.862-0.431,4.423-1.645,7.736c-0.636,1.837-1.114,3.43-1.442,4.762
	c-0.304,1.322-0.493,2.396-0.558,3.202c-0.043,3.529,0.964,6.715,3.031,9.55c1.618,2.066,4.282,4.352,7.981,6.849
	c4.048,2.024,7.182,3.338,9.376,3.898c0.628,0.288,1.245,0.566,1.819,0.829c0.571,0.269,1.185,0.53,1.825,0.819
	c1.379,0.81,2.348,1.69,2.861,2.601c0.625-0.984,1.617-1.843,2.933-2.601c0.931-0.399,1.717-0.744,2.349-1.048
	c0.633-0.271,1.103-0.478,1.375-0.601c0.467-0.229,1.084-0.491,1.827-0.779c0.75-0.291,1.677-0.644,2.783-1.039
	c2.137-0.742,3.696-1.447,4.683-2.08c3.591-2.497,6.214-4.74,7.883-6.755c2.141-2.841,3.182-6.044,3.134-9.644
	c-0.126-1.613-0.821-4.19-2.083-7.704C697.052,73.115,696.518,70.458,696.694,68.541z"/>
</svg>
