<?xml version="1.0" encoding="utf-8"?>
<!-- Generator: Adobe Illustrator 17.0.2, SVG Export Plug-In . SVG Version: 6.00 Build 0)  -->
<!DOCTYPE svg PUBLIC "-//W3C//DTD SVG 1.1//EN" "http://www.w3.org/Graphics/SVG/1.1/DTD/svg11.dtd">
<svg version="1.1" id="Layer_1" xmlns="http://www.w3.org/2000/svg" xmlns:xlink="http://www.w3.org/1999/xlink" x="0px" y="0px"
	 width="71.275px" height="63.283px" viewBox="1368.768 45.921 71.275 63.283"
	 enable-background="new 1368.768 45.921 71.275 63.283" xml:space="preserve">
<g>
	<path fill="#8792A4" d="M1427.259,84.452v-3.226h-6.105v3.226h-1.553v24.752h14.161V84.452H1427.259z M1422.47,104.546h-1.598
		v-3.679h1.598V104.546z M1422.47,99.517h-1.598v-3.68h1.598V99.517z M1422.47,94.485h-1.598v-3.679h1.598V94.485z M1422.47,89.454
		h-1.598v-3.678h1.598V89.454z M1424.977,104.546h-1.6v-3.679h1.6V104.546z M1424.977,99.517h-1.6v-3.68h1.6V99.517z
		 M1424.977,94.485h-1.6v-3.679h1.6V94.485z M1424.977,89.454h-1.6v-3.678h1.6V89.454z M1427.482,104.546h-1.6v-3.679h1.6V104.546z
		 M1427.482,99.517h-1.6v-3.68h1.6V99.517z M1427.482,94.485h-1.6v-3.679h1.6V94.485z M1427.482,89.454h-1.6v-3.678h1.6V89.454z
		 M1429.988,104.546h-1.601v-3.679h1.601V104.546z M1429.988,99.517h-1.601v-3.68h1.601V99.517z M1429.988,94.485h-1.601v-3.679
		h1.601V94.485z M1429.988,89.454h-1.601v-3.678h1.601V89.454z M1432.493,104.546h-1.601v-3.679h1.601V104.546z M1432.493,99.517
		h-1.601v-3.68h1.601V99.517z M1432.493,94.485h-1.601v-3.679h1.601V94.485z M1432.493,89.454h-1.601v-3.678h1.601V89.454z"/>
	<polygon fill="#8792A4" points="1416.689,104.059 1416.689,98.041 1415.186,98.041 1415.186,65.323 1414.025,65.323 
		1414.025,61.828 1412.659,61.828 1412.659,59.595 1411.518,59.595 1410.672,53.283 1410.674,53.283 1410.674,52.623 
		1410.047,52.623 1409.97,46.582 1409.823,46.582 1409.747,52.623 1409.121,52.623 1409.121,53.283 1408.276,59.595 
		1407.137,59.595 1407.137,61.828 1405.77,61.828 1405.77,65.323 1404.607,65.323 1404.607,98.041 1403.106,98.041 
		1403.106,104.059 1401.985,104.059 1401.985,109.204 1417.809,109.204 1417.809,104.059 	"/>
	<path fill="#8792A4" d="M1390.095,68.943v40.261h10.096V68.943H1390.095z M1392.571,103.591h-1.374v-3.06h1.374V103.591z
		 M1392.571,99.225h-1.374v-3.06h1.374V99.225z M1392.571,94.86h-1.374V91.8h1.374V94.86z M1392.571,90.494h-1.374v-3.06h1.374
		V90.494z M1392.571,86.128h-1.374v-3.061h1.374V86.128z M1392.571,81.763h-1.374v-3.061h1.374V81.763z M1392.571,77.397h-1.374
		v-3.06h1.374V77.397z M1392.571,73.031h-1.374v-3.06h1.374V73.031z M1394.743,103.591h-1.373v-3.06h1.373V103.591z
		 M1394.743,99.225h-1.373v-3.06h1.373V99.225z M1394.743,94.86h-1.373V91.8h1.373V94.86z M1394.743,90.494h-1.373v-3.06h1.373
		V90.494z M1394.743,86.128h-1.373v-3.061h1.373V86.128z M1394.743,81.763h-1.373v-3.061h1.373V81.763z M1394.743,77.397h-1.373
		v-3.06h1.373V77.397z M1394.743,73.031h-1.373v-3.06h1.373V73.031z M1396.917,103.591h-1.374v-3.06h1.374V103.591z
		 M1396.917,99.225h-1.374v-3.06h1.374V99.225z M1396.917,94.86h-1.374V91.8h1.374V94.86z M1396.917,90.494h-1.374v-3.06h1.374
		V90.494z M1396.917,86.128h-1.374v-3.061h1.374V86.128z M1396.917,81.763h-1.374v-3.061h1.374V81.763z M1396.917,77.397h-1.374
		v-3.06h1.374V77.397z M1396.917,73.031h-1.374v-3.06h1.374V73.031z M1399.09,103.591h-1.373v-3.06h1.373V103.591z M1399.09,99.225
		h-1.373v-3.06h1.373V99.225z M1399.09,94.86h-1.373V91.8h1.373V94.86z M1399.09,90.494h-1.373v-3.06h1.373V90.494z M1399.09,86.128
		h-1.373v-3.061h1.373V86.128z M1399.09,81.763h-1.373v-3.061h1.373V81.763z M1399.09,77.397h-1.373v-3.06h1.373V77.397z
		 M1399.09,73.031h-1.373v-3.06h1.373V73.031z"/>
	<polygon fill="#8792A4" points="1386.549,78.697 1386.549,72.27 1381.024,72.27 1381.024,69.947 1377.077,69.947 1377.077,72.27 
		1375.58,72.27 1375.58,109.204 1375.682,109.204 1386.549,109.204 1388.304,109.204 1388.304,78.697 	"/>
</g>
</svg>
