<?xml version="1.0" encoding="utf-8"?>
<!-- Generator: Adobe Illustrator 16.0.0, SVG Export Plug-In . SVG Version: 6.00 Build 0)  -->
<!DOCTYPE svg PUBLIC "-//W3C//DTD SVG 1.1//EN" "http://www.w3.org/Graphics/SVG/1.1/DTD/svg11.dtd">
<svg version="1.1" id="Layer_1" xmlns="http://www.w3.org/2000/svg" xmlns:xlink="http://www.w3.org/1999/xlink" x="0px" y="0px"
	 width="71.138px" height="62.205px" viewBox="-89.243 47.195 71.138 62.205" enable-background="new -89.243 47.195 71.138 62.205"
	 xml:space="preserve">
<g>
	<path fill="#8792A4" d="M-73.019,107.09l-0.833-8.386c0-0.771,0.983-0.087,2.225-0.087l0,0c1.229,0,2.225-0.684,2.225,0.087l0,0
		l-0.699,8.179C-70.101,108.668-73.019,107.94-73.019,107.09z"/>
	<path fill="#8792A4" d="M-76.588,79.793c-6.109-2.76-5.612-7.107-5.612-7.107c-0.771,1.535,0.869,14.918,7.235,14.918
		C-72.117,87.604-69.723,82.877-76.588,79.793z"/>
	<path fill="#8792A4" d="M-76.588,70.337c-6.109-2.752-5.612-7.1-5.612-7.1c-0.771,1.53,0.869,14.917,7.235,14.917
		C-72.117,78.154-69.723,73.429-76.588,70.337z"/>
	<path fill="#8792A4" d="M-76.588,61.164c-6.109-2.74-5.612-7.096-5.612-7.096c-0.771,1.534,0.869,14.91,7.235,14.91
		C-72.117,68.979-69.723,64.265-76.588,61.164z"/>
	<path fill="#8792A4" d="M-68.118,87.604c6.366,0,7.998-13.383,7.235-14.918c0,0,0.494,4.348-5.619,7.107
		C-73.361,82.877-70.975,87.604-68.118,87.604z"/>
	<path fill="#8792A4" d="M-76.588,89.477c-6.109-2.762-5.612-7.106-5.612-7.106c-0.771,1.534,0.869,14.918,7.235,14.918
		C-72.117,97.288-69.723,92.562-76.588,89.477z"/>
	<path fill="#8792A4" d="M-68.118,97.288c6.366,0,7.998-13.384,7.235-14.918c0,0,0.494,4.345-5.619,7.106
		C-73.361,92.562-70.975,97.288-68.118,97.288z"/>
	<path fill="#8792A4" d="M-68.118,78.154c6.366,0,7.998-13.387,7.235-14.917c0,0,0.494,4.348-5.619,7.1
		C-73.361,73.429-70.975,78.154-68.118,78.154z"/>
	<path fill="#8792A4" d="M-68.118,68.979c6.366,0,7.998-13.376,7.235-14.91c0,0,0.494,4.355-5.619,7.096
		C-73.361,64.265-70.975,68.979-68.118,68.979z"/>
	<path fill="#8792A4" d="M-71.099,61.88c6.753,0-0.371-14.398-0.371-14.398C-72.329,48.835-77.851,61.88-71.099,61.88z"/>
	<path fill="#8792A4" d="M-52.839,108.212l4.075-7.129l0,0c0.323-0.688-0.863-0.5-1.977-1.011l0,0
		c-1.13-0.525-1.733-1.56-2.055-0.859l-2.778,7.948C-55.932,107.94-53.597,109.828-52.839,108.212z"/>
	<path fill="#8792A4" d="M-47.316,80.906c-4.367-5.078-2.092-8.809-2.092-8.809c-1.344,1.067-5.492,13.898,0.275,16.579
		C-46.548,89.881-42.384,86.604-47.316,80.906z"/>
	<path fill="#8792A4" d="M-43.328,72.326c-4.37-5.065-2.097-8.796-2.097-8.796c-1.345,1.062-5.499,13.89,0.271,16.579
		C-42.561,81.307-38.406,78.039-43.328,72.326z"/>
	<path fill="#8792A4" d="M-39.466,64.018c-4.381-5.061-2.097-8.805-2.097-8.805c-1.342,1.064-5.492,13.89,0.28,16.579
		C-38.699,72.986-34.539,69.722-39.466,64.018z"/>
	<path fill="#8792A4" d="M-42.92,91.568c5.771,2.673,12.896-8.763,12.84-10.485c0,0-1.379,4.151-8.087,4.075
		C-45.685,85.08-45.509,90.36-42.92,91.568z"/>
	<path fill="#8792A4" d="M-51.39,89.689c-4.376-5.075-2.1-8.802-2.1-8.802c-1.344,1.062-5.492,13.891,0.279,16.563
		C-50.618,98.652-46.468,95.385-51.39,89.689z"/>
	<path fill="#8792A4" d="M-46.999,100.342c5.767,2.687,12.89-8.762,12.843-10.478c0,0-1.381,4.15-8.085,4.076
		C-49.763,93.859-49.584,99.145-46.999,100.342z"/>
	<path fill="#8792A4" d="M-38.932,82.994c5.768,2.679,12.886-8.773,12.838-10.483c0,0-1.381,4.146-8.085,4.075
		C-41.707,76.504-41.522,81.798-38.932,82.994z"/>
	<path fill="#8792A4" d="M-35.071,74.666c5.772,2.689,12.884-8.757,12.837-10.473c0,0-1.386,4.16-8.083,4.075
		C-37.839,68.188-37.655,73.473-35.071,74.666z"/>
	<path fill="#8792A4" d="M-34.787,66.973c6.12,2.846,5.729-13.215,5.729-13.215C-30.407,54.636-40.907,64.129-34.787,66.973z"/>
</g>
</svg>
