<svg xmlns="http://www.w3.org/2000/svg" xmlns:xlink="http://www.w3.org/1999/xlink" version="1.0" x="0px" y="0px" width="100px" height="100px" viewBox="0 0 100 100" overflow="" enable-background="new 0 0 100 100" xml:space="preserve">
    <path d="M96.601,77.927L66.479,31.505V6.912h3.073c1.826,0,3.305-1.479,3.305-3.307c0-1.826-1.479-3.305-3.305-3.305 H30.538c-1.826,0-3.306,1.479-3.306,3.305c0,1.828,1.48,3.307,3.306,3.307h2.985v24.593L3.401,77.927 c-1.785,2.249-2.852,5.092-2.852,8.184c0,7.278,5.899,13.175,13.173,13.175h72.555c7.272,0,13.173-5.896,13.173-13.175 C99.45,83.019,98.382,80.176,96.601,77.927z M53.302,13.499h-6.598v6.71h6.598v6.588h-6.598v6.559h6.598v6.586h-6.598v6.532h6.598 v6.588h-6.598v6.669h6.598v6.584H26.945L10.518,91.585c-1.823-1.124-3.048-3.176-3.048-5.524c0-1.345,0.4-2.596,1.085-3.629 l31.55-48.564V6.912h13.196V13.499z"/>
</svg>