<?xml version="1.0" encoding="utf-8"?>
<!-- Generator: Adobe Illustrator 16.0.0, SVG Export Plug-In . SVG Version: 6.00 Build 0)  -->
<!DOCTYPE svg PUBLIC "-//W3C//DTD SVG 1.1//EN" "http://www.w3.org/Graphics/SVG/1.1/DTD/svg11.dtd">
<svg version="1.1" id="Layer_1" xmlns="http://www.w3.org/2000/svg" xmlns:xlink="http://www.w3.org/1999/xlink" x="0px" y="0px"
	 width="71.138px" height="62.205px" viewBox="928.591 47.196 71.138 62.205" enable-background="new 928.591 47.196 71.138 62.205"
	 xml:space="preserve">
<path fill="#8792A4" d="M989.62,107.547v-28.37l-12.451-4.583l-1.071-26.205h0.249v-0.663h-4.411v0.663h0.249l-1.057,25.88
	l-12.464,4.908v10.247L936.7,94.758v12.789h-1.204v1.814h55.327v-1.814H989.62z M944.627,102.438h-2.305v-2.306h2.305V102.438z
	 M949.124,102.438h-2.306v-2.306h2.306V102.438z M953.62,102.438h-2.306v-2.306h2.306V102.438z M958.116,102.438h-2.305v-2.306
	h2.305V102.438z M970.798,102.438h-2.305v-2.306h2.305V102.438z M970.798,97.941h-2.305v-2.305h2.305V97.941z M970.798,89.638
	h-2.305v-2.306h2.305V89.638z M970.798,85.142h-2.305v-2.306h2.305V85.142z M975.294,102.438h-2.305v-2.306h2.305V102.438z
	 M975.294,97.941h-2.305v-2.305h2.305V97.941z M975.294,89.638h-2.305v-2.306h2.305V89.638z M975.294,85.142h-2.305v-2.306h2.305
	V85.142z M979.791,102.438h-2.306v-2.306h2.306V102.438z M979.791,97.941h-2.306v-2.305h2.306V97.941z M979.791,89.638h-2.306
	v-2.306h2.306V89.638z M979.791,85.142h-2.306v-2.306h2.306V85.142z"/>
</svg>
