<?xml version="1.0" encoding="utf-8"?>
<!-- Generator: Adobe Illustrator 14.0.0, SVG Export Plug-In . SVG Version: 6.00 Build 43363)  -->
<!DOCTYPE svg PUBLIC "-//W3C//DTD SVG 1.0//EN" "http://www.w3.org/TR/2001/REC-SVG-20010904/DTD/svg10.dtd">
<svg version="1.0" id="Layer_1" xmlns="http://www.w3.org/2000/svg" xmlns:xlink="http://www.w3.org/1999/xlink" x="0px" y="0px"
	 width="91.277px" height="100px" viewBox="0 0 91.277 100" enable-background="new 0 0 91.277 100" xml:space="preserve">
<path d="M87.852,10.731L87.852,10.731L87.852,10.731L87.852,10.731L87.852,10.731L87.852,10.731L87.852,10.731L87.852,10.731h-0.003
	l0,0l0,0l0,0v0.002h0.002l0,0l0,0h0.001l0,0C87.852,10.733,87.852,10.733,87.852,10.731L87.852,10.731z M87.851,10.733v-0.002l0,0
	l0,0l0,0l0,0l0,0l0,0l0,0l0,0V10.733z M87.852,10.731L87.852,10.731C87.852,10.731,87.852,10.731,87.852,10.731L87.852,10.731
	C87.852,10.731,87.852,10.731,87.852,10.731L87.852,10.731L87.852,10.731z M87.852,10.733v-0.002l0,0l0,0V10.733z M87.852,10.731
	L87.852,10.731L87.852,10.731L87.852,10.731L87.852,10.731z"/>
<g>
	<path d="M45.638,100c-4.077-11.308-16.477-13.535-26.345-15.854c-8.095-1.902-14.417-6.61-17.25-13.75
		c-7.117-15.685,6.495-27.431,8.383-41.732c0.944-7.046-3.155-12.574-7.001-17.94L9.966,3.26C20.835,8.811,36.081,7.394,45.638,0
		C55.197,7.394,70.44,8.821,81.31,3.27l6.542,7.461c-3.848,5.366-7.946,10.894-7.001,17.942c1.889,14.303,15.5,26.048,8.383,41.732
		c-2.832,7.139-9.154,11.846-17.25,13.749C62.115,86.474,49.715,88.692,45.638,100z"/>
</g>
</svg>
