<?xml version="1.0" encoding="utf-8"?>
<!-- Generator: Adobe Illustrator 17.0.2, SVG Export Plug-In . SVG Version: 6.00 Build 0)  -->
<!DOCTYPE svg PUBLIC "-//W3C//DTD SVG 1.1//EN" "http://www.w3.org/Graphics/SVG/1.1/DTD/svg11.dtd">
<svg version="1.1" id="Layer_1" xmlns="http://www.w3.org/2000/svg" xmlns:xlink="http://www.w3.org/1999/xlink" x="0px" y="0px"
	 width="71.404px" height="63.283px" viewBox="1188.023 46.117 71.404 63.283"
	 enable-background="new 1188.023 46.117 71.404 63.283" xml:space="preserve">
<g>
	<g>
		<path fill="#8792A4" d="M28.691,109.828c0,0,2.076-1.415,8.197-17.113c7.059-18.086,23.369-25.5,31.581-9.05
			c0,0-9.181-4.194-9.602,6.566c-0.093,2.304,2.465,19.649,18.104,19.597H28.691z"/>
		<path fill="#FFFFFF" d="M76.902,110.35h-49.9l1.396-0.951c0.066-0.057,2.163-1.888,8.006-16.874
			c4.323-11.078,12.338-18.522,19.941-18.522c3.597,0,8.701,1.637,12.591,9.43l0.657,1.316l-1.338-0.608
			c-0.018-0.009-1.692-0.759-3.562-0.759c-3.341,0-5.124,2.313-5.302,6.87c-0.07,1.715,1.18,9.338,5.93,14.303
			c3.003,3.138,6.876,4.737,11.512,4.754h0.141l0.002,1.042H76.902z M29.793,109.308h40.888c-2.306-0.842-4.349-2.188-6.115-4.033
			c-5.344-5.585-6.271-13.788-6.218-15.064c0.268-6.848,4.09-7.871,6.344-7.871c1.021,0,1.976,0.192,2.694,0.395
			c-2.836-5.037-6.634-7.688-11.042-7.688c-7.178,0-14.802,7.178-18.97,17.859C33.211,103.581,30.897,107.721,29.793,109.308z"/>
	</g>
	<g>
		<path fill="#8792A4" d="M13.741,109.793c0,0,2.4-1.637,9.476-19.783c8.158-20.908,27.014-29.478,36.508-10.462
			c0,0-10.613-4.849-11.099,7.592c-0.107,2.662,2.851,22.714,20.929,22.653H13.741z"/>
		<path fill="#FFFFFF" d="M69.473,110.315H12.052l1.396-0.952c0.082-0.068,2.502-2.148,9.285-19.542
			c4.985-12.777,14.218-21.36,22.976-21.36c4.135,0,10.003,1.884,14.482,10.855l0.657,1.316l-1.34-0.608
			c-0.02-0.01-1.969-0.884-4.15-0.884c-3.913,0-6.004,2.697-6.209,8.02c-0.082,1.991,1.367,10.835,6.877,16.593
			c3.488,3.644,7.985,5.502,13.366,5.519h0.163l0.002,1.044H69.473z M14.864,109.271h47.898c-2.838-0.952-5.342-2.556-7.489-4.797
			c-6.157-6.437-7.226-15.886-7.166-17.355c0.291-7.456,4.104-9.022,7.252-9.022c1.266,0,2.438,0.258,3.281,0.51
			c-3.304-5.962-7.755-9.103-12.931-9.103c-8.333,0-17.175,8.316-22.006,20.695C18.765,102.863,16.089,107.555,14.864,109.271z"/>
	</g>
	<path fill="#8792A4" d="M-0.965,109.828c0,0,2.693-1.837,10.635-22.202c9.156-23.466,30.317-33.083,40.97-11.741
		c0,0-11.909-5.441-12.454,8.519c-0.12,2.99,3.197,25.493,23.488,25.425H-0.965z"/>
	<path fill="#FFFFFF" d="M61.583,110.35H-2.655l1.396-0.951c0.095-0.077,2.808-2.384,10.443-21.962
		c5.586-14.315,15.925-23.933,25.727-23.933c4.622,0,11.185,2.107,16.197,12.148l0.658,1.317l-1.341-0.61
		c-0.022-0.011-2.222-0.997-4.685-0.997c-4.433,0-6.799,3.049-7.033,9.062c-0.063,1.579,1.095,11.728,7.74,18.669
		c3.927,4.104,8.988,6.192,15.044,6.214h0.183l0.002,1.042H61.583z M0.173,109.308h54.28c-3.33-1.049-6.261-2.884-8.757-5.491
		C38.8,96.612,37.6,86.03,37.666,84.383c0.325-8.318,4.571-10.064,8.075-10.064c1.489,0,2.864,0.32,3.814,0.614
		c-3.727-6.802-8.77-10.387-14.644-10.387c-9.377,0-19.324,9.352-24.755,23.27C4.506,102.304,1.503,107.482,0.173,109.308z"/>
</g>
<g>
	<path fill="#8792A4" d="M227.235,101.685c-1.205,1.109-2.931,1.966-3.609,3.25c-0.738,1.397-0.204,3.129,1.191,3.869
		c1.397,0.736,3.129,0.202,3.868-1.193c0.678-1.284,0.419-3.192,0.652-4.815c0.357-2.431,0.763-3.985,0.763-3.985
		S229.047,100.019,227.235,101.685z"/>
	<path fill="#8792A4" d="M212.185,101.685c-1.21,1.109-2.933,1.966-3.61,3.25c-0.738,1.397-0.203,3.129,1.189,3.869
		c1.399,0.736,3.131,0.202,3.87-1.193c0.677-1.284,0.415-3.192,0.651-4.815c0.355-2.431,0.767-3.985,0.767-3.985
		C215.05,98.81,213.995,100.019,212.185,101.685z"/>
	<path fill="#8792A4" d="M197.134,101.685c-1.208,1.109-2.932,1.966-3.608,3.25c-0.739,1.397-0.206,3.129,1.189,3.869
		c1.398,0.736,3.129,0.202,3.869-1.193c0.678-1.284,0.416-3.192,0.653-4.815c0.354-2.431,0.762-3.985,0.762-3.985
		S198.946,100.019,197.134,101.685z"/>
	<path fill="#8792A4" d="M197.709,95.77v0.045h33.757c5.081,0,9.205-4.124,9.205-9.204c0-5.083-4.124-9.207-9.205-9.207
		c-0.526,0-1.037,0.054-1.54,0.139c-1.697-5.442-6.607-9.46-12.508-9.849v0.011c-0.311-0.021-0.62-0.047-0.938-0.047
		c-0.429,0-0.85,0.024-1.267,0.062c-0.109,0.013-0.219,0.021-0.327,0.034c-0.386,0.044-0.77,0.099-1.145,0.175
		c-0.03,0.003-0.064,0.009-0.093,0.015c-0.39,0.079-0.77,0.183-1.147,0.294c-0.124,0.036-0.247,0.073-0.367,0.114
		c-0.304,0.097-0.6,0.205-0.891,0.323c-0.116,0.049-0.233,0.094-0.35,0.145c-0.298,0.127-0.585,0.269-0.871,0.415
		c-0.148,0.078-0.297,0.157-0.443,0.242c-0.198,0.112-0.395,0.232-0.59,0.356c-0.227,0.143-0.446,0.29-0.663,0.445
		c-0.175,0.126-0.35,0.251-0.521,0.385c-0.164,0.13-0.325,0.267-0.486,0.4c-0.12,0.105-0.236,0.214-0.352,0.321
		c-0.283,0.261-0.557,0.534-0.816,0.815c-0.089,0.097-0.177,0.19-0.263,0.288c-0.156,0.175-0.302,0.357-0.447,0.54
		c-0.083,0.105-0.163,0.211-0.24,0.318c-0.119,0.16-0.226,0.332-0.339,0.497c-1.277,2.028-2.027,4.425-2.032,7.001h-1.98
		c0-2.536,0.632-4.922,1.731-7.02c-1.235-0.473-2.564-0.754-3.965-0.754c-6.281,0.003-11.376,5.092-11.376,11.373
		C187.238,90.419,191.852,95.309,197.709,95.77z"/>
	<path fill="#8792A4" d="M231.004,62.217c-1.77-1.125-3.746-1.663-5.704-1.663c-3.491,0-6.912,1.715-8.949,4.842
		c0.044-0.001,0.089-0.004,0.13-0.004c0.334,0,0.663,0.021,0.992,0.044l0.094-0.002c6.071,0.398,11.438,4.221,13.873,9.704h0.024
		c1.213,0,2.383,0.192,3.481,0.544C237.152,70.917,235.551,65.113,231.004,62.217z"/>
	<path fill="#8792A4" d="M207.783,67.911c0.222-0.14,0.445-0.276,0.676-0.407c0.172-0.097,0.345-0.191,0.523-0.283
		c0.359-0.188,0.689-0.346,1.001-0.479c0.107-0.048,0.214-0.09,0.323-0.134l0.091-0.034c0.347-0.143,0.698-0.27,1.024-0.375
		c0.145-0.046,0.289-0.093,0.442-0.139c0.502-0.146,0.924-0.254,1.294-0.329c0.061-0.014,0.132-0.025,0.195-0.037
		c0.085-0.015,0.181-0.029,0.269-0.046c0.226-0.473,0.472-0.937,0.755-1.385c2.383-3.741,6.47-5.977,10.925-5.977
		c2.458,0,4.851,0.697,6.923,2.019c2.906,1.85,4.92,4.729,5.67,8.105c0.619,2.789,0.301,5.631-0.87,8.172
		c0.848,0.472,1.62,1.048,2.316,1.707c0.688-0.412,1.57-0.654,2.613-0.664l6.499-0.07l-5.659-3.396
		c-3.105-1.868-3.381-5.106-0.611-7.194l5.043-3.801l-6.474,0.421c-3.551,0.228-5.711-2.315-4.8-5.656l1.661-6.082l-4.809,4.079
		c-2.639,2.237-5.856,1.356-7.153-1.96l-2.358-6.043L221.98,54.1c-0.719,3.395-3.772,4.512-6.777,2.485l-5.474-3.692l2.689,5.919
		c1.473,3.253-0.24,5.941-3.808,5.979l-6.503,0.07l5.398,3.238C207.597,68.039,207.686,67.974,207.783,67.911z"/>
</g>
<path fill="#8792A4" d="M139.079,83.498c0,5.873,5.098,10.65,11.364,10.65c6.265,0,11.361-4.775,11.361-10.65l-0.881-0.881
	l-9.026-18.061c0.335-0.271,0.624-0.594,0.811-0.983c0.227-0.38,0.29-0.719,0.267-1.007c0.006-0.084,0.009-0.168,0.008-0.255
	c-0.016-1.568-1.304-2.845-2.906-2.845c-0.767,0.009-1.486,0.315-2.022,0.864c-0.187,0.19-0.344,0.403-0.47,0.631
	c-0.093-0.088-0.188-0.173-0.277-0.257l-0.096-0.088c-0.723-0.666-1.357-1.283-1.937-1.85c-2.443-2.383-4.209-4.105-7.742-4.573
	c-0.476-0.063-0.955-0.096-1.424-0.096c-2.152,0-3.793,0.652-5.11,1.177c-0.701,0.281-1.307,0.521-1.751,0.559
	c-0.277,0.023-0.526,0.044-0.747,0.061c-0.023-0.046-0.049-0.089-0.075-0.133c0.119-0.412,0.146-0.902,0.016-1.451
	c-0.149-0.612-0.646-3.283-0.824-4.261l-2.894,0.029c-0.158,0.979-0.597,3.651-0.736,4.278c-0.117,0.549-0.075,1.037,0.055,1.449
	c-0.026,0.046-0.052,0.092-0.075,0.14c-0.222-0.013-0.47-0.027-0.747-0.046c-0.442-0.026-1.057-0.254-1.766-0.52
	c-1.274-0.475-2.86-1.064-4.896-1.064c-0.546,0-1.103,0.044-1.656,0.13c-3.521,0.551-5.244,2.309-7.633,4.741
	c-0.568,0.579-1.191,1.214-1.902,1.898c-0.13,0.126-0.253,0.243-0.369,0.353c-0.502-0.858-1.44-1.439-2.521-1.439
	c-0.767,0.009-1.483,0.316-2.021,0.866c-0.537,0.551-0.827,1.274-0.818,2.041c0.002,0.082,0.006,0.162,0.013,0.242
	c-0.019,0.291,0.051,0.634,0.292,1.014c0.188,0.38,0.482,0.692,0.818,0.956l-8.749,17.505l-0.875,0.875
	c0,5.872,5.097,10.649,11.362,10.649c6.267,0,11.366-4.775,11.366-10.649l-0.876-0.877l-8.453-16.898
	c1.682-0.537,3.383-1.86,5.039-3.159c0.523-0.41,1.031-0.81,1.508-1.153c1.42-1.025,2.187-1.163,2.75-1.163
	c0.745,0,1.579,0.279,2.858,0.797c2.144,0.865,3.935,0.993,4.813,0.993c0.309,0,0.53-0.015,0.646-0.025l1.518-0.017
	c-0.196,0.332-0.352,0.757-0.438,1.298c-0.313,0.348-0.416,0.721-0.451,0.916c-0.097,0.576,0.093,1.058,0.324,1.41l0.2,17.941
	c-0.553,0.537-0.652,1.132-0.652,1.48c-0.001,0.373,0.104,0.715,0.269,1.016l-0.185,0.547c-0.006,0.062-0.607,6.745-0.99,9.747
	c-0.33,2.535-0.197,4.582,0.032,5.318h-17.173l-1.35,0.524L101,107.222l1.35,1.804h49.165l0.706,0.088v0.032l0.987-2.044
	l-2.424-4.906l-1.522-0.526h-17.58c0.215-2.207,0.341-2.82-0.054-5.429c-0.457-2.995-1.193-9.477-1.201-9.539l-0.199-0.637
	c0.161-0.305,0.256-0.694,0.247-1.067c-0.01-0.349-0.122-0.96-0.686-1.484l-0.202-17.956c0.224-0.355,0.399-0.847,0.292-1.418
	c-0.039-0.196-0.148-0.569-0.471-0.91c-0.101-0.539-0.266-0.964-0.471-1.291l1.52-0.018c0.48,0.035,2.693,0.088,5.44-1.09
	c1.297-0.56,2.145-0.863,2.901-0.863c0.549,0,1.299,0.132,2.711,1.103c0.489,0.338,1.009,0.727,1.546,1.13
	c1.828,1.366,3.707,2.764,5.537,3.146l-8.639,17.275L139.079,83.498z M157.351,82.541h-13.819l6.912-13.82L157.351,82.541z
	 M102.5,68.72l6.912,13.821H95.59L102.5,68.72z"/>
<g id="Your_Icon">
	<g>
		<path fill="#8792A4" d="M328.513,70.172L312.67,54.327l-9.312,9.311l6.498,6.498c-0.147,0.157-0.281,0.303-0.432,0.463
			c-1.708,1.818-3.751,3.896-5.994,6.065c-1.104,1.101-2.295,2.189-3.489,3.31c-1.191,1.127-2.422,2.247-3.673,3.351
			c-2.464,2.238-4.995,4.413-7.371,6.449c-2.403,2.009-4.66,3.871-6.638,5.423c-3.93,3.125-6.715,5.047-6.715,5.047
			c-0.485,0.338-0.936,0.776-1.294,1.294c-1.59,2.306-1.01,5.464,1.294,7.052c2.303,1.592,5.463,1.013,7.053-1.293
			c0,0,1.922-2.783,5.046-6.717c1.555-1.976,3.415-4.232,5.425-6.636c2.035-2.375,4.212-4.906,6.448-7.372
			c1.106-1.25,2.225-2.481,3.348-3.673c1.124-1.196,2.21-2.386,3.312-3.491c2.168-2.242,4.248-4.281,6.065-5.99
			c0.16-0.151,0.306-0.288,0.461-0.432l6.5,6.497L328.513,70.172z"/>
		<path fill="#8792A4" d="M301.641,62.738l10.129-10.127c0.585-0.584,0.59-1.537,0-2.122c-0.588-0.587-1.537-0.587-2.123,0
			l-10.128,10.126c-0.587,0.586-0.587,1.538,0,2.123C300.105,63.326,301.055,63.325,301.641,62.738z"/>
		<path fill="#8792A4" d="M332.353,71.07c-0.587-0.586-1.538-0.586-2.123,0l-10.129,10.127c-0.587,0.587-0.587,1.537,0,2.123
			c0.587,0.586,1.535,0.586,2.12,0l10.131-10.127C332.938,72.607,332.939,71.655,332.353,71.07z"/>
	</g>
	<path fill="#8792A4" d="M307.176,109.486c-1.363,0-2.466-1.103-2.466-2.464l0,0c0-1.361,1.103-2.466,2.466-2.466h33.751
		c1.363,0,2.465,1.104,2.465,2.466l0,0c0,1.36-1.102,2.464-2.465,2.464H307.176z"/>
</g>
<g>
	<path fill="#8792A4" d="M431.608,47.957c-1.668,0-3.023,1.356-3.023,3.024c0,0.97,0.46,1.831,1.172,2.386
		c-0.841,2.185-2.385,3.73-3.341,4.532l-8.634,0.262l-0.935-6.035c-0.057-0.375-0.407-0.629-0.783-0.572
		c-0.375,0.057-0.631,0.409-0.573,0.783l0.908,5.866l-50.439,1.528l4.071,32.996l44.855,2.185c0.576,0.683,1.661,2.27,2.008,4.857
		l-44.273,0.826c-0.948,0.019-1.702,0.801-1.686,1.75c0.019,0.938,0.783,1.687,1.717,1.687c0.012,0,0.022,0,0.033,0l47.756-0.892
		v-1.687c0-4.467-1.77-7.322-2.852-8.653l10.365-32.825c1.246-1.016,3.316-3.057,4.349-6.054c1.333-0.314,2.33-1.511,2.33-2.939
		C434.632,49.314,433.276,47.957,431.608,47.957z M417.077,61.987l1.587,1.664l-1.587,1.662l-1.585-1.662L417.077,61.987z
		 M410.983,76.893l1.587,1.662l-1.587,1.662l-0.847-0.888c0.061-0.188,0.094-0.389,0.094-0.598v-1.051L410.983,76.893z
		 M410.23,76.748v-0.645l0.308,0.322L410.23,76.748z M410.23,75.169v-1.407c0-0.106-0.01-0.209-0.026-0.312l0.779-0.816l1.587,1.662
		l-1.587,1.663L410.23,75.169z M411.428,72.167l1.587-1.663l1.588,1.663l-1.588,1.662L411.428,72.167z M410.983,71.7l-1.586-1.663
		l1.586-1.662l1.587,1.662L410.983,71.7z M410.537,72.167l-0.578,0.606c-0.34-0.58-0.968-0.971-1.689-0.971h-0.558l1.239-1.298
		L410.537,72.167z M409.37,73.762v4.971c0,0.606-0.493,1.1-1.101,1.1h-25.597c-0.606,0-1.1-0.493-1.1-1.1v-4.971
		c0-0.606,0.493-1.101,1.1-1.101h25.597C408.877,72.661,409.37,73.155,409.37,73.762z M406.92,71.7l-1.588-1.663l1.588-1.662
		l1.586,1.662L406.92,71.7z M406.127,71.803h-2.478l1.238-1.299L406.127,71.803z M402.856,71.7l-1.586-1.663l1.587-1.662
		l1.587,1.662L402.856,71.7z M402.064,71.803h-2.477l1.239-1.297L402.064,71.803z M398.792,71.7l-1.586-1.663l1.586-1.662
		l1.588,1.662L398.792,71.7z M398,71.803h-2.478l1.239-1.297L398,71.803z M394.73,71.7l-1.586-1.663l1.586-1.662l1.586,1.662
		L394.73,71.7z M393.937,71.803h-2.477l1.238-1.297L393.937,71.803z M390.667,71.7l-1.587-1.663l1.587-1.662l1.587,1.662
		L390.667,71.7z M389.875,71.803h-2.478l1.239-1.299L389.875,71.803z M386.603,71.7l-1.585-1.663l1.585-1.662l1.587,1.662
		L386.603,71.7z M385.811,71.803h-2.477l1.239-1.297L385.811,71.803z M382.54,71.7l-1.586-1.663l1.586-1.662l1.587,1.662
		L382.54,71.7z M381.9,71.962c-0.652,0.28-1.119,0.905-1.178,1.646l-0.214,0.224l-1.585-1.662l1.585-1.662L381.9,71.962z
		 M380.064,78.555l-1.586,1.663l-1.587-1.663l1.587-1.662L380.064,78.555z M376.891,74.296l1.587-1.662l1.586,1.662l-1.586,1.663
		L376.891,74.296z M378.923,76.425l1.585-1.661l0.205,0.214v2.895l-0.205,0.214L378.923,76.425z M378.478,71.7l-1.587-1.663
		l1.587-1.662l1.586,1.662L378.478,71.7z M378.032,72.167l-1.587,1.662l-1.586-1.662l1.586-1.661L378.032,72.167z M378.032,76.425
		l-1.587,1.663l-1.586-1.663l1.586-1.661L378.032,76.425z M378.032,80.684l-1.587,1.662l-1.586-1.662l1.586-1.662L378.032,80.684z
		 M378.478,81.149l1.586,1.663l-1.586,1.662l-1.587-1.662L378.478,81.149z M378.923,80.684l1.585-1.662l0.302,0.315
		c0.183,0.565,0.616,1.018,1.17,1.226l0.115,0.121l-1.587,1.663L378.923,80.684z M382.54,81.149l1.587,1.663l-1.587,1.662
		l-1.587-1.662L382.54,81.149z M382.992,80.69h3.159l-1.579,1.655L382.992,80.69z M386.603,81.149l1.587,1.663l-1.587,1.662
		l-1.585-1.662L386.603,81.149z M387.057,80.69h3.159l-1.581,1.655L387.057,80.69z M390.667,81.149l1.587,1.663l-1.587,1.662
		l-1.587-1.662L390.667,81.149z M391.119,80.69h3.158l-1.579,1.655L391.119,80.69z M394.73,81.149l1.586,1.663l-1.586,1.662
		l-1.586-1.662L394.73,81.149z M395.183,80.69h3.157l-1.578,1.655L395.183,80.69z M398.792,81.149l1.588,1.663l-1.588,1.662
		l-1.586-1.662L398.792,81.149z M399.246,80.69h3.158l-1.579,1.655L399.246,80.69z M402.856,81.149l1.588,1.663l-1.587,1.662
		l-1.587-1.662L402.856,81.149z M403.308,80.69h3.16l-1.581,1.656L403.308,80.69z M406.92,81.149l1.586,1.663l-1.586,1.662
		l-1.588-1.662L406.92,81.149z M407.371,80.69h0.898c0.632,0,1.191-0.298,1.55-0.76l0.719,0.753l-1.587,1.662L407.371,80.69z
		 M410.983,81.149l1.587,1.663l-1.587,1.662l-1.586-1.662L410.983,81.149z M411.428,80.684l1.587-1.663l1.588,1.663l-1.588,1.663
		L411.428,80.684z M411.428,76.425l1.587-1.661l1.588,1.661l-1.588,1.662L411.428,76.425z M413.46,74.296l1.586-1.662l1.587,1.662
		l-1.587,1.663L413.46,74.296z M413.46,70.037l1.586-1.662l1.587,1.662l-1.587,1.663L413.46,70.037z M415.492,67.909l1.585-1.663
		l1.587,1.663l-1.587,1.662L415.492,67.909z M416.632,65.78l-1.586,1.661l-1.586-1.661l1.586-1.663L416.632,65.78z M414.602,67.909
		l-1.587,1.662l-1.588-1.662l1.588-1.663L414.602,67.909z M410.983,67.443l-1.587-1.663l1.587-1.663l1.587,1.663L410.983,67.443z
		 M410.537,67.909l-1.586,1.662l-1.586-1.662l1.585-1.663L410.537,67.909z M406.92,67.441l-1.588-1.661l1.588-1.663l1.586,1.663
		L406.92,67.441z M406.475,67.909l-1.588,1.662l-1.586-1.662l1.586-1.663L406.475,67.909z M402.857,67.443l-1.587-1.663l1.586-1.663
		l1.587,1.663L402.857,67.443z M402.41,67.909l-1.585,1.661l-1.588-1.661l1.588-1.663L402.41,67.909z M398.792,67.443l-1.586-1.663
		l1.586-1.663l1.588,1.663L398.792,67.443z M398.348,67.909l-1.586,1.661l-1.587-1.662l1.587-1.662L398.348,67.909z M394.73,67.443
		l-1.586-1.663l1.586-1.663l1.586,1.663L394.73,67.443z M394.285,67.909l-1.587,1.662l-1.587-1.662l1.587-1.663L394.285,67.909z
		 M390.667,67.443l-1.587-1.663l1.587-1.663l1.587,1.663L390.667,67.443z M390.221,67.909l-1.586,1.661l-1.586-1.661l1.586-1.663
		L390.221,67.909z M386.603,67.443l-1.585-1.663l1.585-1.663l1.587,1.663L386.603,67.443z M386.158,67.909l-1.586,1.662
		l-1.587-1.662l1.587-1.663L386.158,67.909z M382.54,67.441l-1.586-1.661l1.586-1.663l1.587,1.663L382.54,67.441z M382.095,67.909
		l-1.587,1.662l-1.585-1.662l1.585-1.663L382.095,67.909z M378.478,67.443l-1.587-1.663l1.587-1.663l1.586,1.663L378.478,67.443z
		 M378.032,67.909l-1.587,1.661l-1.586-1.662l1.586-1.662L378.032,67.909z M374.413,67.443l-1.585-1.663l1.585-1.663L376,65.78
		L374.413,67.443z M373.969,67.909l-1.586,1.662l-1.587-1.662l1.587-1.663L373.969,67.909z M374.413,68.375L376,70.037l-1.587,1.663
		l-1.586-1.663L374.413,68.375z M376,74.296l-1.587,1.663l-1.585-1.663l1.586-1.662L376,74.296z M376,78.555l-1.587,1.663
		l-1.586-1.663l1.586-1.662L376,78.555z M376,82.813l-1.587,1.662l-1.585-1.662l1.586-1.663L376,82.813z M376.446,83.279
		l1.587,1.663l-1.587,1.662l-1.586-1.662L376.446,83.279z M378.478,85.409l1.586,1.662l-1.586,1.663l-1.587-1.663L378.478,85.409z
		 M378.923,84.942l1.585-1.663l1.587,1.663l-1.587,1.662L378.923,84.942z M382.54,85.409l1.587,1.662l-1.587,1.663l-1.586-1.663
		L382.54,85.409z M382.986,84.942l1.587-1.663l1.586,1.663l-1.586,1.662L382.986,84.942z M386.603,85.409l1.587,1.662l-1.587,1.663
		l-1.585-1.663L386.603,85.409z M387.049,84.942l1.586-1.663l1.586,1.663l-1.586,1.662L387.049,84.942z M390.667,85.409l1.587,1.662
		l-1.587,1.663l-1.587-1.663L390.667,85.409z M391.112,84.942l1.587-1.663l1.587,1.663l-1.587,1.662L391.112,84.942z M394.73,85.409
		l1.586,1.662l-1.586,1.663l-1.586-1.663L394.73,85.409z M395.175,84.942l1.587-1.663l1.586,1.663l-1.586,1.662L395.175,84.942z
		 M398.792,85.409l1.588,1.662l-1.588,1.663l-1.586-1.663L398.792,85.409z M399.238,84.942l1.587-1.663l1.585,1.663l-1.585,1.662
		L399.238,84.942z M402.857,85.409l1.586,1.662l-1.587,1.663l-1.586-1.663L402.857,85.409z M403.301,84.942l1.586-1.663l1.588,1.663
		l-1.588,1.662L403.301,84.942z M406.92,85.409l1.586,1.662l-1.586,1.663l-1.588-1.663L406.92,85.409z M407.365,84.942l1.586-1.663
		l1.587,1.663l-1.588,1.662L407.365,84.942z M410.983,85.409l1.587,1.662l-1.587,1.663l-1.587-1.663L410.983,85.409z
		 M411.428,84.942l1.587-1.663l1.588,1.663l-1.588,1.662L411.428,84.942z M413.46,82.813l1.586-1.663l1.587,1.663l-1.587,1.662
		L413.46,82.813z M413.46,78.555l1.586-1.662l1.587,1.662l-1.587,1.663L413.46,78.555z M415.492,76.425l1.585-1.661l1.587,1.661
		l-1.587,1.663L415.492,76.425z M415.492,72.167l1.585-1.661l1.587,1.661l-1.587,1.662L415.492,72.167z M417.523,70.037l1.587-1.662
		l1.588,1.662L419.11,71.7L417.523,70.037z M417.523,65.78l1.587-1.663l1.588,1.663l-1.588,1.661L417.523,65.78z M419.555,63.651
		l1.586-1.664l1.587,1.664l-1.587,1.661L419.555,63.651z M420.696,61.522l-1.587,1.661l-1.508-1.579l3.084-0.094L420.696,61.522z
		 M416.524,61.637l-1.478,1.546l-1.393-1.46L416.524,61.637z M414.602,63.651l-1.587,1.662l-1.588-1.662l1.588-1.664L414.602,63.651
		z M412.338,61.764l-1.355,1.419l-1.28-1.34L412.338,61.764z M410.537,63.651l-1.587,1.662l-1.585-1.662l1.586-1.664L410.537,63.651
		z M408.154,61.891l-1.233,1.294l-1.166-1.222L408.154,61.891z M404.889,61.989l1.586,1.662l-1.588,1.662l-1.586-1.662l1.586-1.662
		H404.889z M403.971,62.017l-1.114,1.168l-1.051-1.103L403.971,62.017z M400.941,62.108l1.47,1.543l-1.585,1.662l-1.588-1.662
		l1.465-1.534L400.941,62.108z M399.786,62.144l-0.993,1.041l-0.936-0.981L399.786,62.144z M396.99,62.228l1.358,1.424l-1.587,1.662
		l-1.587-1.662l1.344-1.408L396.99,62.228z M395.602,62.272l-0.872,0.913l-0.822-0.863L395.602,62.272z M393.042,62.349l1.243,1.303
		l-1.587,1.662l-1.587-1.662l1.224-1.282L393.042,62.349z M391.418,62.398l-0.751,0.787l-0.708-0.742L391.418,62.398z
		 M389.092,62.468l1.129,1.184l-1.586,1.662l-1.586-1.662l1.102-1.154L389.092,62.468z M387.234,62.524l-0.631,0.66l-0.594-0.623
		L387.234,62.524z M385.144,62.588l1.016,1.063l-1.587,1.662l-1.586-1.662l0.981-1.028L385.144,62.588z M383.049,62.651
		l-0.509,0.531l-0.48-0.502L383.049,62.651z M379.782,62.749l1.413-0.042l0.9,0.944l-1.587,1.663l-1.586-1.663L379.782,62.749z
		 M378.864,62.778l-0.387,0.404l-0.366-0.383L378.864,62.778z M375.598,62.877l1.648-0.05l0.786,0.824l-1.586,1.662l-1.587-1.662
		L375.598,62.877z M374.681,62.904l-0.268,0.28l-0.25-0.265L374.681,62.904z M371.413,63.003l1.884-0.057l0.672,0.705l-1.586,1.662
		l-1.587-1.662L371.413,63.003z M370.496,63.032l-0.145,0.15l-0.139-0.144L370.496,63.032z M369.905,63.651L369.905,63.651
		L369.905,63.651L369.905,63.651z M370.008,64.478l0.344-0.36l1.585,1.663l-1.567,1.642L370.008,64.478z M370.508,68.541
		l1.429,1.496l-1.102,1.154L370.508,68.541z M370.938,72.02l1.445-1.514l1.586,1.661l-1.586,1.663l-1.403-1.47L370.938,72.02z
		 M371.113,73.432l0.825,0.864l-0.636,0.668L371.113,73.432z M371.405,75.789l0.978-1.027l1.586,1.663l-1.586,1.662l-0.799-0.837
		L371.405,75.789z M371.716,78.322l0.222,0.232l-0.171,0.179L371.716,78.322z M371.868,79.561l0.515-0.54l1.586,1.663l-1.586,1.662
		l-0.196-0.205L371.868,79.561z M372.334,83.33l0.049-0.051l1.586,1.663l-1.272,1.332L372.334,83.33z M373.715,89.466l-0.629-0.031
		l-0.164-1.331l1.047,1.098L373.715,89.466z M372.828,87.071l1.585-1.662L376,87.071l-1.587,1.663L372.828,87.071z M377.597,89.655
		l-2.416-0.119l-0.322-0.336l1.587-1.662l1.586,1.662L377.597,89.655z M378.449,89.696l0.028-0.03l0.03,0.034L378.449,89.696z
		 M381.481,89.845l-2.038-0.1l-0.52-0.545l1.586-1.662l1.587,1.662L381.481,89.845z M382.332,89.886l0.208-0.22l0.229,0.241
		L382.332,89.886z M385.363,90.033l-1.659-0.081l-0.718-0.752l1.587-1.662l1.586,1.662L385.363,90.033z M386.215,90.076l0.389-0.41
		l0.427,0.448L386.215,90.076z M387.965,90.16l-0.916-0.959l1.586-1.663l1.586,1.663l-0.974,1.022L387.965,90.16z M390.097,90.264
		l0.57-0.598l0.625,0.656L390.097,90.264z M392.226,90.367l-1.114-1.167l1.587-1.662l1.587,1.662l-1.156,1.212L392.226,90.367z
		 M393.981,90.452l0.749-0.787l0.823,0.863L393.981,90.452z M396.488,90.575l-1.312-1.375l1.587-1.662l1.587,1.662l-1.336,1.4
		L396.488,90.575z M397.863,90.643l0.93-0.977l1.021,1.071L397.863,90.643z M400.748,90.782l-1.51-1.582l1.587-1.663l1.585,1.662
		l-1.517,1.59L400.748,90.782z M401.744,90.831l1.112-1.165l1.22,1.279L401.744,90.831z M403.301,89.2l1.586-1.663l1.588,1.663
		l-1.588,1.662L403.301,89.2z M405.628,91.022l1.292-1.356l1.417,1.485L405.628,91.022z M407.365,89.2l1.585-1.662l1.588,1.662
		l-1.587,1.662L407.365,89.2z M412.543,91.357l-3.032-0.147l1.472-1.544l1.587,1.663L412.543,91.357z M411.428,89.2l1.587-1.663
		l1.588,1.663l-1.588,1.662L411.428,89.2z M414.412,91.449l-0.88-0.043l-0.071-0.076l1.478-1.551L414.412,91.449z M415.379,88.386
		l-0.333,0.347l-1.586-1.661l1.586-1.662l0.957,1.002L415.379,88.386z M416.225,85.709l-0.734-0.767l1.458-1.527L416.225,85.709z
		 M417.389,82.02l-0.311,0.326l-1.585-1.662l1.585-1.662l0.945,0.991L417.389,82.02z M418.244,79.311l-0.722-0.756l1.435-1.505
		L418.244,79.311z M419.4,75.655l-0.29,0.304l-1.588-1.663l1.588-1.662l0.934,0.979L419.4,75.655z M420.266,72.911l-0.711-0.744
		l1.413-1.481L420.266,72.911z M421.408,69.29l-0.268,0.281l-1.587-1.662l1.587-1.663l0.924,0.969L421.408,69.29z M422.285,66.513
		l-0.699-0.732l1.391-1.459L422.285,66.513z M423.418,62.927l-0.246,0.258l-1.585-1.663l0.037-0.04l2.272-0.067L423.418,62.927z
		 M431.608,52.608c-0.898,0-1.627-0.729-1.627-1.627c0-0.898,0.728-1.629,1.627-1.629c0.898,0,1.628,0.731,1.628,1.629
		C433.236,51.878,432.506,52.608,431.608,52.608z"/>
	<path fill="#8792A4" d="M373.994,105.105c-1.185,0-2.148,0.963-2.148,2.147c0,1.185,0.964,2.148,2.148,2.148
		c1.184,0,2.147-0.964,2.147-2.148C376.142,106.067,375.178,105.105,373.994,105.105z"/>
	<path fill="#8792A4" d="M417.9,104.426c-1.371,0-2.487,1.116-2.487,2.487c0,1.371,1.116,2.487,2.487,2.487
		c1.372,0,2.486-1.116,2.486-2.487C420.386,105.542,419.272,104.426,417.9,104.426z"/>
</g>
<g>
	<path fill="#8792A4" d="M480.584,64.243c7.642-2.497,15.281-4.993,22.923-7.491c2.708-0.885,1.546-5.171-1.182-4.28
		c-7.64,2.498-15.281,4.996-22.92,7.494C476.697,60.85,477.856,65.136,480.584,64.243z"/>
	<path fill="#8792A4" d="M485.061,91.38l-0.178-0.117C484.941,91.306,484.998,91.343,485.061,91.38z"/>
	<path fill="#8792A4" d="M497.186,94.358h-12.251c-0.507,0-0.919,0.413-0.919,0.92v0.612c0,0.508,0.412,0.918,0.919,0.918h12.251
		c0.507,0,0.918-0.41,0.918-0.918v-0.612C498.104,94.772,497.693,94.358,497.186,94.358z"/>
	<path fill="#8792A4" d="M497.186,98.034h-12.251c-0.507,0-0.919,0.411-0.919,0.918v0.613c0,0.509,0.412,0.919,0.919,0.919h12.251
		c0.507,0,0.918-0.41,0.918-0.919v-0.613C498.104,98.445,497.693,98.034,497.186,98.034z"/>
	<path fill="#8792A4" d="M497.186,101.709h-12.251c-0.507,0-0.919,0.412-0.919,0.919v0.612c0,0.509,0.412,0.918,0.919,0.918h12.251
		c0.507,0,0.918-0.409,0.918-0.918v-0.612C498.104,102.121,497.693,101.709,497.186,101.709z"/>
	<path fill="#8792A4" d="M486.467,105.384h9.188c0,1.838-2.451,3.062-4.595,3.062C488.916,108.446,486.467,107.222,486.467,105.384z
		"/>
	<path fill="#8792A4" d="M480.546,56.819c5.327-1.74,10.652-3.482,15.978-5.222c2.707-0.886,1.547-5.172-1.181-4.28
		c-5.326,1.741-10.651,3.482-15.978,5.223C476.658,53.425,477.819,57.711,480.546,56.819z"/>
	<path fill="#8792A4" d="M502.413,67.129c-2.836,0.014-6.004,0.52-8.1,2.616c-2.489,2.489-2.679,6.007-2.216,9.301h-2.038
		c0.412-3.21,0.167-6.599-2.253-9.019c-0.226-0.226-0.463-0.427-0.712-0.616c5.339-1.746,10.678-3.491,16.015-5.235
		c2.71-0.885,1.548-5.173-1.179-4.279c-7.641,2.497-15.279,4.994-22.922,7.494c-2.157,0.704-1.856,3.566-0.267,4.25
		c0.029,0.013,0.06,0.026,0.09,0.038c0.002,0,0.002,0.002,0.002,0.002c0.255,0.105,0.545,0.166,0.872,0.168
		c0.503,0.003,1.006,0.021,1.506,0.058c0.139,0.013,0.275,0.026,0.412,0.042c0.014,0.002,0.023,0.002,0.037,0.006
		c0.269,0.04,0.532,0.097,0.798,0.158c0.257,0.06,0.511,0.134,0.762,0.215c0.106,0.035,0.212,0.074,0.317,0.113
		c0.014,0.008,0.028,0.014,0.044,0.02c0.228,0.106,0.444,0.235,0.657,0.363c0.069,0.045,0.136,0.094,0.202,0.14
		c0.022,0.02,0.051,0.043,0.09,0.076c0.14,0.123,0.27,0.26,0.396,0.396c0.026,0.032,0.044,0.054,0.062,0.073
		c0.057,0.083,0.113,0.163,0.165,0.247c0.039,0.062,0.294,0.58,0.268,0.492c0.09,0.24,0.161,0.489,0.227,0.736
		c0.294,1.111,0.202,2.626-0.033,3.989c-0.005,0.025-0.004,0.049-0.006,0.073h-2.206c-1.185,0-2.144,0.959-2.144,2.144v8.359
		c0,0.704,0.344,1.322,0.867,1.714l2.808,1.871h12.251l2.807-1.871c0.523-0.392,0.868-1.01,0.868-1.714V81.19
		c0-1.185-0.961-2.144-2.143-2.144h-2.177c-0.005-0.117-0.016-0.237-0.037-0.356c-0.236-1.362-0.326-2.874-0.034-3.987
		c0.065-0.249,0.137-0.497,0.227-0.737c-0.024,0.089,0.23-0.431,0.268-0.491c0.052-0.085,0.109-0.166,0.166-0.247
		c0.017-0.02,0.036-0.044,0.062-0.072c0.127-0.138,0.255-0.274,0.396-0.397c0.037-0.031,0.065-0.056,0.089-0.075
		c0.068-0.049,0.133-0.094,0.204-0.139c0.213-0.131,0.429-0.258,0.656-0.364c0.015-0.007,0.03-0.014,0.043-0.02
		c0.104-0.039,0.211-0.078,0.318-0.114c0.252-0.079,0.505-0.157,0.762-0.217c0.263-0.059,0.528-0.115,0.799-0.157
		c0.013-0.003,0.023-0.004,0.036-0.005c0.138-0.016,0.274-0.03,0.411-0.042c0.503-0.038,1.005-0.055,1.507-0.058
		C505.274,71.552,505.277,67.112,502.413,67.129z"/>
</g>
<path fill="#8792A4" d="M764.468,47.326c-4.555,0.033-8.859,1.068-12.736,2.854c0.273,0.032,0.467,0.049,0.467,0.049
	s5.578,0.494,8.232-0.591c2.646-1.071,4.783,1.829,3.727,1.839c-1.066,0.003-2.369,3.201-1.303,3.201
	c1.057-0.012,1.326,1.579,2.908-0.293c1.584-1.868,1.326-1.064,4.262,0.776c2.926,1.834-1.855,1.861-1.855,1.861
	s-1.041,2.135-2.369,2.144c-1.324,0.008-4.492,3.478-5.27,5.874c-0.779,2.395-1.041,2.398-2.121,0.547
	c-1.07-1.855-2.664-0.518-4.494,1.887c-1.842,2.399,3.477,4.754,3.477,4.754l2.674,2.366c0,0,2.123-0.537,3.18-1.08
	c1.051-0.536,0.801,1.058,4.533,2.628c3.721,1.572,0.543,1.852,3.998,2.895c3.451,1.034,4.273,3.689,4.273,3.689l-1.049,2.126
	l-1.043,3.198c0,0-1.586,0.535-2.361,3.198c-0.785,2.652-2.635,3.194-3.957,4.535c-1.324,1.332,0.293,4.246,1.102,5.83
	c0.809,1.599-1.588-0.253-2.654-0.51c-1.07-0.261-1.621-3.441-2.162-5.025c-0.535-1.586,0.236-5.309,0.221-7.17
	c-0.008-1.854-1.076-2.378-2.414-3.969c-1.334-1.586-1.342-1.844-2.152-4.762c-0.82-2.914-0.299-3.713,0.492-4.251
	c0.793-0.531-2.127-1.573-3.461-2.102c-1.326-0.521-2.664-1.577-4.525-2.881c-1.869-1.316-2.414-3.433-3.225-4.49
	c-0.795-1.058-1.098-5.839-1.109-7.432c-0.008-1.583,1.83-3.461,1.025-4.788c-0.357-0.58-1.447-0.686-2.699-0.666
	c-7.594,5.707-12.492,14.771-12.426,24.986c0.033,5.915,1.758,11.404,4.664,16.094c1.07,0.37,3.533,1.172,4.588,1.172
	c1.357,0,5.109-0.337,6.127,2.386c1.02,2.725,2.729,3.065,0.338,5.794c-0.289,0.333-0.549,0.611-0.775,0.838
	c4.754,2.891,10.318,4.561,16.291,4.521c17.121-0.107,30.92-14.094,30.807-31.227C795.575,61.004,781.601,47.218,764.468,47.326z"/>
<g>
	<path fill="#8792A4" d="M-234.202,60.023c0,3.234-7.396,5.853-16.521,5.853c-9.121,0-16.519-2.621-16.519-5.853
		c0-3.233,7.398-5.854,16.519-5.854C-241.598,54.169-234.202,56.789-234.202,60.023"/>
	<path fill="#8792A4" d="M-234.202,65.047"/>
	<path fill="#8792A4" d="M-234.202,71.167"/>
	<path fill="#8792A4" d="M-234.202,64.164c0,3.234-7.396,5.852-16.521,5.852c-9.121,0-16.519-2.618-16.519-5.852v6.121
		c0,3.234,7.398,5.854,16.519,5.854c9.125,0,16.521-2.62,16.521-5.854V64.164z"/>
	<path fill="#8792A4" d="M-234.202,74.995c0,3.233-7.396,5.854-16.521,5.854c-9.121,0-16.519-2.62-16.519-5.854v6.122
		c0,3.233,7.398,5.853,16.519,5.853c9.125,0,16.521-2.619,16.521-5.853V74.995z"/>
	<path fill="#8792A4" d="M-196.846,81.838c0,3.235-7.396,5.856-16.521,5.856c-9.12,0-16.518-2.621-16.518-5.856
		c0-3.23,7.398-5.852,16.518-5.852C-204.242,75.986-196.846,78.606-196.846,81.838"/>
	<path fill="#8792A4" d="M-196.846,85.981c0,3.232-7.396,5.854-16.521,5.854c-9.12,0-16.518-2.621-16.518-5.854v6.122
		c0,3.233,7.398,5.854,16.518,5.854c9.126,0,16.521-2.621,16.521-5.854V85.981z"/>
	<path fill="#8792A4" d="M-196.846,96.812c0,3.234-7.396,5.853-16.521,5.853c-9.12,0-16.518-2.619-16.518-5.853v6.12
		c0,3.235,7.398,5.856,16.518,5.856c9.126,0,16.521-2.621,16.521-5.856V96.812z"/>
	<path fill="#8792A4" d="M-234.202,85.668c0,3.232-7.396,5.853-16.521,5.853c-9.121,0-16.519-2.62-16.519-5.853v6.121
		c0,3.234,7.398,5.853,16.519,5.853c9.125,0,16.521-2.619,16.521-5.853V85.668z"/>
	<path fill="#8792A4" d="M-234.202,96.655c0,3.234-7.396,5.854-16.521,5.854c-9.121,0-16.519-2.62-16.519-5.854v6.121
		c0,3.233,7.398,5.854,16.519,5.854c9.125,0,16.521-2.621,16.521-5.854V96.655z"/>
</g>
<g>
	<path fill="#8792A4" d="M-73.019,107.09l-0.833-8.386c0-0.771,0.983-0.087,2.225-0.087l0,0c1.229,0,2.225-0.684,2.225,0.087l0,0
		l-0.699,8.179C-70.101,108.668-73.019,107.94-73.019,107.09z"/>
	<path fill="#8792A4" d="M-76.588,79.793c-6.109-2.76-5.612-7.107-5.612-7.107c-0.771,1.535,0.869,14.918,7.235,14.918
		C-72.117,87.604-69.723,82.877-76.588,79.793z"/>
	<path fill="#8792A4" d="M-76.588,70.337c-6.109-2.752-5.612-7.1-5.612-7.1c-0.771,1.53,0.869,14.917,7.235,14.917
		C-72.117,78.154-69.723,73.429-76.588,70.337z"/>
	<path fill="#8792A4" d="M-76.588,61.164c-6.109-2.74-5.612-7.096-5.612-7.096c-0.771,1.534,0.869,14.91,7.235,14.91
		C-72.117,68.979-69.723,64.265-76.588,61.164z"/>
	<path fill="#8792A4" d="M-68.118,87.604c6.366,0,7.998-13.383,7.235-14.918c0,0,0.494,4.348-5.619,7.107
		C-73.361,82.877-70.975,87.604-68.118,87.604z"/>
	<path fill="#8792A4" d="M-76.588,89.477c-6.109-2.762-5.612-7.107-5.612-7.107c-0.771,1.534,0.869,14.918,7.235,14.918
		C-72.117,97.288-69.723,92.562-76.588,89.477z"/>
	<path fill="#8792A4" d="M-68.118,97.288c6.366,0,7.998-13.384,7.235-14.918c0,0,0.494,4.345-5.619,7.107
		C-73.361,92.562-70.975,97.288-68.118,97.288z"/>
	<path fill="#8792A4" d="M-68.118,78.154c6.366,0,7.998-13.387,7.235-14.917c0,0,0.494,4.348-5.619,7.1
		C-73.361,73.429-70.975,78.154-68.118,78.154z"/>
	<path fill="#8792A4" d="M-68.118,68.979c6.366,0,7.998-13.376,7.235-14.91c0,0,0.494,4.355-5.619,7.096
		C-73.361,64.265-70.975,68.979-68.118,68.979z"/>
	<path fill="#8792A4" d="M-71.099,61.88c6.753,0-0.371-14.398-0.371-14.398C-72.329,48.835-77.851,61.88-71.099,61.88z"/>
	<path fill="#8792A4" d="M-52.839,108.212l4.075-7.129l0,0c0.323-0.688-0.863-0.5-1.977-1.011l0,0
		c-1.13-0.525-1.733-1.56-2.055-0.859l-2.778,7.948C-55.932,107.94-53.597,109.828-52.839,108.212z"/>
	<path fill="#8792A4" d="M-47.316,80.906c-4.367-5.078-2.092-8.809-2.092-8.809c-1.344,1.067-5.492,13.898,0.275,16.579
		C-46.548,89.881-42.384,86.605-47.316,80.906z"/>
	<path fill="#8792A4" d="M-43.328,72.326c-4.37-5.065-2.097-8.796-2.097-8.796c-1.345,1.062-5.499,13.89,0.271,16.579
		C-42.561,81.307-38.407,78.039-43.328,72.326z"/>
	<path fill="#8792A4" d="M-39.466,64.018c-4.381-5.061-2.097-8.805-2.097-8.805c-1.342,1.064-5.492,13.89,0.28,16.579
		C-38.699,72.986-34.539,69.722-39.466,64.018z"/>
	<path fill="#8792A4" d="M-42.92,91.568c5.771,2.673,12.896-8.763,12.84-10.485c0,0-1.379,4.151-8.087,4.075
		C-45.685,85.08-45.509,90.36-42.92,91.568z"/>
	<path fill="#8792A4" d="M-51.39,89.69c-4.376-5.075-2.1-8.802-2.1-8.802c-1.344,1.062-5.492,13.891,0.279,16.563
		C-50.618,98.652-46.468,95.385-51.39,89.69z"/>
	<path fill="#8792A4" d="M-46.999,100.342c5.767,2.687,12.89-8.762,12.843-10.478c0,0-1.381,4.15-8.085,4.076
		C-49.763,93.859-49.584,99.145-46.999,100.342z"/>
	<path fill="#8792A4" d="M-38.932,82.994c5.768,2.679,12.886-8.773,12.838-10.483c0,0-1.381,4.146-8.085,4.075
		C-41.707,76.504-41.522,81.798-38.932,82.994z"/>
	<path fill="#8792A4" d="M-35.071,74.666c5.772,2.69,12.884-8.757,12.837-10.473c0,0-1.386,4.16-8.083,4.075
		C-37.839,68.189-37.655,73.473-35.071,74.666z"/>
	<path fill="#8792A4" d="M-34.787,66.973c6.12,2.846,5.729-13.215,5.729-13.215C-30.408,54.636-40.907,64.129-34.787,66.973z"/>
</g>
<g id="Your_Icon_16_">
	<path fill="#8792A4" d="M-125.378,104.326l-12.665-21.936V51.688h0.128c1.053,0,1.908-0.854,1.908-1.908
		c0-1.054-0.855-1.908-1.908-1.908h-15.516c-1.055,0-1.908,0.854-1.908,1.908c0,1.054,0.853,1.908,1.908,1.908h0.127v1.569v4.266
		h3.545c0.474,0,0.858,0.384,0.858,0.858c0,0.474-0.384,0.858-0.858,0.858h-3.545v5.999h3.545c0.474,0,0.858,0.385,0.858,0.858
		c0,0.475-0.384,0.858-0.858,0.858h-3.545v5.999h3.545c0.474,0,0.858,0.387,0.858,0.859c0,0.474-0.384,0.858-0.858,0.858h-3.545v6
		h3.545c0.474,0,0.858,0.385,0.858,0.858c0,0.474-0.384,0.859-0.858,0.859h-3.545l-3.463,5.998h3.547
		c0.475,0,0.858,0.385,0.858,0.857c0,0.477-0.383,0.86-0.858,0.86h-4.539l-3.463,5.999h4.541c0.475,0,0.859,0.384,0.859,0.858
		c0,0.474-0.384,0.859-0.859,0.859h-5.533l-3.754,6.503c-1.456,2.523-0.264,4.589,2.65,4.589h35.292
		C-125.114,108.916-123.922,106.851-125.378,104.326z M-127.244,106.303c-0.137,0.241-0.387,0.393-0.663,0.402
		c-0.039,0.001-0.08,0.001-0.122,0.001c-0.423,0-0.769-0.33-0.794-0.746l-12.915-22.366c-0.068-0.122-0.107-0.259-0.107-0.397
		V51.476c0-0.439,0.357-0.795,0.794-0.795c0.44,0,0.795,0.355,0.795,0.795v31.508l13.016,22.545
		C-127.105,105.771-127.108,106.063-127.244,106.303z"/>
</g>
<path fill="#8792A4" d="M594.02,52.146c-1.921-1.575-3.259-1.205-5.186,2.228c-1.272,2.274-3.299,2.546-4.54,2.477l0.009-0.454
	c1.439-0.716,2.455-2.166,2.455-3.877c0-2.414-1.955-4.363-4.362-4.363c-2.407,0-4.37,1.95-4.37,4.363
	c0,1.713,1.017,3.163,2.458,3.875l0.006,0.456c-1.238,0.071-3.268-0.202-4.54-2.476c-1.919-3.435-3.259-3.805-5.178-2.228
	c-1.931,1.577-9.542,10.675-18.825,9.839c0,0,1.84,4.178,6.855,3.251c0,0,2.681,2.782,7.028,0.835c0,0,2.261,2.038,5.857,0.184
	c0,0,2.672,2.044,5.523,0.278c0,0,1.609,1.167,3.398,0.864l0.115,10.503c-0.204-0.041-0.365-0.088-0.579-0.125
	c-0.007-0.004-3.115-0.669-6.404-1.594c-3.163-0.826-6.636-2.169-7.147-2.87c0.045-0.044,0.115-0.079,0.207-0.121
	c0.28-0.15,0.76-0.303,1.332-0.418c1.162-0.236,2.735-0.358,4.317-0.423c3.144-0.111,3.711,0.024,3.767,0.037
	c0.004-0.101,1.819,0.212,2.319-1.637c-0.02-0.016,0.037-0.092,0.004-0.136c-0.102-1.271-1.082-1.335-1.883-1.485
	c-1.3-0.169-0.623-0.103-2.374-0.079c-2.879,0.213-11.748-0.505-12.865,4.164c0,0.132-0.009,0.215-0.023,0.328
	c0.372,4.067,8.79,5.832,14.886,7.047c-2.068,1.417-3.175,3.261-3.614,5.644c-0.211,2.541,1.808,4.959,6.494,7.664
	c-3.562,2.521-5.9,4.888-5.711,7.746c0.334,2.332,2.393,5.447,6.437,7.411c0.012,0.003,0.015-0.003,0.023,0c0,0,0.004,0,0.012,0
	c0,0-2.831-4.317-3.022-6.68c-0.186-1.381,0.598-3.418,4.041-5.873l0.1,8.636h0.016c0.023,0.735,0.589,1.32,1.303,1.32
	c0.715,0,1.283-0.585,1.306-1.32h0.011l0.115-8.41c3.173,2.35,3.89,4.306,3.707,5.645c-0.19,2.362-3.016,6.681-3.016,6.681
	c0.003,0,0.003,0,0.006,0c0,0,0.01,0.004,0.029,0c4.04-1.963,6.101-5.078,6.431-7.41c0.191-2.858-2.148-5.226-5.706-7.747
	c4.684-2.704,6.705-5.122,6.495-7.663c-0.441-2.383-1.546-4.227-3.621-5.644c6.104-1.215,14.518-2.979,14.888-7.047
	c-0.014-0.113-0.023-0.196-0.023-0.328c-1.113-4.669-9.987-3.951-12.865-4.167c-1.752-0.021-1.074-0.087-2.373,0.081
	c-0.802,0.148-1.781,0.214-1.886,1.485c-0.03,0.044,0.03,0.119,0.009,0.136c0.499,1.85,2.317,1.536,2.32,1.638
	c0.052-0.013,0.619-0.148,3.767-0.037c1.577,0.065,3.152,0.187,4.313,0.422c0.574,0.116,1.047,0.268,1.333,0.419
	c0.091,0.042,0.165,0.077,0.21,0.121c-0.511,0.701-3.984,2.044-7.147,2.87c-3.292,0.923-6.4,1.589-6.407,1.594
	c-0.08,0.016-0.142,0.031-0.223,0.044l0.136-10.425c1.801,0.317,3.422-0.861,3.422-0.861c2.841,1.765,5.522-0.278,5.522-0.278
	c3.595,1.854,5.851-0.184,5.851-0.184c4.35,1.947,7.03-0.835,7.03-0.835c5.012,0.927,6.856-3.251,6.856-3.251
	C603.56,62.821,595.947,53.724,594.02,52.146z M578.296,89.392c-1.162-0.722-1.705-1.696-1.598-2.354
	c0.061-0.916-0.254-3.099,4.079-4.69l0.099,8.676C580.041,90.492,579.176,89.95,578.296,89.392z M587.693,87.037
	c0.107,0.658-0.438,1.633-1.598,2.354c-0.761,0.487-1.508,0.952-2.235,1.411l0.109-8.321
	C587.923,84.063,587.628,86.149,587.693,87.037z"/>
<g>
	<path fill="#8792A4" d="M851.066,97.303c-6.804-2.769-10.261-3.068-13.922-3.387c-3.609-0.312-7.347-0.642-14.416-3.476
		c-0.525,0.794-0.96,2.335-1.31,4.2c7.271,1.895,10.951,1.749,14.5,1.603c3.592-0.147,7.303-0.3,14.562,1.625
		c2.457,0.652,4.37,1.294,5.893,1.915C855.02,99.035,853.299,98.212,851.066,97.303z"/>
	<path fill="#8792A4" d="M850.201,99.797c-7.099-1.885-10.566-1.742-14.239-1.592c-3.617,0.148-7.363,0.299-14.73-1.614
		c-0.237,1.455-0.43,3.031-0.582,4.554c7.187,0.853,10.75,0.235,14.188-0.366c3.539-0.619,7.198-1.259,14.649-0.307
		c2.914,0.373,5.11,0.827,6.804,1.319C854.786,101.159,852.821,100.492,850.201,99.797z"/>
	<path fill="#8792A4" d="M835.025,102.726c-3.512,0.612-7.15,1.242-14.478,0.378c-0.149,1.668-0.252,3.208-0.308,4.352
		c7.362-0.051,10.835-1.127,14.197-2.17c3.433-1.062,6.981-2.16,14.492-2.16c2.54,0,4.554,0.127,6.183,0.34
		c-1.498-0.379-3.371-0.731-5.762-1.037C842.064,101.495,838.645,102.092,835.025,102.726z"/>
	<path fill="#8792A4" d="M890.297,96.265c3.559,0.146,7.244,0.294,14.55-1.615c-0.36-2.028-0.797-3.604-1.302-4.207
		c-7.109,2.855-10.854,3.184-14.475,3.497c-3.659,0.318-7.118,0.615-13.922,3.387c-2.234,0.91-3.957,1.733-5.308,2.482
		c1.521-0.621,3.437-1.265,5.896-1.916C882.994,95.965,886.707,96.118,890.297,96.265z"/>
	<path fill="#8792A4" d="M902.996,88.616l-7.704-22.243c-5.576,2.213-8.549,2.469-11.427,2.718c-2.94,0.255-5.718,0.495-11.182,2.72
		c-7.578,3.085-7.988,5.012-8.209,6.048c-0.107,0.497-0.232,1.053-0.912,1.416v25.277c0.004-0.005,0.01-0.011,0.015-0.018
		c0.032-0.045,0.06-0.102,0.089-0.161c0.057-0.14,0.1-0.306,0.152-0.551c0.343-1.61,0.916-4.309,10.924-8.38
		c6.955-2.834,10.658-3.153,14.238-3.464C892.494,91.675,896.126,91.361,902.996,88.616z"/>
	<path fill="#8792A4" d="M891.376,100.801c3.44,0.602,7.006,1.217,14.204,0.364c-0.15-1.575-0.336-3.141-0.557-4.561
		c-7.391,1.921-11.145,1.774-14.771,1.624c-3.673-0.151-7.14-0.292-14.241,1.593c-2.618,0.694-4.584,1.361-6.091,1.997
		c1.694-0.493,3.892-0.946,6.806-1.321C884.177,99.542,887.84,100.182,891.376,100.801z"/>
	<path fill="#8792A4" d="M891.778,105.31c3.361,1.041,6.837,2.116,14.197,2.17c-0.062-1.328-0.166-2.827-0.295-4.354
		c-7.334,0.866-10.977,0.236-14.489-0.378c-3.62-0.633-7.038-1.228-14.325-0.298c-2.39,0.308-4.264,0.66-5.76,1.038
		c1.628-0.211,3.641-0.342,6.18-0.342C884.797,103.147,888.347,104.246,891.778,105.31z"/>
	<path fill="#8792A4" d="M862.399,103.802c0.027,0.136,0.053,0.245,0.079,0.345V79.274c-0.681-0.362-0.807-0.919-0.913-1.416
		c-0.221-1.034-0.63-2.963-8.209-6.048c-5.464-2.225-8.24-2.464-11.182-2.719c-2.877-0.248-5.849-0.506-11.422-2.718l-7.537,22.218
		c6.873,2.747,10.506,3.062,14.021,3.365c3.58,0.311,7.281,0.631,14.238,3.463C861.483,99.492,862.055,102.19,862.399,103.802z"/>
</g>
<path fill="#8792A4" d="M989.62,107.547v-28.37l-12.451-4.583l-1.071-26.205h0.249v-0.663h-4.411v0.663h0.249l-1.057,25.88
	l-12.464,4.908v10.247L936.7,94.758v12.789h-1.204v1.814h55.327v-1.814H989.62z M944.627,102.439h-2.305v-2.306h2.305V102.439z
	 M949.124,102.439h-2.306v-2.306h2.306V102.439z M953.62,102.439h-2.306v-2.306h2.306V102.439z M958.116,102.439h-2.305v-2.306
	h2.305V102.439z M970.798,102.439h-2.305v-2.306h2.305V102.439z M970.798,97.941h-2.305v-2.305h2.305V97.941z M970.798,89.638
	h-2.305v-2.306h2.305V89.638z M970.798,85.142h-2.305v-2.306h2.305V85.142z M975.294,102.439h-2.305v-2.306h2.305V102.439z
	 M975.294,97.941h-2.305v-2.305h2.305V97.941z M975.294,89.638h-2.305v-2.306h2.305V89.638z M975.294,85.142h-2.305v-2.306h2.305
	V85.142z M979.791,102.439h-2.306v-2.306h2.306V102.439z M979.791,97.941h-2.306v-2.305h2.306V97.941z M979.791,89.638h-2.306
	v-2.306h2.306V89.638z M979.791,85.142h-2.306v-2.306h2.306V85.142z"/>
<g id="Your_Icon_1_">
	<path fill="#8792A4" d="M706.112,101.962l-28.817-51.916c-2.056-3.706-5.422-3.706-7.481-0.003l-28.858,51.921
		c-2.059,3.705-0.275,6.734,3.961,6.734h57.229C706.383,108.699,708.167,105.668,706.112,101.962z M677.372,101.189h-7.681v-7.68
		h7.681V101.189z M677.744,70.558l-1.73,18.695h-4.966l-1.731-18.695v-6.889h8.426V70.558L677.744,70.558z"/>
</g>
<g>
	<path fill="#8792A4" d="M1068.746,99.066c2.292,2.295,2.292,5.964-0.094,8.349c-2.293,2.294-6.056,2.294-8.439,0l-14.681-15.689
		l-13.763,16.607c-1.286,1.376-3.67,1.468-4.954,0l-3.488-3.578c-1.468-1.378-1.468-3.669-0.091-5.046l15.873-14.772l-7.615-7.247
		c-2.57-2.386-4.037-3.121-6.056-2.479c-2.02,0.734-4.862,0.734-7.524-1.01c-5.597-3.577-5.321-10.551-5.321-10.551l0.46-0.734
		l5.779,3.764c0,0,3.58,2.201,6.331-2.02c3.118-4.954-0.367-6.973-0.367-6.973l-5.78-3.67l0.551-0.734c0,0,5.321-3.394,11.561,0.184
		c3.854,2.292,5.78,6.788,4.771,11.193c-0.551,2.66,0,3.577,2.111,5.872l7.706,7.614l8.992-9.267l6.791,6.79l-8.994,8.899
		L1068.746,99.066z M1078.012,70.899c1.101-1.102,2.937-0.918,3.944,0.092l1.01,1.01c1.101,1.102,0.918,2.751-0.092,3.761
		l-5.505,5.505c-1.102,1.103-2.752,1.193-3.853,0.093l-1.01-1.01c-1.102-1.1-1.102-2.844,0-3.945
		c0.184-0.643-0.367-1.836-1.469-2.937c-2.292-2.295-4.954-2.385-6.239-1.193l-1.833,1.927l-6.698-6.881l1.926-1.835
		c2.11-2.202-0.273-4.496-0.273-4.496c-5.873-5.872-14.132-5.687-14.132-5.687l-0.091-2.203c16.79-4.403,23.12,2.936,25.415,5.138
		l4.862,4.863c1.193,1.282-0.092,4.769,1.652,6.606C1076.36,70.532,1077.279,70.808,1078.012,70.899z M1064.524,106.315
		c1.744,0,3.12-1.377,3.12-3.118c0-1.744-1.376-3.121-3.12-3.121c-1.741,0-3.118,1.377-3.118,3.121
		C1061.406,104.939,1062.782,106.315,1064.524,106.315z"/>
</g>
<g>
	<path fill="#8792A4" d="M1168.19,109.108l-22.01-5.899l-20.428,5.475l-22.012-5.898V47.469l22.012,5.899l20.428-5.473l22.01,5.897
		V109.108z M1146.18,101.883l20.729,5.556V54.776l-20.729-5.556l-20.428,5.474l-20.729-5.555v52.663l20.729,5.554L1146.18,101.883z"
		/>
	<polygon fill="#8792A4" points="1124.495,71.905 1124.517,71.886 1124.517,59.912 1118.71,65.906 	"/>
	<polygon fill="#8792A4" points="1114.51,82.216 1106.561,73.973 1106.561,90.425 	"/>
	<polygon fill="#8792A4" points="1123.715,72.711 1106.559,54.921 1106.559,72.355 1115.29,81.41 	"/>
	<polygon fill="#8792A4" points="1117.694,64.852 1124.517,57.81 1124.517,55.955 1106.559,51.144 1106.559,53.305 	"/>
	<polygon fill="#8792A4" points="1115.378,83.424 1106.559,92.525 1106.559,100.621 1124.517,105.433 1124.517,99.355 	"/>
	<polygon fill="#8792A4" points="1124.516,73.988 1116.2,82.575 1124.516,97.068 	"/>
	<polygon fill="#8792A4" points="1126.988,70.773 1126.988,73.828 1129.366,75.021 1144.518,51.26 1138.382,52.902 	"/>
	<polygon fill="#8792A4" points="1130.382,75.528 1135.283,77.987 1144.945,69.06 1144.945,52.69 	"/>
	<polygon fill="#8792A4" points="1144.946,70.593 1136.36,78.524 1144.946,82.828 	"/>
	<polygon fill="#8792A4" points="1126.988,68.672 1131.455,61.667 1126.988,59.428 	"/>
	<polygon fill="#8792A4" points="1128.014,101.955 1130.187,104.577 1144.946,100.621 1144.946,94.41 	"/>
	<polygon fill="#8792A4" points="1126.988,75.445 1126.988,100.716 1127.228,101.006 1144.946,93.11 1144.946,84.443 	"/>
	<polygon fill="#8792A4" points="1132.237,60.442 1136.767,53.335 1126.988,55.955 1126.988,57.812 	"/>
	<polygon fill="#8792A4" points="1126.988,102.998 1126.988,105.433 1128.638,104.992 	"/>
	<polygon fill="#8792A4" points="1155.472,94.699 1147.417,93.973 1147.417,100.621 1165.37,105.433 1165.37,104.965 	"/>
	<polygon fill="#8792A4" points="1147.417,86.345 1147.417,92.672 1154.099,93.273 	"/>
	<polygon fill="#8792A4" points="1165.37,84.462 1149.61,68.118 1147.417,68.969 1147.417,84.73 1165.37,103.348 	"/>
	<polygon fill="#8792A4" points="1147.417,67.437 1165.37,60.466 1165.37,55.955 1147.417,51.145 	"/>
	<polygon fill="#8792A4" points="1150.742,67.677 1165.37,82.844 1165.37,61.998 	"/>
</g>
<rect x="1193.328" y="104.321" fill="#8792A4" width="61.601" height="3.423"/>
<circle fill="#8792A4" cx="1208.728" cy="61.542" r="8.556"/>
<path fill="#8792A4" d="M1198.461,61.542c0-0.289,0.02-0.574,0.043-0.856h-5.176v1.711h5.177
	C1198.481,62.116,1198.461,61.831,1198.461,61.542z"/>
<path fill="#8792A4" d="M1202.102,53.707l-3.892-3.892l-1.21,1.21l3.892,3.892C1201.261,54.481,1201.666,54.075,1202.102,53.707z"/>
<path fill="#8792A4" d="M1208.728,51.276c0.289,0,0.573,0.02,0.856,0.043v-5.176h-1.711v5.177
	C1208.154,51.296,1208.439,51.276,1208.728,51.276z"/>
<path fill="#8792A4" d="M1216.564,54.916l3.426-3.426l-1.21-1.21l-3.426,3.426C1215.79,54.075,1216.194,54.48,1216.564,54.916z"/>
<path fill="#8792A4" d="M1215.354,69.378l3.426,3.426l1.21-1.21l-3.426-3.426C1216.195,68.604,1215.79,69.01,1215.354,69.378z"/>
<path fill="#8792A4" d="M1218.951,60.687c0.023,0.282,0.043,0.566,0.043,0.856c0,0.29-0.02,0.574-0.043,0.856h5.177v-1.711
	L1218.951,60.687L1218.951,60.687z"/>
<path fill="#8792A4" d="M1208.728,71.809c-0.289,0-0.574-0.02-0.856-0.043v5.176h1.711v-5.177
	C1209.302,71.789,1209.017,71.809,1208.728,71.809z"/>
<path fill="#8792A4" d="M1200.892,68.168L1197,72.06l1.21,1.21l3.892-3.892C1201.666,69.01,1201.261,68.604,1200.892,68.168z"/>
<path fill="#8792A4" d="M1198.461,92.343h-3.422c-0.944,0-1.711,0.765-1.711,1.711v6.844h6.844v-6.844
	C1200.172,93.108,1199.406,92.343,1198.461,92.343z"/>
<path fill="#8792A4" d="M1212.15,82.076h-3.422c-0.945,0-1.711,0.765-1.711,1.711v17.111h6.844l-0.001-17.111
	C1213.861,82.842,1213.094,82.076,1212.15,82.076z"/>
<path fill="#8792A4" d="M1225.839,85.498h-3.422c-0.944,0-1.711,0.766-1.711,1.711l0.001,13.689h6.844V87.21
	C1227.551,86.263,1226.784,85.498,1225.839,85.498z"/>
<path fill="#8792A4" d="M1239.528,72.665h-3.422c-0.944,0-1.711,0.765-1.711,1.711l0.001,26.522h6.844V74.376
	C1241.24,73.43,1240.473,72.665,1239.528,72.665z"/>
<path fill="#8792A4" d="M1253.217,52.131h-3.423c-0.944,0-1.711,0.766-1.711,1.711v47.056h6.845V53.842
	C1254.928,52.897,1254.162,52.131,1253.217,52.131z"/>
</svg>
