<?xml version="1.0" encoding="utf-8"?>
<!-- Generator: Adobe Illustrator 17.0.2, SVG Export Plug-In . SVG Version: 6.00 Build 0)  -->
<!DOCTYPE svg PUBLIC "-//W3C//DTD SVG 1.1//EN" "http://www.w3.org/Graphics/SVG/1.1/DTD/svg11.dtd">
<svg version="1.1" id="Layer_1" xmlns="http://www.w3.org/2000/svg" xmlns:xlink="http://www.w3.org/1999/xlink" x="0px" y="0px"
	 width="71.275px" height="63.283px" viewBox="1551.561 45.921 71.275 63.283"
	 enable-background="new 1551.561 45.921 71.275 63.283" xml:space="preserve">
<path id="wy_1_" fill="#FFFFFF" stroke="#8792A4" stroke-width="0.8" stroke-linejoin="round" stroke-miterlimit="1" d="
	M1578.53,66.585c-0.157,2.259-0.312,4.518-0.464,6.777c-2.966-0.234-5.91-0.567-8.857-0.969c0.187-1.262,0.373-2.525,0.558-3.788
	c0.189-1.289-0.119-3.012,1.327-2.811C1573.564,66.137,1576.044,66.398,1578.53,66.585z"/>
<path id="wv_2_" fill="#FFFFFF" stroke="#8792A4" stroke-width="0.8" stroke-linejoin="round" stroke-miterlimit="1" d="
	M1609.418,73.811c-0.004,0.285,0.099,0.593,0.146,0.875c0.335-0.472,0.598-0.806,1.058-0.781c0.292,0.016,0.258-0.383,0.604-0.334
	c0.352,0.05,0.642,0.794,0.381,0.741c-1.96-0.397-2.212,5.714-5.103,3.588c-0.783-0.576-0.896-1.67-0.126-2.262
	c0.218-0.168,0.902-0.829,1.033-1.041c0.283-0.456,0.149-1.97,0.413-2.09c0.09,0.514,0.18,1.028,0.27,1.542
	C1608.536,73.971,1608.977,73.891,1609.418,73.811"/>
<path id="wi_2_" fill="#FFFFFF" stroke="#8792A4" stroke-width="0.8" stroke-linejoin="round" stroke-miterlimit="1" d="
	M1594.367,70.544c-0.502-0.229-0.168-1.628-0.609-2.068c-0.712-0.711-1.927-0.902-1.71-2.099c0.088-0.489-0.239-0.328-0.239-0.709
	c0-0.527,0.69-0.491,0.669-1.021c-0.027-0.678,1.617-1.454,1.707-1.214c-0.081,0.158-0.136,0.325-0.167,0.5
	c0.44,0.082,3.402,0.859,3.412,1.033c-0.011-0.193,1.175,2.371,0.38,2.164c0.177,0.046,0.367-0.524,0.509-0.585
	c-0.192,0.082-0.045,3.617,0.023,4.057C1597.156,70.706,1595.337,71.198,1594.367,70.544
	C1594.237,70.485,1594.431,70.587,1594.367,70.544z"/>
<path id="wa_5_" fill="#FFFFFF" stroke="#8792A4" stroke-width="0.8" stroke-linejoin="round" stroke-miterlimit="1" d="
	M1556.569,60.739c-0.654-0.213-0.972-0.303-0.802-0.994c-0.118,0.316-0.069,0.401,0.146,0.255c-0.013-0.252-0.034-0.504-0.063-0.755
	c0.115,0.073,0.237,0.076,0.365,0.01c-0.201-0.298-0.315-0.34-0.344-0.125c-0.099-0.787,0.12-1.686,0-2.459
	c0.361,0.243,1.778,1.397,2.011,0.99c0.006,0.156-0.076,1.368,0.08,1.404c0.507,0.116,0.232-2.653,0.316-2.748
	c1.984,0.534,3.974,1.04,5.987,1.454c0.589,0.121-0.683,3.99-0.589,5.016c-1.126-0.232-2.151-0.525-3.3-0.466
	c-0.901,0.047-2.002-0.545-2.816-0.337C1556.633,62.222,1557.109,61.021,1556.569,60.739"/>
<path id="vt" fill="#FFFFFF" stroke="#8792A4" stroke-width="0.8" stroke-linejoin="round" stroke-miterlimit="1" d="
	M1617.087,62.849c0.23,0.873-1.091,3.322-0.135,4.053c-1.647,0.927-1.48-2.496-2.001-3.48
	C1615.663,63.231,1616.375,63.04,1617.087,62.849"/>
<g id="va">
	
		<path id="va_eastern_shore" fill="#FFFFFF" stroke="#8792A4" stroke-width="0.8" stroke-linejoin="round" stroke-miterlimit="1" d="
		M1614.977,76.858c-0.063,0.138-0.126,0.277-0.189,0.415c-0.19-0.694-0.098-1.319,0.458-1.592
		C1615.167,76.075,1615.078,76.468,1614.977,76.858C1614.942,77.067,1615.075,76.278,1614.977,76.858z"/>
	<path id="va_mainland" fill="#FFFFFF" stroke="#8792A4" stroke-width="0.8" stroke-linejoin="round" stroke-miterlimit="1" d="
		M1604.822,79.938c3.408-0.452,6.774-1.039,10.141-1.73c-0.366-0.478-0.509-1.305-0.666-1.511c-0.465-0.856-1.18-0.598-1.692-1.113
		c0.274-0.551-0.069-1.697-0.852-1.544c0.013,0.676-0.76-0.495-0.911,0.433c-0.074,0.455-0.667,1.527-1.158,1.345
		c-0.258-0.096-0.646,1.421-0.637,1.653c0.02,0.505-1.011,0.792-1.405,0.826c-1.193,0.051-0.448-0.074-1.534,0.456
		c-0.537,0.316-0.517,0.871-1.284,1.185"/>
</g>
<path id="ut" fill="#FFFFFF" stroke="#8792A4" stroke-width="0.8" stroke-linejoin="round" stroke-miterlimit="1" d="
	M1571.73,72.737c-0.285,2.254-0.569,4.508-0.854,6.762c-0.748-0.098-6.648-0.777-6.574-1.19c0.49-2.736,0.979-5.472,1.468-8.209
	c0.815,0.16,1.636,0.296,2.458,0.42c1.542,0.231,1.201,0.384,0.981,1.873C1570.049,72.508,1570.889,72.623,1571.73,72.737"/>
<path id="tx" fill="#FFFFFF" stroke="#8792A4" stroke-width="0.8" stroke-linejoin="round" stroke-miterlimit="1" d="
	M1591.72,91.461c0.215,1.907-1.288,0.903-1.721,1.522c-0.269,0.384-1.835,2.339-2.16,2.021c-0.518,0.262-1.389,0.895-1.451,1.456
	c-0.101,0.916,0.204,2.072,0.023,2.91c-1.247-0.404-3.068-0.715-3.203-2.34c-0.093-1.121-1.844-3.757-2.797-4.32
	c-0.845-0.499-1.697-0.202-2.229,0.555c-0.584,0.83-0.936,0.297-1.696-0.283c-0.865-0.661-0.735-1.72-1.443-2.457
	c-0.362-0.376-1.922-1.661-1.855-2.209c1.696,0.196,3.404,0.313,5.108,0.425c0.132-2.018,0.296-4.032,0.421-6.05
	c0.095-1.545-0.209-1.606,1.356-1.517c0.946,0.053,1.892,0.107,2.839,0.112c-0.028,0.901-0.056,1.801-0.084,2.702
	c-0.01,0.334,0.484,1.505,0.863,0.797c0.633,0.407,2.477,1.392,3.065,1.243c0.716-0.182,1.037-0.081,1.814-0.229
	c0.995-0.19,1.365,0.547,2.225,0.502C1591.1,86.282,1591.654,91.018,1591.72,91.461C1591.721,91.47,1591.681,91.199,1591.72,91.461z
	"/>
<path id="tn_2_" fill="#FFFFFF" stroke="#8792A4" stroke-width="0.8" stroke-linejoin="round" stroke-miterlimit="1" d="
	M1596.397,83.028c0.144-0.46,0.29-1.685,0.599-1.954c0.277-0.411,1.999,0.043,1.974-0.406c-0.007-0.132,7.59-0.963,8.52-1.092
	c-0.158,0.792-3.241,3.196-3.812,3.269c-2.512,0.317-5.032,0.555-7.556,0.75C1596.207,83.444,1596.39,83.203,1596.397,83.028z"/>
<path id="sd" fill="#FFFFFF" stroke="#8792A4" stroke-width="0.8" stroke-linejoin="round" stroke-miterlimit="1" d="
	M1578.68,65.006c-0.078,1.134-0.189,2.128-0.268,3.27c-0.13,1.863-0.099,1.716,1.705,1.814c2.716,0.146,5.174,0.038,7.521,1.039
	c-0.401-1.074-0.021-2.264-0.029-3.468c-0.006-0.849-0.651-1.815-0.134-2.352C1584.536,65.294,1581.612,65.195,1578.68,65.006z"/>
<path id="sc" fill="#FFFFFF" stroke="#8792A4" stroke-width="0.8" stroke-linejoin="round" stroke-miterlimit="1" d="
	M1609.804,87.044c-0.64-0.511-1.363-1.44-1.85-2.131c-0.499-0.475-2.601-1.764-1.984-2.381c0.347-0.611,3.118-1.115,3.199-0.198
	c0.476,0.035,1.048-0.338,1.511-0.24c0.559,0.118,1.308,0.933,1.781,1.271c-0.732,0.737-0.98,2.794-2.366,2.823
	c0.164,0.023,0.23,0.121,0.199,0.293c-0.17,0.154-0.338,0.098-0.505-0.167C1610.171,86.675,1609.892,86.682,1609.804,87.044"/>
<path id="ri" fill="#FFFFFF" stroke="#8792A4" stroke-width="0.8" stroke-linejoin="round" stroke-miterlimit="1" d="
	M1618.317,69.018C1619.284,68.307,1617.953,66.821,1618.317,69.018"/>
<path id="pa" fill="#FFFFFF" stroke="#8792A4" stroke-width="0.8" stroke-linejoin="round" stroke-miterlimit="1" d="
	M1614.909,72.175c0.114-0.113,0.216-0.236,0.307-0.369c-0.709-0.383-1.085-1.356-0.411-1.965c-0.913-1.181-1.991-0.665-3.299-0.389
	c-0.76,0.16-3.097,0.981-3.224,0.17c-1.532,0.654-0.416,3.128-0.188,4.428C1610.159,73.676,1613.492,73.595,1614.909,72.175"/>
<path id="or" fill="#FFFFFF" stroke="#8792A4" stroke-width="0.8" stroke-linejoin="round" stroke-miterlimit="1" d="
	M1555.725,60.453c-0.464,2.123-2.739,4.815-2.292,6.773c2.89,0.768,5.765,1.542,8.69,2.167c0.231-1.109,0.724-2.376,0.823-3.48
	c0.05-0.543-0.287-0.537,0.307-1.198c0.816-0.907,0.454-1.05,0.422-1.928c-0.916-0.969-3.915-0.234-4.96-0.608
	c-0.572-0.205-1.883,0.034-1.813-0.823C1556.964,60.598,1555.957,60.61,1555.725,60.453"/>
<path id="ok_2_" fill="#FFFFFF" stroke="#8792A4" stroke-width="0.8" stroke-linejoin="round" stroke-miterlimit="1" d="
	M1590.444,83.209c0.007,1.003,0.013,2.006,0.02,3.009c-0.579-0.429-1.183-0.558-1.893-0.422c-0.777,0.149-1.099,0.047-1.814,0.229
	c-0.588,0.15-2.432-0.835-3.065-1.243c-0.38,0.708-0.873-0.462-0.863-0.797c0.028-0.901,0.056-1.801,0.084-2.702
	c-1.346-0.006-2.691-0.103-4.035-0.179c-0.047-0.216-0.021-0.646,0.052-0.855c2.188,0.148,4.392,0.25,6.586,0.25
	c1.178,0,2.357,0.011,3.535-0.011c0.844-0.016,1.074-0.261,1.096,0.605C1590.164,81.808,1590.412,82.491,1590.444,83.209z"/>
<path id="oh" fill="#FFFFFF" stroke="#8792A4" stroke-width="0.8" stroke-linejoin="round" stroke-miterlimit="1" d="
	M1603.864,71.237c1.451,1.018,2.4-0.471,3.574-0.98c0.458,2.671,0.154,4.508-1.636,6.429c-0.602-0.669-1.717,0.198-2.19-0.421
	c-0.136-0.179-0.89-0.466-0.884-0.416c-0.062-0.524-0.124-1.047-0.186-1.571c-0.105-0.888-0.21-1.775-0.315-2.663
	C1602.208,71.446,1603.58,71.296,1603.864,71.237"/>
<g id="ny">
	<path id="ny_1_" fill="#FFFFFF" stroke="#8792A4" stroke-width="0.8" stroke-linejoin="round" stroke-miterlimit="1" d="
		M1616.003,67.1c-0.155,1.231,0.623,2.536-0.061,3.501c-0.049-0.251-0.194-0.696-0.194-0.911c0.053,0.115,0.162,0.377,0.183,0.515
		c-1.008-0.286-1.425-0.57-2.157-1.25c-0.707-0.17-2.335,0.518-3.035,0.656c-0.608,0.12-2.404,0.814-2.456,0.01
		c-0.024-0.37,1.376-0.936,0.818-1.495c0.263-0.359-0.859-0.33,0.558-0.706c0.518-0.314,3.426,0.111,2.213-1.65
		c0.583-1.399,1.38-1.919,2.853-2.291C1614.993,63.412,1615.913,66.689,1616.003,67.1"/>
	<path id="long_island_5_" fill="#FFFFFF" stroke="#8792A4" stroke-width="0.8" stroke-linejoin="round" stroke-miterlimit="1" d="
		M1616.16,70.487c-0.029,0.053-0.382,0.267-0.2,0.373c0.797-0.184,1.782-0.751,2.352-1.365c-0.124,0.083-0.621,0.411-0.76,0.429
		c0.108-0.157,0.201-0.321,0.28-0.494C1617.419,69.878,1616.422,69.994,1616.16,70.487z"/>
</g>
<path id="nv_1_" fill="#FFFFFF" stroke="#8792A4" stroke-width="0.8" stroke-linejoin="round" stroke-miterlimit="1" d="
	M1563.04,81.136c-0.08,0.187-0.132,0.381-0.156,0.583c-1.709-2.521-3.432-5.032-5.156-7.544c-0.661-0.963-0.157-1.831,0.11-2.931
	c0.209-0.862,0.418-1.724,0.627-2.586c0.047-0.194,1.722,0.311,1.99,0.374c1.208,0.284,2.431,0.531,3.648,0.766
	c1.933,0.374,1.674,0.266,1.335,2.16c-0.349,1.952-0.699,3.905-1.048,5.857c-0.114,0.635-0.066,1.554-0.412,2.074
	c-0.33,0.495-0.375-0.285-0.771-0.099C1562.856,79.957,1563.087,80.862,1563.04,81.136C1563,81.365,1563.061,81.011,1563.04,81.136z
	"/>
<path id="nm_1_" fill="#FFFFFF" stroke="#8792A4" stroke-width="0.8" stroke-linejoin="round" stroke-miterlimit="1" d="
	M1575.669,88.544c-0.828-0.068-1.655-0.134-2.48-0.229c-0.035,0.283,0.096,0.216,0.218,0.394c-0.888-0.096-2.666-0.838-2.537,0.49
	c-0.328,0.027-0.891-0.04-1.202-0.145c0.331-2.617,0.662-5.233,0.993-7.85c0.109-0.864-0.17-1.75,0.788-1.637
	c1.201,0.142,2.401,0.28,3.606,0.391c0.967,0.089,1.935,0.171,2.904,0.231c1.341,0.084,0.882,0.512,0.817,1.571
	c-0.144,2.328-0.325,4.652-0.478,6.979C1577.42,88.682,1576.544,88.622,1575.669,88.544z"/>
<path id="nj" fill="#FFFFFF" stroke="#8792A4" stroke-width="0.8" stroke-linejoin="round" stroke-miterlimit="1" d="
	M1614.909,72.175c-0.608,1.385,0.193,0.852,0.615,1.729c0.411-0.652,1.166-2.576,0.177-2.719c-0.029-0.341,0.423-2.014-0.896-1.344
	c-0.673,0.61-0.298,1.582,0.411,1.965C1615.125,71.939,1615.023,72.062,1614.909,72.175"/>
<path id="nh" fill="#FFFFFF" stroke="#8792A4" stroke-width="0.8" stroke-linejoin="round" stroke-miterlimit="1" d="
	M1618.859,66.121c-1.16,1.219-2.53,0.772-2.088-1.006c0.178-0.717,0.092-2.504,0.671-2.87
	C1617.839,63.449,1618.687,65.022,1618.859,66.121z"/>
<path id="ne_3_" fill="#FFFFFF" stroke="#8792A4" stroke-width="0.8" stroke-linejoin="round" stroke-miterlimit="1" d="
	M1588.526,74.352c0-2.393-1.412-4.054-3.631-4.087c-2.203-0.034-4.405-0.127-6.601-0.299c-0.074,1.101-0.148,2.201-0.223,3.302
	c-0.013,0.2,2.262,0.233,2.51,0.245c-0.029,0.568-0.059,1.136-0.088,1.704c2.873,0.146,5.741,0.184,8.617,0.156
	C1588.925,75.25,1588.535,74.562,1588.526,74.352C1588.526,74.261,1588.535,74.553,1588.526,74.352z"/>
<path id="nd" fill="#FFFFFF" stroke="#8792A4" stroke-width="0.8" stroke-linejoin="round" stroke-miterlimit="1" d="
	M1586.703,60.171c-0.333,1.581,0.889,3.532,0.771,5.137c-2.938-0.014-5.862-0.113-8.794-0.302c0.119-1.705,0.249-3.41,0.354-5.116
	v0.042C1581.487,59.819,1584.168,60.197,1586.703,60.171"/>
<path id="nc" fill="#FFFFFF" stroke="#8792A4" stroke-width="0.8" stroke-linejoin="round" stroke-miterlimit="1" d="
	M1614.941,78.208c0.135,0.118,0.407,0.482,0.416,0.67c-0.227,0.067-0.951,0.416-1.206,0.247c0.162,0.088,1.067,0.335,1.295,0.014
	c0.928,0.987-0.934,1.127-1.374,1.092c0.514,0.098,1.158,0.821,0.276,0.821c0.069-0.03,0.825-0.332,0.825-0.11
	c-0.547,0.828-1.542,0.853-1.828,1.995c-0.343,1.37-2.373-0.887-2.823-0.816c-1.339,0.212-1.933-0.491-3.305-0.152
	c-0.974,0.144-1.872,0.652-2.915,0.799c0.11-0.819,3.065-3.17,3.678-3.267c2.341-0.369,4.662-0.815,6.983-1.291"/>
<path id="mt" fill="#FFFFFF" stroke="#8792A4" stroke-width="0.8" stroke-linejoin="round" stroke-miterlimit="1" d="
	M1579.034,59.89c-0.138,2.234-0.31,4.466-0.463,6.699c-1.382-0.104-2.766-0.209-4.143-0.372c-1.057-0.125-4.49-1.202-4.355,0.289
	c-0.388-0.357-1.112-0.436-1.895-0.282c-0.833,0.164-0.753-1.619-1.168-2.25c-1.254,0.687-0.303-1.26-0.177-1.688
	c-0.694-0.038-1.647-2.003-1.526-2.601c0.368-1.827,0.283-1.615,1.964-1.307c0.915,0.168,1.835,0.312,2.752,0.469
	C1572.996,59.354,1576.026,59.676,1579.034,59.89"/>
<path id="ms_2_" fill="#FFFFFF" stroke="#8792A4" stroke-width="0.8" stroke-linejoin="round" stroke-miterlimit="1" d="
	M1595.942,83.966c0.341-0.764,2.415-0.544,3.249-0.63c-0.036,1.898-0.284,3.905-0.031,5.789c0.12,0.891,0.763,2.095-0.356,2.101
	c-1.176,0.006-1.13,0.773-1.369-0.921c-0.924,0.063-1.848,0.125-2.772,0.188c0.104-0.787,0.757-1.424,0.819-2.146
	c0.055-0.643-0.337-1.276-0.319-1.97C1594.774,85.873,1595.775,84.402,1595.942,83.966z"/>
<path id="mn_2_" fill="#FFFFFF" stroke="#8792A4" stroke-width="0.8" stroke-linejoin="round" stroke-miterlimit="1" d="
	M1587.109,65.892c0-0.233,0.307-0.257,0.355-0.468c0.124-0.548-0.231-1.504-0.303-2.053c-0.12-0.91-0.649-2.295-0.459-3.199
	c0.747,0,2.527,0.408,2.313-0.646c0.78,0.344,0.211,1.084,1.237,1.199c0.653,0.073,1.317-0.091,1.872,0.497
	c0.344,0.364,2.554,0.284,3.298,0.284c-0.367,0.589-1.501,0.961-2.031,1.538c-0.474,0.515-0.886,1.918-1.259,2.099
	c-1.557,0.758,1.676,3.378,1.873,4.084c-2.127,0.13-4.257,0.198-6.387,0.208C1587.613,68.363,1588.035,66.588,1587.109,65.892z"/>
<path id="mo_1_" fill="#FFFFFF" stroke="#8792A4" stroke-width="0.8" stroke-linejoin="round" stroke-miterlimit="1" d="
	M1597.133,80.958c-0.075,0.571-0.425,1.088-1.125,0.959c-0.096-0.21,0.671-0.925-0.073-0.877c-0.768,0.049-1.535,0.106-2.303,0.148
	c-0.977,0.053-3.468,0.619-3.496-0.5c-0.031-1.25,0.102-2.601-0.089-3.834c-0.786-0.492-0.162-0.842-0.412-1.235
	c-0.265-0.418-1.103-0.534-1.11-1.266c1.102,0.008,2.193-0.003,3.293-0.068c0.538-0.031,1.069-0.067,1.605-0.127
	c0.816-0.091,0.583,1.439,1.274,1.907c1.203,0.816,0.696,1.571,1.571,2.601c0.671-0.183,0.597,0.959,0.855,1.297
	C1597.597,80.584,1597.169,80.328,1597.133,80.958z"/>
<g id="mi">
	<path id="mi_upper" fill="#FFFFFF" stroke="#8792A4" stroke-width="0.8" stroke-linejoin="round" stroke-miterlimit="1" d="
		M1594.643,63.964c0.676-0.438,1.36-0.581,1.907-1.219c0.041,0.143,0.266,0.318,0.331,0.501c-0.059-0.194-0.06-0.13-0.004,0.193
		c0.739-0.729,0.923,0.269,1.633,0.326c0.798,0.065,1.602-0.805,2.385-0.739c0.274,0.683,1.18,0.277,1.469,1.156
		c-1.017,0.301-2.777-0.139-3.513,0.888c-0.081-0.091-0.11-0.202-0.088-0.332c-0.21,0.473-0.413,0.95-0.598,1.434
		c-0.009-0.003-0.733-1.175-0.735-1.207C1597.422,64.826,1595.065,64.175,1594.643,63.964"/>
	<path id="mi_lower_5_" fill="#FFFFFF" stroke="#8792A4" stroke-width="0.8" stroke-linejoin="round" stroke-miterlimit="1" d="
		M1602.218,71.529c1.444-0.22,2.76-1.295,2.606-2.548c-0.062-0.505-0.669-2.562-1.331-1.336c-0.607,1.124-0.871-0.394-0.174-0.75
		c1.713-0.875-3.269-3.288-2.132-1.524c-2.679-0.225-0.341,5.476-1.522,6.346c0.849-0.074,1.693-0.187,2.539-0.289"/>
</g>
<path id="ma" fill="#FFFFFF" stroke="#8792A4" stroke-width="0.8" stroke-linejoin="round" stroke-miterlimit="1" d="
	M1618.786,68.122c0.156,0.061,0.309,0.16,0.318,0.345c0.088-0.091,0.355-0.458,0.463-0.491c0.49,0.587,1.38-0.71,0.358-0.758
	c0.89,1.164-0.937,0.161-1.106-0.186c0.085-0.079,0.405-0.572,0.376-0.601c-0.147-0.139-2.854,0.217-3.193,0.669
	C1614.687,68.857,1618.362,67.745,1618.786,68.122"/>
<path id="md" fill="#FFFFFF" stroke="#8792A4" stroke-width="0.8" stroke-linejoin="round" stroke-miterlimit="1" d="
	M1612.669,74.519c0.017-0.218,0.252,0.968,0.095,0.876c0.542,0.069,0.578-0.057,1.176,0.326c-0.146-0.264-0.297-0.578-0.417-0.87
	c-0.17-0.414,0.3-1.516,0.328-1.456c0.154,0.339-0.015,1.101,0.128,1.547c0.148,0.462,0.344,0.056,0.637,0.473
	c0.403,0.574,0.804,0.4,0.835-0.645c-0.899,0.499-0.884-0.155-1.079-0.865c-0.301-1.096-0.158-1.069-1.262-0.833
	c-1.02,0.218-4.233,0.206-3.546,1.614C1610.68,73.116,1611.33,73.948,1612.669,74.519"/>
<path id="me" fill="#FFFFFF" stroke="#8792A4" stroke-width="0.8" stroke-linejoin="round" stroke-miterlimit="1" d="
	M1617.441,62.245c0.776-0.642,0.341-1.897,0.65-2.81c0.279-0.824,1-1.871,1.994-1.23c0.088,0.056,1.39,2.642,1.413,2.486
	c0.28,0.379,0.714,0.709,0.832,0.9c0.205,0.332-1.754,1.44-1.772,1.442c0.064-0.123,0.029-0.238-0.104-0.344
	c0.022,0.36-0.514,1.3-0.506,1.318c-0.222,0.333-0.742,0.217-0.76,0.581c-0.228,0.312-0.087,0.88-0.276,1.209
	C1618.029,65.021,1617.798,63.324,1617.441,62.245"/>
<path id="la_1_" fill="#FFFFFF" stroke="#8792A4" stroke-width="0.8" stroke-linejoin="round" stroke-miterlimit="1" d="
	M1597.842,91.659c-0.092,0.029-1.474-0.558-1.29,0.066c0.161,0.545,0.742-0.107,0.977,0.129c-0.003,0.088-0.048,0.138-0.135,0.149
	c0.261,0.203,0.563-0.141,0.659,0.043c0.166,0.32-0.247,0.481-0.325,0.519c-0.172,0.245,0.821,0.564,0.919,0.709
	c-0.004,0.109-0.043,0.203-0.118,0.281c-0.541-0.235-1.026-0.57-1.572-0.791c0.043,0.082,0.436,0.857-0.021,0.813
	c0.038,0.004-0.308-0.391-0.302-0.375c-0.341,0.038-0.73,0.767-1.047,0.068c-0.66-1.46-3.01,0.206-3.972-0.493
	c-0.154-0.112,0.13-1.1,0.106-1.315c-0.113-0.761,0.109-1.256-0.243-2.093c-0.545-1.292-0.816-2.122,0.761-2.178
	c0.638-0.023,2.476-0.461,2.905-0.147c0.984,0.721-0.379,2.686-0.479,3.449c0.924-0.063,1.848-0.125,2.772-0.188
	C1597.512,90.847,1597.273,91.188,1597.842,91.659"/>
<path id="ky_1_" fill="#FFFFFF" stroke="#8792A4" stroke-width="0.8" stroke-linejoin="round" stroke-miterlimit="1" d="
	M1597.133,80.958c1.965-0.167,3.399-0.528,5.523-0.76c2.376-0.259,2.487-0.853,4.154-2.108c-1.136-0.737-0.832-1.849-2.301-1.702
	c-0.353,0.035-1.714-0.643-1.807-0.406c-0.056,0.143,0.051,0.861-0.419,0.645c0.556,0.256-2.304,1.902-2.223,1.754
	c-0.185,0.337-1.394-0.35-1.316,0.587c0.014,0.169-0.337,0.577-0.374,0.826c-0.188,0.245-0.6-0.286-0.743-0.105
	C1597.548,79.733,1597.13,81.006,1597.133,80.958"/>
<path id="ks" fill="#FFFFFF" stroke="#8792A4" stroke-width="0.8" stroke-linejoin="round" stroke-miterlimit="1" d="
	M1589.11,75.374c1.038,1.149,0.975,3.086,1.021,5.095c-3.3,0.062-6.591,0.01-9.888-0.135c0.083-1.705,0.167-3.411,0.25-5.116
	C1583.365,75.364,1586.234,75.401,1589.11,75.374"/>
<path id="in" fill="#FFFFFF" stroke="#8792A4" stroke-width="0.8" stroke-linejoin="round" stroke-miterlimit="1" d="
	M1599.665,71.716c0.849-0.074,1.693-0.187,2.539-0.289c0.091,0.768,1.108,4.686,0.393,5.148c-0.154,0.323-1.103,0.556-1.079,1.273
	c0.005,0.146-2.375,0.72-2.737,0.734c-0.061-0.983,0.503-1.781,0.408-2.792c-0.122-1.303-0.244-2.605-0.366-3.908
	C1599.143,72.051,1599.424,71.996,1599.665,71.716"/>
<path id="il_1_" fill="#FFFFFF" stroke="#8792A4" stroke-width="0.8" stroke-linejoin="round" stroke-miterlimit="1" d="
	M1594.049,74.54c0.095-0.195,0.472-1.8,0.441-1.775c0.722-0.571,1.575-1.123,0.341-1.914c1.119-0.065,2.234-0.138,3.351-0.236
	c0.733-0.064,0.857,3.587,0.902,4.066c0.184,1.957-0.478,3.523-0.712,5.115c-0.315,0.41-0.577-0.436-0.905,0.308
	c-0.437-0.417-1.981-2.004-1.657-2.605C1596.144,76.883,1593.406,75.813,1594.049,74.54"/>
<path id="id_1_" fill="#FFFFFF" stroke="#8792A4" stroke-width="0.8" stroke-linejoin="round" stroke-miterlimit="1" d="
	M1562.123,69.393c2.436,0.5,4.876,0.944,7.336,1.313c0.129-0.882,1.002-3.45,0.615-4.199c-0.388-0.357-1.112-0.436-1.895-0.282
	c-0.833,0.164-0.753-1.619-1.168-2.25c-1.112,0.609-0.492-0.84-0.32-1.287c0.205-0.532-0.838-1.43-1.201-2.026
	c-0.317,0.056,0.94-2.957-0.948-2.834c-0.306,1.483-0.937,3.695-0.896,4.856c0.484,0.634,0.261,0.923-0.077,1.546
	c-0.182,0.335-0.631,1.658-0.576,1.581C1562.351,66.703,1562.34,68.349,1562.123,69.393"/>
<path id="ia_1_" fill="#FFFFFF" stroke="#8792A4" stroke-width="0.8" stroke-linejoin="round" stroke-miterlimit="1" d="
	M1587.62,69.434c0.844-0.004,6.389-0.524,6.533,0.063c0.276,1.12,0.961,1.062,1.333,2.079c0.36,0.98-1.07,0.856-1.094,1.495
	c-0.022,0.617,0.023,0.717-0.344,1.469c-0.937-0.83-3.488-0.173-4.814-0.183C1588.043,74.349,1587.259,70.315,1587.62,69.434"/>
<g id="hi">
	<path fill="#FFFFFF" stroke="#8792A4" stroke-width="0.8" stroke-linejoin="round" stroke-miterlimit="1" d="M1568.234,93.476
		c1.224-0.198-0.785-1.579-0.713-0.41C1567.703,93.297,1567.941,93.434,1568.234,93.476
		C1568.312,93.463,1568.08,93.434,1568.234,93.476z"/>
	<path fill="#FFFFFF" stroke="#8792A4" stroke-width="0.8" stroke-linejoin="round" stroke-miterlimit="1" d="M1574.687,96.364
		c0.116-0.009,0.881-0.146,0.761-0.385c-0.13-0.259-1.182-0.711-1.398-0.527C1573.946,95.54,1574.53,96.241,1574.687,96.364
		C1574.828,96.352,1574.54,96.248,1574.687,96.364z"/>
	<path fill="#FFFFFF" stroke="#8792A4" stroke-width="0.8" stroke-linejoin="round" stroke-miterlimit="1" d="M1576.203,99.947
		c0.381,0.255,3.123-1.567,0.472-2.531C1575.305,96.918,1575.281,99.27,1576.203,99.947"/>
	<path fill="#FFFFFF" stroke="#8792A4" stroke-width="0.8" stroke-linejoin="round" stroke-miterlimit="1" d="M1571.657,94.849
		c0.673-0.202-0.223-1.072-0.499-0.909C1570.447,94.358,1571.039,94.621,1571.657,94.849
		C1571.78,94.812,1571.516,94.797,1571.657,94.849z"/>
	<path fill="#FFFFFF" stroke="#8792A4" stroke-width="0.8" stroke-linejoin="round" stroke-miterlimit="1" d="M1573.653,95.33
		c0.187-0.012,0.264-0.107,0.232-0.285c-0.577,0.11-0.775-0.248-1.159,0.16C1573.045,95.167,1573.354,95.209,1573.653,95.33
		C1573.804,95.276,1573.462,95.291,1573.653,95.33z"/>
	<path fill="#FFFFFF" stroke="#8792A4" stroke-width="0.8" stroke-linejoin="round" stroke-miterlimit="1" d="M1573.564,96.025
		c0.503-0.169-0.07-0.443-0.321-0.375C1573.35,95.776,1573.457,95.9,1573.564,96.025
		C1573.636,96.001,1573.46,95.898,1573.564,96.025z"/>
</g>
<path id="ga_1_" fill="#FFFFFF" stroke="#8792A4" stroke-width="0.8" stroke-linejoin="round" stroke-miterlimit="1" d="
	M1604.302,82.766c0.556-0.078,1.111-0.156,1.667-0.234c-0.617,0.617,1.485,1.906,1.984,2.381c0.421,0.671,1.287,1.731,1.926,2.157
	c-0.464,0.607-0.597,1.585-0.586,2.318c-0.655-0.15-0.883,0.056-0.762,0.697c-0.297,0.058-1.803-0.185-2.414-0.141
	c-1.216,0.088-1.952,0.384-2.087-1.085c-0.191-0.982-0.219-1.542-0.508-2.517c-0.331-1.118-0.662-2.235-0.993-3.353
	C1603.121,82.915,1603.712,82.841,1604.302,82.766"/>
<g id="fl">
	<path id="fl_1_" fill="#FFFFFF" stroke="#8792A4" stroke-width="0.8" stroke-linejoin="round" stroke-miterlimit="1" d="
		M1609.293,89.388c0.472,1.513,1.498,3.017,2.305,4.335c-0.082-0.444-0.315-0.954-0.733-1.194c0.257,0.781,3.509,5.515,0.993,5.982
		c-0.912,0.169-1.866-2.135-2.555-2.735c-0.038,0.09-0.013,0.174,0.077,0.25c-1.007-0.397-0.603-1.698-0.671-1.731
		c-0.291-0.139-0.185,0.518-0.51,0.322c-0.291-0.175,0.022-1.183,0.016-1.431c-0.012-0.579-1.578-1.99-2.17-2.146
		c-0.369-0.097-1.724,1.069-1.974,0.713c-0.773-1.098-1.998-0.83-3.113-0.605c0.207-0.042-0.931-1.056-0.135-1.136
		c0.984-0.099,1.965-0.214,2.947-0.331c0.669-0.08,0.916,0.366,1.845,0.299c0.761-0.055,2.486,0.189,2.916,0.105
		C1608.411,89.445,1608.638,89.239,1609.293,89.388"/>
	<path id="fl_key_5_" fill="#FFFFFF" stroke="#8792A4" stroke-width="0.8" stroke-linejoin="round" stroke-miterlimit="1" d="
		M1612.636,98.01c-0.112,0.216-0.25,0.507-0.383,0.696C1612.442,98.512,1612.57,98.28,1612.636,98.01z"/>
</g>
<path id="de" fill="#FFFFFF" stroke="#8792A4" stroke-width="0.8" stroke-linejoin="round" stroke-miterlimit="1" d="
	M1614.086,72.863c0.079-0.27,0.221-0.353,0.427-0.25c-0.417,0.598,0.715,1.605,1.001,2.145
	C1614.277,75.439,1614.323,73.726,1614.086,72.863"/>
<path id="co" fill="#FFFFFF" stroke="#8792A4" stroke-width="0.8" stroke-linejoin="round" stroke-miterlimit="1" d="M1570.875,79.5
	c3.118,0.368,6.234,0.634,9.367,0.834c0.111-2.274,0.22-4.547,0.338-6.821c-2.546-0.125-5.102-0.556-7.643-0.629
	c-1.668-0.048-1.25,0.184-1.471,1.931C1571.27,76.376,1571.073,77.938,1570.875,79.5"/>
<path id="ct" fill="#FFFFFF" stroke="#8792A4" stroke-width="0.8" stroke-linejoin="round" stroke-miterlimit="1" d="
	M1618.067,67.871c-0.383,0.095-2.08,0.294-2.018,0.639c0.1,0.556,0.195,1.167,0.195,1.591
	C1617.035,69.255,1618.994,69.391,1618.067,67.871"/>
<path id="ca_2_" fill="#FFFFFF" stroke="#8792A4" stroke-width="0.8" stroke-linejoin="round" stroke-miterlimit="1" d="
	M1563.029,82.313c0.235,0.882-0.113,0.46-0.293,1.233c-0.014,0.061-0.664,2.036-0.348,1.836c-0.682,0.433-3.361,0.005-3.861-0.495
	c0.568-2.127-4.252-3.737-3.708-4.871c0.444-0.925-2.281-4.312-1.075-5.309c-0.038,0.304,0.073,0.537,0.333,0.698
	c-0.249-0.918,0.035-1.548,0.979-0.677c-0.256-0.49-1.324-0.955-1.427-0.073c-1.167-1.098-0.839-3.148-1.018-4.634
	c-0.075-0.622,0.556-1.608,0.693-2.253c0.187-0.886,0.841-0.348,1.534-0.156c1.062,0.294,2.125,0.571,3.193,0.843
	c0.908,0.231-0.01,2.031-0.194,2.791c-0.079,0.328-0.698,2.073-0.529,2.32c0.698,1.017,1.396,2.034,2.093,3.051
	C1560.545,78.282,1562.511,80.382,1563.029,82.313C1563.052,82.396,1562.974,82.107,1563.029,82.313z"/>
<path id="az" fill="#FFFFFF" stroke="#8792A4" stroke-width="0.8" stroke-linejoin="round" stroke-miterlimit="1" d="M1570.875,79.5
	c-2.21-0.29-4.414-0.608-6.606-1.011c-0.016,0.484-0.113,0.951-0.292,1.401c-0.33,0.495-0.375-0.285-0.771-0.099
	c-0.23,0.108-0.313,1.614-0.323,1.928c0,1.136,0.569,1.429-0.408,2.432c-0.243,0.25-0.358,1.831-0.457,1.772
	c0.982,0.584,1.977,1.149,2.97,1.714c1.244,0.709,2.009,1.056,3.416,1.255c1.356,0.192,1.256,0.209,1.426-1.13
	C1570.179,85.009,1570.527,82.254,1570.875,79.5"/>
<path id="ar_1_" fill="#FFFFFF" stroke="#8792A4" stroke-width="0.8" stroke-linejoin="round" stroke-miterlimit="1" d="
	M1596.122,83.595c0.268-0.557,0.51-1.152,0.667-1.761c-0.246,0.071-0.54,0-0.781,0.083c-0.096-0.21,0.671-0.925-0.073-0.877
	c-0.723,0.046-1.445,0.093-2.168,0.139c-1.203,0.077-2.41,0.106-3.616,0.134c0.315,1.642,0.301,3.237,0.312,4.905
	c0.606,0.001,0.82,0.355,0.647,1.013c0.847-0.03,4.087,0.237,4.067-0.661C1595.154,85.505,1595.57,84.571,1596.122,83.595z"/>
<path id="al" fill="#FFFFFF" stroke="#8792A4" stroke-width="0.8" stroke-linejoin="round" stroke-miterlimit="1" d="
	M1602.531,82.99c-1.075,0.111-2.15,0.223-3.225,0.334c-0.288,0.03-0.163,2.58-0.169,2.916c-0.015,0.818-0.135,1.706-0.026,2.519
	c0.095,0.707,0.205,3.516,0.825,1.848c0.68,1.92,0.76-0.63,0.677-0.573c0.434-0.404,3.031-0.338,3.605-0.406
	c-0.293-1.193-0.355-2.066-0.667-3.188C1603.263,85.279,1602.87,84.137,1602.531,82.99"/>
<g id="ak">
	<path fill="#FFFFFF" stroke="#8792A4" stroke-width="0.8" stroke-linejoin="round" stroke-miterlimit="1" d="M1560.214,98.334
		c-0.006,0.008,0.417-0.416,0.446-0.097C1560.671,98.353,1560.17,98.535,1560.214,98.334
		C1560.281,98.242,1560.181,98.486,1560.214,98.334z"/>
	<path fill="#FFFFFF" stroke="#8792A4" stroke-width="0.8" stroke-linejoin="round" stroke-miterlimit="1" d="M1553.634,94.115
		c-0.227,0.063-0.285-0.021-0.175-0.253c0.012,0.011,1.089,0.455,0.932,0.555C1553.677,94.872,1554.2,93.984,1553.634,94.115
		C1553.438,94.29,1553.795,94.078,1553.634,94.115z"/>
	<path fill="#FFFFFF" stroke="#8792A4" stroke-width="0.8" stroke-linejoin="round" stroke-miterlimit="1" d="M1554.7,96.946
		c-0.192-0.335,0.734-0.36,0.566,0.034C1555.102,97.169,1554.914,97.158,1554.7,96.946
		C1554.658,96.872,1554.825,97.031,1554.7,96.946z"/>
	<path fill="#FFFFFF" stroke="#8792A4" stroke-width="0.8" stroke-linejoin="round" stroke-miterlimit="1" d="M1555.247,101.18
		c0.076-0.037,0.646-0.589,0.675-0.137C1555.935,101.235,1555.17,101.399,1555.247,101.18
		C1555.342,101.134,1555.211,101.283,1555.247,101.18z"/>
	<path fill="#FFFFFF" stroke="#8792A4" stroke-width="0.8" stroke-linejoin="round" stroke-miterlimit="1" d="M1560.182,99.152
		c-0.615,0.462-0.718-0.336-0.228-0.533C1560.767,98.29,1560.464,98.765,1560.182,99.152
		C1560.134,99.188,1560.254,99.054,1560.182,99.152z"/>
	<path fill="#FFFFFF" stroke="#8792A4" stroke-width="0.8" stroke-linejoin="round" stroke-miterlimit="1" d="M1553.865,101.901
		c-0.033,0.141-0.569,0.392-0.617,0.416C1553.341,102.244,1553.683,101.671,1553.865,101.901
		C1553.831,102.043,1553.735,101.737,1553.865,101.901z"/>
	<path fill="#FFFFFF" stroke="#8792A4" stroke-width="0.8" stroke-linejoin="round" stroke-miterlimit="1" d="M1553.904,102.09
		c0.036-0.042,0.387-0.516,0.616-0.502C1554.958,101.615,1553.783,102.139,1553.904,102.09z"/>
	<path fill="#FFFFFF" stroke="#8792A4" stroke-width="0.8" stroke-linejoin="round" stroke-miterlimit="1" d="M1567.082,97.171
		c-1.329-0.452,1.066-0.167,0.412-0.057C1567.244,97.156,1567.197,97.266,1567.082,97.171
		C1566.968,97.132,1567.128,97.209,1567.082,97.171z"/>
	<path fill="#FFFFFF" stroke="#8792A4" stroke-width="0.8" stroke-linejoin="round" stroke-miterlimit="1" d="M1567.662,97.025
		c-0.166-0.157-0.285-0.343-0.357-0.558c0.115,0.076,1.225,0.549,0.474,0.889C1567.803,97.223,1567.764,97.112,1567.662,97.025
		C1567.563,96.938,1567.818,97.073,1567.662,97.025z"/>
	<path fill="#FFFFFF" stroke="#8792A4" stroke-width="0.8" stroke-linejoin="round" stroke-miterlimit="1" d="M1567.721,97.766
		c-0.099-0.069-0.448-0.459-0.403-0.643C1567.693,97.167,1568.33,98.372,1567.721,97.766
		C1567.581,97.668,1567.801,97.845,1567.721,97.766z"/>
	<path fill="#FFFFFF" stroke="#8792A4" stroke-width="0.8" stroke-linejoin="round" stroke-miterlimit="1" d="M1568.175,97.866
		c-0.022-0.027-0.319-0.476-0.172-0.46C1568.303,97.439,1568.156,97.847,1568.175,97.866
		C1568.076,97.747,1568.212,97.903,1568.175,97.866z"/>
	<path fill="#FFFFFF" stroke="#8792A4" stroke-width="0.8" stroke-linejoin="round" stroke-miterlimit="1" d="M1568.364,97.636
		c-0.014-0.005-0.274-0.391-0.274-0.393C1568.28,96.828,1568.423,97.444,1568.364,97.636"/>
	<path fill="#FFFFFF" stroke="#8792A4" stroke-width="0.8" stroke-linejoin="round" stroke-miterlimit="1" d="M1568.546,97.804
		c-0.599,0.022,1.478,0.11,0.955,0.763C1569.234,98.9,1568.642,97.861,1568.546,97.804"/>
	<path fill="#FFFFFF" stroke="#8792A4" stroke-width="0.8" stroke-linejoin="round" stroke-miterlimit="1" d="M1568.857,97.505
		c0.116,0.039,0.192,0.117,0.228,0.234C1568.825,97.813,1568.749,97.735,1568.857,97.505
		C1568.902,97.558,1568.776,97.516,1568.857,97.505z"/>
	<path fill="#FFFFFF" stroke="#8792A4" stroke-width="0.8" stroke-linejoin="round" stroke-miterlimit="1" d="M1569.484,98.08
		c-0.132-0.02-0.106-0.448-0.099-0.454C1569.437,97.575,1569.85,97.899,1569.484,98.08
		C1569.338,98.058,1569.547,98.049,1569.484,98.08z"/>
	<path fill="#FFFFFF" stroke="#8792A4" stroke-width="0.8" stroke-linejoin="round" stroke-miterlimit="1" d="M1564.525,95.754
		c-0.052-0.143,1.399,0.276,1.676,0.662c0.483-0.921,0.539-0.899,1.494-0.293c0.102,0.065,3.189,1.778,2.339,2.175
		c-0.244,0.113-0.221-0.415-0.3-0.526c-0.484-0.676-0.316,0.136-0.479,0.217c0.191-0.096-1.24-1.115-1.308-1.279
		c-0.375-0.901-1.004,0.306-1.31,0.092c-0.908-0.635-1.485-0.542-2.388-0.665c-0.573-0.078-2.002,0.3-2.464-0.298
		c-0.03,0.207,0.257,0.639,0.025,0.816c-0.259,0.198-1.199,0.772-1.203,0.839c0.008-0.148,0.526-1.643,0.559-1.559
		c-0.169-0.438-1.405,1.518-1.471,1.736c1.104,1.589-3,2.445-3.668,3.346c-0.011-0.01,2.991-2.052,2.61-3.015
		c-0.084-0.21-0.464,0.362-0.662-0.084c-0.037,0.13-0.059,0.262-0.065,0.396c0.289-0.215-1.391-0.572-1.219-0.212
		c-0.108-0.224,0.25-0.876-0.128-1.05c-0.595-0.275-1.201,0.235-0.907-0.881c-0.86,0.077-0.102-1.532,0.357-1.65
		c-0.095,0.024,0.94,0,0.74-0.14c0.481,0.337,0.246-1.055,0.282-1.068c-1.044,0.38-0.199,0.062-1.024,0.216
		c-0.345,0.064-1.175-0.5-0.577-0.605c-0.191-0.051-0.349-0.15-0.474-0.299c-0.042-0.041,1.209-0.826,1.279-0.692
		c0.229,0.442,0.121,0.555,0.85,0.295c-0.385-0.172-0.789-0.965-0.994-1.195c-0.844-0.773,0.294-1.444,1.064-1.909
		c0.815-0.488,0.902-0.582,1.305-0.422c0.749,0.293,3.849-0.445,4.162,0.616C1563.259,91.464,1563.892,93.609,1564.525,95.754z"/>
</g>
<g id="lines">
	<g id="dividers">
		<path id="divider_1_" fill="none" stroke="#8792A4" stroke-width="0.8" stroke-linejoin="round" stroke-miterlimit="1" d="
			M1553.46,87.036c2.637,0,5.274,0,7.911,0c1.812,0,3.853,2.739,5.57,3.375c2.57,0.952,5.141,1.904,7.711,2.856
			c1.889,0.7,3.685,3.013,5.208,4.329"/>
		<path id="divider" fill="none" stroke="#8792A4" stroke-width="0.8" stroke-linejoin="round" stroke-miterlimit="1" d="
			M1572.54,99.636c-0.351-0.886-0.626-2.485-1.26-3.18c-0.713-0.782-2.579-1.276-3.521-1.742c-0.941-0.466-1.968-0.607-2.2-1.655
			c-0.3-1.357-0.599-2.715-0.899-4.072"/>
	</g>
</g>
</svg>
