<?xml version="1.0" encoding="utf-8"?>
<!-- Generator: Adobe Illustrator 16.0.0, SVG Export Plug-In . SVG Version: 6.00 Build 0)  -->
<!DOCTYPE svg PUBLIC "-//W3C//DTD SVG 1.1//EN" "http://www.w3.org/Graphics/SVG/1.1/DTD/svg11.dtd">
<svg version="1.1" id="Layer_1" xmlns="http://www.w3.org/2000/svg" xmlns:xlink="http://www.w3.org/1999/xlink" x="0px" y="0px"
	 width="71.138px" height="62.205px" viewBox="-267.243 47.195 71.138 62.205"
	 enable-background="new -267.243 47.195 71.138 62.205" xml:space="preserve">
<g>
	<path fill="#8792A4" d="M-234.202,60.022c0,3.234-7.396,5.854-16.521,5.854c-9.121,0-16.519-2.621-16.519-5.854
		c0-3.233,7.398-5.854,16.519-5.854C-241.598,54.169-234.202,56.789-234.202,60.022"/>
	<path fill="#8792A4" d="M-234.202,65.047"/>
	<path fill="#8792A4" d="M-234.202,71.167"/>
	<path fill="#8792A4" d="M-234.202,64.164c0,3.234-7.396,5.853-16.521,5.853c-9.121,0-16.519-2.618-16.519-5.853v6.121
		c0,3.234,7.398,5.854,16.519,5.854c9.125,0,16.521-2.62,16.521-5.854V64.164z"/>
	<path fill="#8792A4" d="M-234.202,74.995c0,3.233-7.396,5.854-16.521,5.854c-9.121,0-16.519-2.62-16.519-5.854v6.122
		c0,3.233,7.398,5.853,16.519,5.853c9.125,0,16.521-2.619,16.521-5.853V74.995z"/>
	<path fill="#8792A4" d="M-196.846,81.838c0,3.235-7.396,5.856-16.521,5.856c-9.12,0-16.518-2.621-16.518-5.856
		c0-3.23,7.398-5.852,16.518-5.852C-204.242,75.986-196.846,78.606-196.846,81.838"/>
	<path fill="#8792A4" d="M-196.846,85.981c0,3.232-7.396,5.854-16.521,5.854c-9.12,0-16.518-2.621-16.518-5.854v6.122
		c0,3.233,7.398,5.854,16.518,5.854c9.125,0,16.521-2.621,16.521-5.854V85.981z"/>
	<path fill="#8792A4" d="M-196.846,96.812c0,3.234-7.396,5.854-16.521,5.854c-9.12,0-16.518-2.619-16.518-5.854v6.12
		c0,3.235,7.398,5.856,16.518,5.856c9.125,0,16.521-2.621,16.521-5.856V96.812z"/>
	<path fill="#8792A4" d="M-234.202,85.668c0,3.232-7.396,5.853-16.521,5.853c-9.121,0-16.519-2.62-16.519-5.853v6.121
		c0,3.234,7.398,5.854,16.519,5.854c9.125,0,16.521-2.619,16.521-5.854V85.668z"/>
	<path fill="#8792A4" d="M-234.202,96.655c0,3.234-7.396,5.854-16.521,5.854c-9.121,0-16.519-2.62-16.519-5.854v6.121
		c0,3.233,7.398,5.854,16.519,5.854c9.125,0,16.521-2.621,16.521-5.854V96.655z"/>
</g>
</svg>
