<svg xmlns="http://www.w3.org/2000/svg" xmlns:xlink="http://www.w3.org/1999/xlink" version="1.1" id="Your_Icon" x="0px" y="0px" width="100px" height="100px" viewBox="0 0 100 100" style="enable-background:new 0 0 100 100;" xml:space="preserve">
<g>
	<path d="M66.422,82.759c-1.475-1.152-3.033-2.39-4.67-3.711c-0.664-3.008-1.4-6.211-2.178-9.538   c1.035-1.673,2.063-3.365,3.076-5.059c-0.898,0.18-1.804,0.352-2.725,0.521c-1.293-1.684-2.62-3.402-3.969-5.149   c-1.159-0.576-2.327-1.162-3.503-1.748c-2.746-0.978-5.521-1.967-8.234-2.943c-2.237-3.525-4.421-7.015-6.489-10.338   c-1.248-2.413-2.445-4.75-3.578-6.977c0.121-3.128,0.271-6.146,0.453-8.993c-1.756-2.96-3.324-5.603-4.721-7.956   c-2.038-0.826-3.913-1.526-5.654-2.168c-1.289,0.977-2.514,2.012-3.626,3.096c-2.031,1.832-3.727,3.821-4.912,5.918   c0.752-1.82,1.758-3.601,2.949-5.287c-0.667,0.104-1.292,0.222-1.888,0.352c-0.192-1.07-0.397-2.141-0.625-3.222   c0.745-1.211,1.611-2.363,2.559-3.444c-0.866,0.153-1.702,0.31-2.513,0.476c0.172-0.833,0.364-1.657,0.566-2.468   c0.654-0.176,1.318-0.352,1.995-0.515c-0.342-0.533-0.723-1.116-1.094-1.686C6.861,21.086,0,34.732,0,49.999   c0,27.613,22.381,49.999,50,49.999c3.308,0,6.536-0.339,9.665-0.951C61.901,95.297,64.245,89.553,66.422,82.759z"/>
	<path d="M50,0c-9.873,0-19.054,2.9-26.805,7.838c3.099,1.314,6.023,2.122,9.223,2.955c1.536-0.885,3.069-1.621,4.586-2.188   c2.573,0.625,5.327,1.264,8.306,2.116c5.931-0.481,11.803-0.603,17.347-0.54c0.397,1.5,0.759,3.407,1.088,5.647   c-2.344,0.075-4.785,0.225-7.299,0.453c-0.437,0.943-0.896,1.946-1.37,3.014c2.624,2.204,5.332,4.71,7.991,7.412   c0.602-0.02,1.198-0.036,1.783-0.043c0.196-3.023,0.34-5.797,0.414-8.273c1.514,0.143,2.979,0.309,4.404,0.511   c0.813,1.55,1.603,3.196,2.37,4.918c0.681-0.276,1.341-0.54,1.979-0.788c1.942,3.861,3.681,8.09,5.12,12.325   c-1.645,0.54-3.584,1.23-5.781,2.057c-1.695,0.83-3.546,1.744-5.521,2.747c-1.51,2.194-3.134,4.528-4.83,6.94   c0.017,1.23,0.029,2.468,0.039,3.718c-0.642,0.084-1.286,0.166-1.937,0.257c-0.482-1.357-0.957-2.712-1.445-4.06   c-2.54,0.329-5.163,0.684-7.807,1.062c-0.586,1.653-1.168,3.317-1.758,4.99c0.684,0.982,1.374,1.966,2.063,2.948   c0.98-0.787,1.957-1.572,2.93-2.354c0.974,0.102,1.94,0.199,2.901,0.303c-0.472,1.377-0.954,2.768-1.437,4.155   c1.153,0.074,2.299,0.146,3.425,0.211c0.371,1.452,0.742,2.894,1.098,4.319c0.748,0.244,1.487,0.479,2.217,0.713   c0.553-0.938,1.1-1.872,1.641-2.806c3.563,0.3,6.858,0.547,9.687,0.726c1.882,1.653,3.535,3.174,4.922,4.528   c0.176,1.266,0.339,2.509,0.495,3.729c1.731,0.856,3.026,1.504,3.87,1.935c-0.479,3.379-1.279,6.913-2.383,10.39   c-0.94,0.717-2.021,1.4-3.213,2.044c-0.283,1.233-0.583,2.445-0.896,3.624c-2.803,3.311-6.152,6.278-9.612,8.665   c-0.218,0.264-0.442,0.465-0.661,0.719C86.303,89.91,99.999,71.58,99.999,49.999C99.999,22.385,77.614,0,50,0z"/>
</g>
</svg>