<svg xmlns="http://www.w3.org/2000/svg" xmlns:xlink="http://www.w3.org/1999/xlink" version="1.1" id="Layer_1" x="0px" y="0px" width="100px" height="100px" viewBox="0 0 100 100" enable-background="new 0 0 100 100" xml:space="preserve">
<path d="M69.089,6.549c-3.158-2.588-5.352-1.979-8.516,3.662c-2.09,3.73-5.417,4.18-7.455,4.066l0.014-0.746  c2.363-1.175,4.029-3.558,4.029-6.367C57.161,3.2,53.952,0,50,0c-3.952,0-7.174,3.2-7.174,7.165c0,2.809,1.667,5.192,4.036,6.361  l0.007,0.752c-2.031,0.114-5.365-0.335-7.455-4.066c-3.151-5.641-5.352-6.25-8.502-3.662C27.741,9.141,15.241,24.079,0,22.708  c0,0,3.021,6.859,11.256,5.339c0,0,4.401,4.567,11.543,1.37c0,0,3.711,3.347,9.616,0.303c0,0,4.388,3.353,9.069,0.456  c0,0,2.643,1.914,5.58,1.419l0.188,17.246c-0.332-0.065-0.599-0.143-0.95-0.205c-0.013-0.006-5.117-1.1-10.515-2.614  c-5.195-1.361-10.898-3.568-11.738-4.717c0.072-0.072,0.189-0.127,0.339-0.199c0.462-0.244,1.25-0.495,2.188-0.687  c1.907-0.388,4.492-0.586,7.09-0.69c5.163-0.186,6.094,0.039,6.185,0.056c0.007-0.163,2.988,0.352,3.809-2.686  c-0.032-0.026,0.059-0.15,0.007-0.222c-0.169-2.09-1.777-2.194-3.093-2.438c-2.135-0.28-1.022-0.169-3.899-0.133  c-4.727,0.352-19.291-0.827-21.126,6.839c0,0.215-0.013,0.352-0.039,0.541c0.612,6.676,14.434,9.573,24.447,11.569  c-3.398,2.327-5.215,5.354-5.938,9.268c-0.345,4.173,2.969,8.145,10.664,12.584c-5.847,4.141-9.688,8.027-9.375,12.722  c0.547,3.828,3.926,8.945,10.566,12.168c0.02,0.007,0.026-0.007,0.039,0c0,0,0.006,0,0.02,0c0,0-4.648-7.09-4.961-10.97  c-0.306-2.266,0.983-5.612,6.634-9.643l0.163,14.18h0.026c0.039,1.205,0.97,2.168,2.142,2.168c1.171,0,2.103-0.963,2.142-2.168h0.02  l0.188-13.809c5.208,3.861,6.387,7.07,6.087,9.271c-0.312,3.88-4.954,10.97-4.954,10.97c0.007,0,0.007,0,0.013,0  c0,0,0.014,0.007,0.046,0c6.634-3.223,10.02-8.34,10.56-12.168c0.312-4.694-3.528-8.581-9.368-12.722  c7.688-4.439,11.009-8.411,10.664-12.584c-0.723-3.913-2.539-6.94-5.944-9.268c10.02-1.996,23.835-4.893,24.447-11.569  c-0.026-0.189-0.039-0.326-0.039-0.541c-1.83-7.666-16.4-6.487-21.127-6.839c-2.877-0.036-1.764-0.146-3.899,0.133  c-1.315,0.244-2.923,0.348-3.093,2.438c-0.052,0.072,0.046,0.195,0.014,0.222c0.82,3.037,3.802,2.522,3.809,2.686  c0.084-0.017,1.016-0.241,6.185-0.056c2.591,0.104,5.176,0.303,7.083,0.69c0.944,0.192,1.719,0.442,2.188,0.687  c0.15,0.072,0.273,0.127,0.346,0.199c-0.84,1.149-6.543,3.356-11.738,4.717c-5.404,1.514-10.508,2.607-10.521,2.614  c-0.13,0.026-0.234,0.052-0.364,0.075l0.222-17.119c2.955,0.518,5.618-1.416,5.618-1.416c4.668,2.897,9.069-0.456,9.069-0.456  c5.904,3.044,9.609-0.303,9.609-0.303c7.142,3.197,11.543-1.37,11.543-1.37C96.973,29.567,100,22.708,100,22.708  C84.753,24.079,72.253,9.141,69.089,6.549z M43.268,67.711c-1.907-1.185-2.799-2.786-2.624-3.867  c0.104-1.504-0.417-5.091,6.699-7.702l0.163,14.245C46.133,69.521,44.713,68.629,43.268,67.711z M58.698,63.844  c0.176,1.081-0.717,2.683-2.624,3.867c-1.25,0.801-2.474,1.562-3.672,2.317l0.183-13.665C59.075,58.961,58.594,62.386,58.698,63.844  z"/>
</svg>