<?xml version="1.0" encoding="utf-8"?>
<!-- Generator: Adobe Illustrator 16.0.0, SVG Export Plug-In . SVG Version: 6.00 Build 0)  -->
<!DOCTYPE svg PUBLIC "-//W3C//DTD SVG 1.1//EN" "http://www.w3.org/Graphics/SVG/1.1/DTD/svg11.dtd">
<svg version="1.1" id="Layer_1" xmlns="http://www.w3.org/2000/svg" xmlns:xlink="http://www.w3.org/1999/xlink" x="0px" y="0px"
	 width="71.138px" height="62.205px" viewBox="1100.396 47.196 71.138 62.205"
	 enable-background="new 1100.396 47.196 71.138 62.205" xml:space="preserve">
<g>
	<path fill="#8792A4" d="M1168.19,109.108l-22.01-5.899l-20.428,5.475l-22.012-5.898V47.469l22.012,5.898l20.428-5.473l22.01,5.897
		V109.108z M1146.18,101.883l20.729,5.556V54.776l-20.729-5.556l-20.428,5.474l-20.729-5.555v52.663l20.729,5.554L1146.18,101.883z"
		/>
	<polygon fill="#8792A4" points="1124.495,71.905 1124.517,71.886 1124.517,59.912 1118.71,65.906 	"/>
	<polygon fill="#8792A4" points="1114.51,82.216 1106.561,73.973 1106.561,90.425 	"/>
	<polygon fill="#8792A4" points="1123.715,72.711 1106.559,54.921 1106.559,72.354 1115.29,81.41 	"/>
	<polygon fill="#8792A4" points="1117.694,64.852 1124.517,57.81 1124.517,55.955 1106.559,51.144 1106.559,53.305 	"/>
	<polygon fill="#8792A4" points="1115.378,83.424 1106.559,92.525 1106.559,100.621 1124.517,105.433 1124.517,99.354 	"/>
	<polygon fill="#8792A4" points="1124.516,73.988 1116.2,82.575 1124.516,97.068 	"/>
	<polygon fill="#8792A4" points="1126.988,70.772 1126.988,73.828 1129.366,75.021 1144.518,51.26 1138.382,52.902 	"/>
	<polygon fill="#8792A4" points="1130.382,75.528 1135.283,77.987 1144.945,69.06 1144.945,52.69 	"/>
	<polygon fill="#8792A4" points="1144.946,70.593 1136.36,78.524 1144.946,82.828 	"/>
	<polygon fill="#8792A4" points="1126.988,68.672 1131.455,61.667 1126.988,59.428 	"/>
	<polygon fill="#8792A4" points="1128.014,101.955 1130.187,104.577 1144.946,100.621 1144.946,94.41 	"/>
	<polygon fill="#8792A4" points="1126.988,75.445 1126.988,100.716 1127.228,101.006 1144.946,93.11 1144.946,84.443 	"/>
	<polygon fill="#8792A4" points="1132.237,60.442 1136.767,53.335 1126.988,55.955 1126.988,57.812 	"/>
	<polygon fill="#8792A4" points="1126.988,102.998 1126.988,105.433 1128.638,104.992 	"/>
	<polygon fill="#8792A4" points="1155.472,94.699 1147.417,93.973 1147.417,100.621 1165.37,105.433 1165.37,104.965 	"/>
	<polygon fill="#8792A4" points="1147.417,86.345 1147.417,92.672 1154.099,93.273 	"/>
	<polygon fill="#8792A4" points="1165.37,84.462 1149.61,68.118 1147.417,68.969 1147.417,84.729 1165.37,103.348 	"/>
	<polygon fill="#8792A4" points="1147.417,67.437 1165.37,60.466 1165.37,55.955 1147.417,51.145 	"/>
	<polygon fill="#8792A4" points="1150.742,67.677 1165.37,82.844 1165.37,61.998 	"/>
</g>
</svg>
