<?xml version="1.0" encoding="utf-8"?>
<!-- Generator: Adobe Illustrator 16.0.0, SVG Export Plug-In . SVG Version: 6.00 Build 0)  -->
<!DOCTYPE svg PUBLIC "-//W3C//DTD SVG 1.1//EN" "http://www.w3.org/Graphics/SVG/1.1/DTD/svg11.dtd">
<svg version="1.1" id="Layer_1" xmlns="http://www.w3.org/2000/svg" xmlns:xlink="http://www.w3.org/1999/xlink" x="0px" y="0px"
	 width="71.138px" height="62.205px" viewBox="273.413 47.196 71.138 62.205" enable-background="new 273.413 47.196 71.138 62.205"
	 xml:space="preserve">
<g id="Your_Icon">
	<g>
		<path fill="#8792A4" d="M328.513,70.172L312.67,54.327l-9.312,9.311l6.498,6.498c-0.146,0.157-0.281,0.303-0.432,0.463
			c-1.708,1.818-3.751,3.896-5.994,6.064c-1.104,1.102-2.295,2.189-3.489,3.31c-1.191,1.127-2.422,2.247-3.673,3.351
			c-2.464,2.238-4.995,4.413-7.371,6.449c-2.403,2.009-4.66,3.871-6.638,5.423c-3.93,3.125-6.715,5.047-6.715,5.047
			c-0.485,0.338-0.937,0.776-1.294,1.294c-1.59,2.306-1.01,5.464,1.294,7.052c2.303,1.592,5.463,1.013,7.053-1.293
			c0,0,1.922-2.783,5.046-6.717c1.555-1.976,3.415-4.232,5.425-6.636c2.035-2.375,4.212-4.906,6.448-7.372
			c1.105-1.25,2.225-2.481,3.348-3.673c1.124-1.196,2.21-2.386,3.312-3.491c2.168-2.242,4.248-4.281,6.064-5.99
			c0.16-0.151,0.306-0.288,0.461-0.432l6.5,6.497L328.513,70.172z"/>
		<path fill="#8792A4" d="M301.641,62.738l10.129-10.127c0.585-0.584,0.59-1.537,0-2.123c-0.588-0.586-1.537-0.586-2.123,0
			l-10.128,10.126c-0.587,0.586-0.587,1.538,0,2.123C300.105,63.326,301.055,63.325,301.641,62.738z"/>
		<path fill="#8792A4" d="M332.353,71.07c-0.587-0.586-1.538-0.586-2.123,0l-10.129,10.127c-0.587,0.587-0.587,1.537,0,2.123
			s1.535,0.586,2.12,0l10.131-10.127C332.938,72.607,332.939,71.655,332.353,71.07z"/>
	</g>
	<path fill="#8792A4" d="M307.176,109.486c-1.363,0-2.466-1.103-2.466-2.464l0,0c0-1.361,1.103-2.466,2.466-2.466h33.751
		c1.363,0,2.465,1.104,2.465,2.466l0,0c0,1.36-1.102,2.464-2.465,2.464H307.176z"/>
</g>
</svg>
