<svg xmlns="http://www.w3.org/2000/svg" xmlns:xlink="http://www.w3.org/1999/xlink" version="1.1" id="Layer_1" x="0px" y="0px" width="100px" height="86.273px" viewBox="0 0 100 86.273" enable-background="new 0 0 100 86.273" xml:space="preserve">
<path d="M100,66.552c-1.736,0.694-3.473,1.389-5.557,1.389c-4.166,0-6.943-2.776-11.11-2.776c-4.166,0-6.944,2.776-11.11,2.776  s-6.945-2.776-11.111-2.776s-6.943,2.776-11.11,2.776s-6.944-2.776-11.111-2.776s-6.944,2.776-11.111,2.776  s-6.944-2.776-11.111-2.776s-6.944,2.776-11.111,2.776c-2.083,0-3.819-0.69-5.556-1.386v8.333c1.736,0.694,3.472,1.386,5.556,1.386  c4.167,0,6.944-2.776,11.111-2.776s6.945,2.776,11.111,2.776s6.944-2.776,11.111-2.776s6.945,2.776,11.111,2.776  c4.167,0,6.944-2.776,11.11-2.776s6.945,2.776,11.111,2.776s6.944-2.776,11.11-2.776c4.167,0,6.944,2.776,11.11,2.776  c2.084,0,3.82-0.693,5.557-1.389V66.552z"/>
<path d="M100,49.885c-1.736,0.694-3.473,1.389-5.557,1.389c-4.166,0-6.943-2.776-11.11-2.776c-4.166,0-6.944,2.776-11.11,2.776  s-6.945-2.776-11.111-2.776s-6.943,2.776-11.11,2.776s-6.944-2.776-11.111-2.776s-6.944,2.776-11.111,2.776  s-6.944-2.776-11.111-2.776s-6.944,2.776-11.111,2.776c-2.083,0-3.819-0.69-5.556-1.386v8.333c1.736,0.694,3.472,1.387,5.556,1.387  c4.167,0,6.944-2.777,11.111-2.777s6.945,2.777,11.111,2.777s6.944-2.777,11.111-2.777s6.945,2.777,11.111,2.777  c4.167,0,6.944-2.777,11.11-2.777s6.945,2.777,11.111,2.777s6.944-2.777,11.11-2.777c4.167,0,6.944,2.777,11.11,2.777  c2.084,0,3.82-0.693,5.557-1.389V49.885z"/>
<path d="M100,33.272c-1.736,0.695-3.473,1.389-5.557,1.389c-4.166,0-6.943-2.775-11.11-2.775c-4.166,0-6.944,2.775-11.11,2.775  s-6.945-2.775-11.111-2.775s-6.943,2.775-11.11,2.775s-6.944-2.775-11.111-2.775s-6.944,2.775-11.111,2.775  s-6.944-2.775-11.111-2.775S9.724,34.66,5.557,34.66c-2.083,0-3.819-0.689-5.556-1.385v8.332c1.736,0.695,3.472,1.387,5.556,1.387  c4.167,0,6.944-2.777,11.111-2.777s6.945,2.777,11.111,2.777s6.944-2.777,11.111-2.777s6.945,2.777,11.111,2.777  c4.167,0,6.944-2.777,11.11-2.777s6.945,2.777,11.111,2.777s6.944-2.777,11.11-2.777c4.167,0,6.944,2.777,11.11,2.777  c2.084,0,3.82-0.693,5.557-1.389V33.272z"/>
<path d="M100,16.605c-1.736,0.694-3.473,1.389-5.557,1.389c-4.166,0-6.943-2.776-11.11-2.776c-4.166,0-6.944,2.776-11.11,2.776  s-6.945-2.776-11.111-2.776s-6.943,2.776-11.11,2.776s-6.944-2.776-11.111-2.776s-6.944,2.776-11.111,2.776  s-6.944-2.776-11.111-2.776s-6.944,2.776-11.111,2.776c-2.083,0-3.819-0.69-5.556-1.386v8.333c1.736,0.694,3.472,1.387,5.556,1.387  c4.167,0,6.944-2.778,11.111-2.778s6.945,2.778,11.111,2.778s6.944-2.778,11.111-2.778s6.945,2.778,11.111,2.778  c4.167,0,6.944-2.778,11.11-2.778s6.945,2.778,11.111,2.778s6.944-2.778,11.11-2.778c4.167,0,6.944,2.778,11.11,2.778  c2.084,0,3.82-0.693,5.557-1.389V16.605z"/>
</svg>