<?xml version="1.0"?>
<svg width="882" height="210" xmlns="http://www.w3.org/2000/svg" xmlns:svg="http://www.w3.org/2000/svg">
 <g>
  <title>Data.gov</title>
  <g id="US_flag">
   <rect height="9.5" width="124" fill="#E54520" y="40" x="100" id="stripe_1"/>
   <rect height="9.5" width="124" fill="#E54520" y="59.3" x="100" id="stripe_2"/>
   <rect height="9.5" width="124" fill="#E54520" y="78.5" x="100" id="stripe_3"/>
   <rect height="9.5" width="124" fill="#E54520" y="97.8" x="100" id="stripe_4"/>
   <rect height="9.5" width="220" fill="#E54520" y="117" x="4" id="stripe_5"/>
   <rect height="9.5" width="220" fill="#E54520" y="136.2" x="4" id="stripe_6"/>
   <rect height="9.5" width="220" fill="#E54520" y="155.4" x="4" id="stripe_7"/>
   <rect height="67.3" width="96" fill="#22629A" y="40" x="4" id="STARS"/>
  </g>
  <g id="New_D">
   <path id="svg_14" d="m284,154l27.404999,0.141998c2.79599,0 5.402985,-0.524002 7.820984,-1.572998c2.417023,-1.048996 4.544006,-2.475998 6.379028,-4.281998c1.834991,-1.805008 3.277008,-3.917999 4.325989,-6.335999c1.049011,-2.417007 1.573029,-5.025009 1.573029,-7.820999l0,-63.704002c0,-2.796013 -0.524017,-5.403 -1.573029,-7.821003c-1.048981,-2.417 -2.490997,-4.543999 -4.325989,-6.378998s-3.962006,-3.277 -6.379028,-4.326c-2.417999,-1.049 -5.024994,-1.573002 -7.820984,-1.573002l-27.404999,0l0,34.673l-12,0l0,-45l39.930023,0c4.251984,0 8.257996,0.379002 12.015991,1.980999c3.757996,1.603001 7.035004,3.801003 9.830994,6.598s4.994995,6.073002 6.597992,9.831001c1.60199,3.757999 2.402985,7.764004 2.402985,12.016003l0,63.704994c0,4.253006 -0.802002,8.243988 -2.402985,11.972c-1.602997,3.728989 -3.800995,6.990997 -6.597992,9.786987s-6.072998,4.996002 -9.830994,6.598022c-3.757996,1.602997 -7.764008,2.403 -12.015991,2.403l-39.930023,0l0,-46.891006l12,0l0,36z" fill="#22629A"/>
   <rect id="svg_17" height="11.273" width="45.746" fill="#22629A" y="96.598" x="255.019"/>
  </g>
  <g id="ATA_GOV">
   <path d="m411.147003,135.779007l-39.688019,-0.067001l-8.268005,29.181992l-11.712982,-0.020004l36.923981,-125.293991l5.947021,0.009998l36.680023,125.415997l-11.628021,-0.020004l-8.253998,-29.206985l0,0zm-36.612,-10.817009l33.655975,0.057999l-16.423981,-57.810997l-0.697998,0l-16.533997,57.752998l0,0z" fill="#22629A" id="a1"/>
   <path d="m472,50.5l0,114.5l-11.076996,0l0.076996,-114.547001l-29.779999,-0.049999l0.016998,-10.751999l71.069,0.118999l-0.016998,10.73l-30.289001,0z" fill="#22629A" id="t2"/>
   <path d="m561.765991,136.033005l-39.686035,-0.068008l-8.266968,29.180008l-11.716003,-0.019989l36.927002,-125.293007l5.942017,0.010002l36.679993,125.417999l-11.625977,-0.020004l-8.254028,-29.207001zm-36.607971,-10.817001l33.653931,0.057999l-16.42395,-57.811005l-0.703003,-0.001999l-16.526978,57.755005z" fill="#22629A" id="a3"/>
   <path d="m598.455994,165.283005l0.02301,-13.460999l13.463989,0.02298l-0.02301,13.460999l-13.463989,-0.02298z" fill="#22629A" id="dot4"/>
   <path d="m698.098022,165.468002l-3.581055,-0.007004l-6.541931,-10.059998c-2.746033,3.606003 -6.072021,6.472 -9.980042,8.589996c-3.908997,2.126007 -8.25,3.181 -13.028992,3.171005l-6.557007,-0.01001c-4.255981,-0.006989 -8.262024,-0.817993 -12.018005,-2.427994c-3.755981,-1.608002 -7.031982,-3.811005 -9.822998,-6.613998c-2.791016,-2.800995 -4.985962,-6.069 -6.583984,-9.802002c-1.596008,-3.731995 -2.391052,-7.727005 -2.382996,-11.981003l0.11499,-67.308998c0.007996,-4.255997 0.812988,-8.246998 2.423035,-11.971996c1.607971,-3.729 3.815918,-6.987003 6.613953,-9.779003c2.800964,-2.792999 6.087036,-4.987 9.848022,-6.584s7.767029,-2.392998 12.02301,-2.385998l8.916992,0.014999c4.253967,0.007 8.244995,0.815998 11.972961,2.424999c3.726013,1.609001 6.987,3.816002 9.777039,6.617001c2.791016,2.801998 4.985962,6.068001 6.583984,9.800999c1.596008,3.73 2.390991,7.725998 2.382996,11.980003l-0.01001,5.070999l-11.280945,1.727997l0.012939,-6.818001c0.005005,-2.796997 -0.512939,-5.405998 -1.557983,-7.826996c-1.044983,-2.418003 -2.467957,-4.534 -4.276001,-6.345001c-1.802979,-1.809002 -3.911011,-3.241001 -6.329041,-4.293999c-2.415955,-1.053001 -5.023987,-1.582001 -7.819946,-1.587002l-7.867004,-0.013c-2.797974,-0.005001 -5.406006,0.514 -7.830017,1.559002c-2.41803,1.044998 -4.549011,2.468998 -6.383972,4.273998c-1.843018,1.804001 -3.286011,3.915001 -4.341003,6.331001s-1.578003,5.024998 -1.583008,7.822002l-0.11499,67.310997c-0.005005,2.796997 0.513,5.404999 1.557983,7.826996c1.045044,2.419006 2.482971,4.550003 4.320984,6.388c1.831055,1.837997 3.955994,3.283005 6.369019,4.339005c2.417969,1.052994 5.026001,1.580002 7.825012,1.585999l7.866943,0.014999c2.796082,0.005005 5.404053,-0.518005 7.824036,-1.559998c2.422974,-1.044998 4.533997,-2.486008 6.343994,-4.319c1.812988,-1.830002 3.241028,-3.955994 4.296021,-6.373001s1.578003,-5.024994 1.583008,-7.822006l0.044983,-26.427994l-19.908997,0.255989l-0.088013,-10.755989l31.088013,0l0.098022,65.968002l0,0z" fill="#22629A" id="g5"/>
   <path d="m785.357971,148.578003c-1.60498,3.725998 -3.812988,6.988998 -6.613953,9.779999c-2.80304,2.792999 -6.072021,4.985992 -9.80304,6.578995c-3.734009,1.600006 -7.724976,2.395996 -11.977966,2.388l-8.915039,-0.014999c-4.255981,-0.005005 -8.261963,-0.815002 -12.020935,-2.427994c-3.753052,-1.606003 -7.027039,-3.809006 -9.820007,-6.612c-2.79303,-2.80101 -4.989014,-6.072006 -6.587036,-9.804001c-1.592957,-3.731003 -2.390991,-7.725998 -2.382996,-11.979004l0.11499,-67.310997c0.007996,-4.255005 0.815002,-8.247002 2.422974,-11.971001c1.608032,-3.729 3.814026,-6.987003 6.617004,-9.780003c2.80304,-2.792 6.087036,-4.986 9.845032,-6.583c3.764038,-1.597 7.77002,-2.392998 12.026001,-2.385998l8.914978,0.014999c4.254028,0.007999 8.244995,0.816998 11.973022,2.425999c3.726013,1.609001 6.984985,3.815002 9.778015,6.617001s4.989014,6.068001 6.583984,9.800999c1.594971,3.73 2.393005,7.725002 2.38501,11.98l-0.11499,67.311005c-0.006042,4.253998 -0.814026,8.246002 -2.425049,11.972l0,0zm-8.737,-79.301003c0.003052,-2.796997 -0.517944,-5.408001 -1.559998,-7.827c-1.042969,-2.417999 -2.467957,-4.534 -4.273987,-6.345001c-1.802979,-1.808998 -3.914001,-3.241001 -6.328979,-4.293999c-2.41803,-1.054001 -5.023987,-1.582001 -7.822021,-1.587002l-7.867004,-0.013c-2.797974,-0.004997 -5.405945,0.514 -7.826965,1.559002c-2.422974,1.044998 -4.551025,2.468998 -6.388977,4.271999c-1.838074,1.806 -3.283081,3.916 -4.335999,6.332001s-1.583008,5.024002 -1.588074,7.820999l-0.11499,67.310997c-0.004944,2.796997 0.52002,5.406998 1.563049,7.82901c1.042969,2.418991 2.482971,4.549988 4.315979,6.386993c1.830994,1.837997 3.955994,3.285995 6.373962,4.339005c2.415039,1.052994 5.024048,1.582993 7.822021,1.587997l7.867004,0.013c2.798035,0.005005 5.403992,-0.514999 7.827026,-1.559998c2.420959,-1.044998 4.533997,-2.486008 6.343994,-4.31601c1.809998,-1.832001 3.240967,-3.959 4.294006,-6.373993c1.052979,-2.417999 1.580994,-5.025009 1.584961,-7.822006l0.11499,-67.312996l0,0z" fill="#22629A" id="o6"/>
   <path d="m839.323975,139.600006l28.322021,-99.188007l11.625977,0.02l-37.099976,125.291008l-5.947021,-0.01001l-36.502991,-125.414997l11.710999,0.019001l27.890991,99.283005z" fill="#22629A" id="v7"/>
  </g>
 </g>
</svg>