<?xml version="1.0" encoding="utf-8"?>
<!-- Generator: Adobe Illustrator 17.0.2, SVG Export Plug-In . SVG Version: 6.00 Build 0)  -->
<!DOCTYPE svg PUBLIC "-//W3C//DTD SVG 1.1//EN" "http://www.w3.org/Graphics/SVG/1.1/DTD/svg11.dtd">
<svg version="1.1" id="Layer_1" xmlns="http://www.w3.org/2000/svg" xmlns:xlink="http://www.w3.org/1999/xlink" x="0px" y="0px"
	 width="71.275px" height="63.283px" viewBox="1640.621 45.818 71.275 63.283"
	 enable-background="new 1640.621 45.818 71.275 63.283" xml:space="preserve">
<g>
	<polygon fill="#8792A4" points="1664.169,91.666 1672.702,95.114 1672.702,92.906 1667.771,90.86 1672.702,88.75 1672.702,86.558 
		1664.169,90.006 	"/>
	<polygon fill="#8792A4" points="1673.336,95.952 1675.156,96.547 1680.135,84.06 1678.315,83.432 	"/>
	<polygon fill="#8792A4" points="1681.234,88.75 1686.164,90.86 1681.234,92.906 1681.234,95.114 1689.766,91.666 1689.766,90.006 
		1681.234,86.558 	"/>
	<path fill="#8792A4" d="M1654.759,68.426h-1.773l-0.467,2.844h-1.257l0.466-2.844h-1.789l-0.467,2.844h-1.657v1.422h1.449
		l-0.242,2.133h-1.207v1.422h0.981l-0.466,2.844h1.773l0.467-2.844h1.273l-0.467,2.844h1.773l0.484-2.844h1.294v-1.422h-1.084
		l0.225-2.133h1.57V71.27h-1.329L1654.759,68.426z M1652.068,74.826h-1.257l0.21-2.133h1.273L1652.068,74.826z"/>
	<path fill="#8792A4" d="M1709.123,54.206l-65.732,0c-1.483,0-2.686,1.202-2.686,2.686v45.822c0,1.484,1.202,2.686,2.686,2.686
		l65.731,0c1.483,0,2.686-1.202,2.686-2.686V56.891C1711.808,55.408,1710.606,54.206,1709.123,54.206z M1657.093,57.437
		c0.973,0,1.763,0.789,1.763,1.763c0,0.973-0.79,1.763-1.763,1.763c-0.973,0-1.763-0.789-1.763-1.763
		C1655.33,58.226,1656.12,57.437,1657.093,57.437z M1651.722,57.437c0.974,0,1.763,0.789,1.763,1.763
		c0,0.973-0.789,1.763-1.763,1.763c-0.973,0-1.763-0.789-1.763-1.763C1649.959,58.226,1650.749,57.437,1651.722,57.437z
		 M1646.351,57.437c0.973,0,1.763,0.789,1.763,1.763c0,0.973-0.789,1.763-1.763,1.763s-1.763-0.789-1.763-1.763
		C1644.588,58.226,1645.378,57.437,1646.351,57.437z M1707.542,97.62c0,1.547-1.255,2.802-2.803,2.802l-58.387,0
		c-1.548,0-2.803-1.255-2.803-2.802V66.962c0-1.547,1.255-2.802,2.803-2.802l58.386,0c1.549,0,2.804,1.255,2.804,2.802V97.62z"/>
	<path fill="#8792A4" d="M1694.293,69.715c-0.347,0.376-0.261,0.897-0.261,1.536v2.411c0,0.198-0.287,0.362-0.344,0.493
		c-0.057,0.132-0.336,0.233-0.426,0.304c-0.089,0.07-0.196,0.119-0.309,0.148c-0.113,0.028-0.343,0.041-0.343,0.041v1.551
		c0,0,0.243,0.014,0.355,0.043c0.113,0.028,0.265,0.08,0.355,0.155c0.089,0.075,0.329,0.181,0.385,0.318
		c0.055,0.136,0.327,0.312,0.327,0.528v2.354c0,0.639-0.086,0.917,0.261,1.293c0.348,0.376,0.557,0.335,1.15,0.335h2.145v-1.422
		h-0.979c-0.272,0-0.346,0.111-0.426-0.067c-0.08-0.179-0.017-0.172-0.017-0.378V77.06c0-0.311-0.171-0.566-0.264-0.769
		s-0.249-0.364-0.385-0.487c-0.136-0.122-0.233-0.211-0.384-0.267c-0.151-0.056-0.39-0.089-0.39-0.099V75.41
		c0-0.01,0.182-0.047,0.331-0.113c0.152-0.066,0.294-0.16,0.43-0.282c0.137-0.122,0.356-0.279,0.449-0.473
		c0.094-0.192,0.212-0.424,0.212-0.697V71.49c0-0.206-0.063-0.442,0.017-0.62c0.08-0.178,0.154-0.311,0.426-0.311h0.979v-1.422
		h-2.145C1694.851,69.137,1694.642,69.339,1694.293,69.715z"/>
	<path fill="#8792A4" d="M1704.046,74.459c-0.09-0.071-0.369-0.171-0.426-0.304c-0.057-0.132-0.344-0.296-0.344-0.493v-2.411
		c0-0.639,0.086-1.16-0.261-1.537c-0.348-0.375-0.557-0.577-1.15-0.577h-2.145v1.422h0.979c0.272,0,0.346,0.132,0.426,0.311
		c0.08,0.178,0.017,0.414,0.017,0.62v2.355c0,0.273,0.118,0.505,0.212,0.698c0.093,0.193,0.312,0.351,0.449,0.473
		c0.136,0.122,0.279,0.216,0.43,0.282c0.149,0.065,0.331,0.103,0.331,0.112v0.028c0,0.01-0.239,0.043-0.39,0.099
		c-0.151,0.057-0.248,0.146-0.384,0.268c-0.136,0.122-0.292,0.284-0.385,0.487s-0.264,0.457-0.264,0.769v2.298
		c0,0.205,0.063,0.198-0.017,0.378c-0.08,0.178-0.154,0.067-0.426,0.067h-0.979v1.422h2.145c0.592,0,0.801,0.041,1.15-0.335
		c0.347-0.375,0.261-0.653,0.261-1.293v-2.354c0-0.217,0.272-0.393,0.327-0.529c0.056-0.136,0.297-0.242,0.385-0.317
		c0.09-0.075,0.242-0.127,0.355-0.155c0.112-0.028,0.355-0.043,0.355-0.043v-1.551c0,0-0.23-0.014-0.343-0.042
		C1704.241,74.578,1704.135,74.529,1704.046,74.459z"/>
</g>
</svg>
