<?xml version="1.0" encoding="utf-8"?>
<!-- Generator: Adobe Illustrator 16.0.0, SVG Export Plug-In . SVG Version: 6.00 Build 0)  -->
<!DOCTYPE svg PUBLIC "-//W3C//DTD SVG 1.1//EN" "http://www.w3.org/Graphics/SVG/1.1/DTD/svg11.dtd">
<svg version="1.1" id="Layer_1" xmlns="http://www.w3.org/2000/svg" xmlns:xlink="http://www.w3.org/1999/xlink" x="0px" y="0px"
	 width="71.138px" height="62.205px" viewBox="364.551 47.196 71.138 62.205" enable-background="new 364.551 47.196 71.138 62.205"
	 xml:space="preserve">
<g>
	<path fill="#8792A4" d="M431.608,47.957c-1.668,0-3.023,1.356-3.023,3.023c0,0.97,0.46,1.831,1.172,2.386
		c-0.841,2.185-2.385,3.73-3.341,4.532l-8.634,0.262l-0.936-6.035c-0.057-0.375-0.407-0.629-0.783-0.572
		c-0.375,0.057-0.631,0.409-0.573,0.783l0.908,5.866l-50.438,1.528l4.071,32.996l44.854,2.186c0.576,0.683,1.661,2.27,2.008,4.856
		l-44.273,0.826c-0.948,0.019-1.702,0.801-1.686,1.75c0.019,0.938,0.783,1.687,1.717,1.687c0.012,0,0.022,0,0.033,0l47.756-0.892
		v-1.687c0-4.467-1.77-7.322-2.852-8.653l10.365-32.825c1.246-1.016,3.316-3.057,4.349-6.054c1.333-0.314,2.33-1.511,2.33-2.939
		C434.632,49.314,433.276,47.957,431.608,47.957z M417.077,61.987l1.587,1.664l-1.587,1.662l-1.585-1.662L417.077,61.987z
		 M410.983,76.893l1.587,1.662l-1.587,1.662l-0.847-0.888c0.061-0.188,0.094-0.389,0.094-0.598v-1.051L410.983,76.893z
		 M410.23,76.748v-0.646l0.308,0.322L410.23,76.748z M410.23,75.169v-1.407c0-0.106-0.01-0.209-0.026-0.312l0.779-0.816l1.587,1.662
		l-1.587,1.663L410.23,75.169z M411.428,72.167l1.587-1.663l1.588,1.663l-1.588,1.662L411.428,72.167z M410.983,71.7l-1.586-1.663
		l1.586-1.662l1.587,1.662L410.983,71.7z M410.537,72.167l-0.578,0.605c-0.34-0.58-0.968-0.971-1.689-0.971h-0.558l1.239-1.298
		L410.537,72.167z M409.37,73.762v4.971c0,0.606-0.493,1.1-1.101,1.1h-25.597c-0.606,0-1.1-0.493-1.1-1.1v-4.971
		c0-0.606,0.493-1.101,1.1-1.101h25.597C408.877,72.661,409.37,73.155,409.37,73.762z M406.92,71.7l-1.588-1.663l1.588-1.662
		l1.586,1.662L406.92,71.7z M406.127,71.803h-2.479l1.238-1.299L406.127,71.803z M402.856,71.7l-1.586-1.663l1.587-1.662
		l1.587,1.662L402.856,71.7z M402.064,71.803h-2.478l1.239-1.297L402.064,71.803z M398.792,71.7l-1.586-1.663l1.586-1.662
		l1.588,1.662L398.792,71.7z M398,71.803h-2.478l1.239-1.297L398,71.803z M394.73,71.7l-1.586-1.663l1.586-1.662l1.586,1.662
		L394.73,71.7z M393.937,71.803h-2.477l1.238-1.297L393.937,71.803z M390.667,71.7l-1.587-1.663l1.587-1.662l1.587,1.662
		L390.667,71.7z M389.875,71.803h-2.478l1.239-1.299L389.875,71.803z M386.603,71.7l-1.585-1.663l1.585-1.662l1.587,1.662
		L386.603,71.7z M385.811,71.803h-2.478l1.239-1.297L385.811,71.803z M382.54,71.7l-1.586-1.663l1.586-1.662l1.587,1.662
		L382.54,71.7z M381.9,71.962c-0.652,0.28-1.119,0.905-1.178,1.646l-0.214,0.224l-1.585-1.662l1.585-1.662L381.9,71.962z
		 M380.064,78.555l-1.586,1.663l-1.587-1.663l1.587-1.662L380.064,78.555z M376.891,74.296l1.587-1.662l1.586,1.662l-1.586,1.663
		L376.891,74.296z M378.923,76.425l1.585-1.661l0.205,0.214v2.896l-0.205,0.214L378.923,76.425z M378.478,71.7l-1.587-1.663
		l1.587-1.662l1.586,1.662L378.478,71.7z M378.032,72.167l-1.587,1.662l-1.586-1.662l1.586-1.661L378.032,72.167z M378.032,76.425
		l-1.587,1.663l-1.586-1.663l1.586-1.661L378.032,76.425z M378.032,80.684l-1.587,1.662l-1.586-1.662l1.586-1.662L378.032,80.684z
		 M378.478,81.149l1.586,1.663l-1.586,1.662l-1.587-1.662L378.478,81.149z M378.923,80.684l1.585-1.662l0.302,0.315
		c0.183,0.565,0.616,1.018,1.17,1.226l0.115,0.121l-1.587,1.663L378.923,80.684z M382.54,81.149l1.587,1.663l-1.587,1.662
		l-1.587-1.662L382.54,81.149z M382.992,80.69h3.159l-1.579,1.655L382.992,80.69z M386.603,81.149l1.587,1.663l-1.587,1.662
		l-1.585-1.662L386.603,81.149z M387.057,80.69h3.159l-1.581,1.655L387.057,80.69z M390.667,81.149l1.587,1.663l-1.587,1.662
		l-1.587-1.662L390.667,81.149z M391.119,80.69h3.158l-1.579,1.655L391.119,80.69z M394.73,81.149l1.586,1.663l-1.586,1.662
		l-1.586-1.662L394.73,81.149z M395.183,80.69h3.157l-1.578,1.655L395.183,80.69z M398.792,81.149l1.588,1.663l-1.588,1.662
		l-1.586-1.662L398.792,81.149z M399.246,80.69h3.158l-1.579,1.655L399.246,80.69z M402.856,81.149l1.588,1.663l-1.587,1.662
		l-1.587-1.662L402.856,81.149z M403.308,80.69h3.16l-1.581,1.656L403.308,80.69z M406.92,81.149l1.586,1.663l-1.586,1.662
		l-1.588-1.662L406.92,81.149z M407.371,80.69h0.898c0.632,0,1.191-0.298,1.55-0.76l0.719,0.753l-1.587,1.662L407.371,80.69z
		 M410.983,81.149l1.587,1.663l-1.587,1.662l-1.586-1.662L410.983,81.149z M411.428,80.684l1.587-1.663l1.588,1.663l-1.588,1.663
		L411.428,80.684z M411.428,76.425l1.587-1.661l1.588,1.661l-1.588,1.662L411.428,76.425z M413.46,74.296l1.586-1.662l1.587,1.662
		l-1.587,1.663L413.46,74.296z M413.46,70.037l1.586-1.662l1.587,1.662l-1.587,1.663L413.46,70.037z M415.492,67.909l1.585-1.663
		l1.587,1.663l-1.587,1.662L415.492,67.909z M416.632,65.78l-1.586,1.661l-1.586-1.661l1.586-1.663L416.632,65.78z M414.602,67.909
		l-1.587,1.662l-1.588-1.662l1.588-1.663L414.602,67.909z M410.983,67.443l-1.587-1.663l1.587-1.663l1.587,1.663L410.983,67.443z
		 M410.537,67.909l-1.586,1.662l-1.586-1.662l1.585-1.663L410.537,67.909z M406.92,67.441l-1.588-1.661l1.588-1.663l1.586,1.663
		L406.92,67.441z M406.475,67.909l-1.588,1.662l-1.586-1.662l1.586-1.663L406.475,67.909z M402.857,67.443l-1.587-1.663l1.586-1.663
		l1.587,1.663L402.857,67.443z M402.41,67.909l-1.585,1.661l-1.588-1.661l1.588-1.663L402.41,67.909z M398.792,67.443l-1.586-1.663
		l1.586-1.663l1.588,1.663L398.792,67.443z M398.348,67.909l-1.586,1.661l-1.587-1.662l1.587-1.662L398.348,67.909z M394.73,67.443
		l-1.586-1.663l1.586-1.663l1.586,1.663L394.73,67.443z M394.285,67.909l-1.587,1.662l-1.587-1.662l1.587-1.663L394.285,67.909z
		 M390.667,67.443l-1.587-1.663l1.587-1.663l1.587,1.663L390.667,67.443z M390.221,67.909l-1.586,1.661l-1.586-1.661l1.586-1.663
		L390.221,67.909z M386.603,67.443l-1.585-1.663l1.585-1.663l1.587,1.663L386.603,67.443z M386.158,67.909l-1.586,1.662
		l-1.587-1.662l1.587-1.663L386.158,67.909z M382.54,67.441l-1.586-1.661l1.586-1.663l1.587,1.663L382.54,67.441z M382.095,67.909
		l-1.587,1.662l-1.585-1.662l1.585-1.663L382.095,67.909z M378.478,67.443l-1.587-1.663l1.587-1.663l1.586,1.663L378.478,67.443z
		 M378.032,67.909l-1.587,1.661l-1.586-1.662l1.586-1.662L378.032,67.909z M374.413,67.443l-1.585-1.663l1.585-1.663L376,65.78
		L374.413,67.443z M373.969,67.909l-1.586,1.662l-1.587-1.662l1.587-1.663L373.969,67.909z M374.413,68.375L376,70.037l-1.587,1.663
		l-1.586-1.663L374.413,68.375z M376,74.296l-1.587,1.663l-1.585-1.663l1.586-1.662L376,74.296z M376,78.555l-1.587,1.663
		l-1.586-1.663l1.586-1.662L376,78.555z M376,82.812l-1.587,1.662l-1.585-1.662l1.586-1.663L376,82.812z M376.446,83.279
		l1.587,1.663l-1.587,1.662l-1.586-1.662L376.446,83.279z M378.478,85.409l1.586,1.662l-1.586,1.663l-1.587-1.663L378.478,85.409z
		 M378.923,84.942l1.585-1.663l1.587,1.663l-1.587,1.662L378.923,84.942z M382.54,85.409l1.587,1.662l-1.587,1.663l-1.586-1.663
		L382.54,85.409z M382.986,84.942l1.587-1.663l1.586,1.663l-1.586,1.662L382.986,84.942z M386.603,85.409l1.587,1.662l-1.587,1.663
		l-1.585-1.663L386.603,85.409z M387.049,84.942l1.586-1.663l1.586,1.663l-1.586,1.662L387.049,84.942z M390.667,85.409l1.587,1.662
		l-1.587,1.663l-1.587-1.663L390.667,85.409z M391.112,84.942l1.587-1.663l1.587,1.663l-1.587,1.662L391.112,84.942z M394.73,85.409
		l1.586,1.662l-1.586,1.663l-1.586-1.663L394.73,85.409z M395.175,84.942l1.587-1.663l1.586,1.663l-1.586,1.662L395.175,84.942z
		 M398.792,85.409l1.588,1.662l-1.588,1.663l-1.586-1.663L398.792,85.409z M399.239,84.942l1.587-1.663l1.585,1.663l-1.585,1.662
		L399.239,84.942z M402.857,85.409l1.586,1.662l-1.587,1.663l-1.586-1.663L402.857,85.409z M403.301,84.942l1.586-1.663l1.588,1.663
		l-1.588,1.662L403.301,84.942z M406.92,85.409l1.586,1.662l-1.586,1.663l-1.588-1.663L406.92,85.409z M407.365,84.942l1.586-1.663
		l1.587,1.663l-1.588,1.662L407.365,84.942z M410.983,85.409l1.587,1.662l-1.587,1.663l-1.587-1.663L410.983,85.409z
		 M411.428,84.942l1.587-1.663l1.588,1.663l-1.588,1.662L411.428,84.942z M413.46,82.812l1.586-1.663l1.587,1.663l-1.587,1.662
		L413.46,82.812z M413.46,78.555l1.586-1.662l1.587,1.662l-1.587,1.663L413.46,78.555z M415.492,76.425l1.585-1.661l1.587,1.661
		l-1.587,1.663L415.492,76.425z M415.492,72.167l1.585-1.661l1.587,1.661l-1.587,1.662L415.492,72.167z M417.523,70.037l1.587-1.662
		l1.588,1.662L419.11,71.7L417.523,70.037z M417.523,65.78l1.587-1.663l1.588,1.663l-1.588,1.661L417.523,65.78z M419.555,63.651
		l1.586-1.664l1.587,1.664l-1.587,1.661L419.555,63.651z M420.697,61.521l-1.587,1.661l-1.508-1.579l3.084-0.094L420.697,61.521z
		 M416.524,61.637l-1.478,1.546l-1.393-1.46L416.524,61.637z M414.602,63.651l-1.587,1.662l-1.588-1.662l1.588-1.664L414.602,63.651
		z M412.338,61.764l-1.355,1.419l-1.28-1.34L412.338,61.764z M410.537,63.651l-1.587,1.662l-1.585-1.662l1.586-1.664L410.537,63.651
		z M408.154,61.891l-1.233,1.294l-1.166-1.222L408.154,61.891z M404.889,61.989l1.586,1.662l-1.588,1.662l-1.586-1.662l1.586-1.662
		H404.889z M403.971,62.017l-1.114,1.168l-1.051-1.103L403.971,62.017z M400.941,62.108l1.47,1.543l-1.585,1.662l-1.588-1.662
		l1.465-1.534L400.941,62.108z M399.786,62.144l-0.993,1.041l-0.936-0.981L399.786,62.144z M396.99,62.228l1.358,1.424l-1.587,1.662
		l-1.587-1.662l1.344-1.408L396.99,62.228z M395.602,62.271l-0.872,0.913l-0.822-0.863L395.602,62.271z M393.042,62.349l1.243,1.303
		l-1.587,1.662l-1.587-1.662l1.224-1.282L393.042,62.349z M391.418,62.397l-0.751,0.787l-0.708-0.742L391.418,62.397z
		 M389.092,62.468l1.129,1.184l-1.586,1.662l-1.586-1.662l1.102-1.154L389.092,62.468z M387.234,62.524l-0.631,0.66l-0.594-0.623
		L387.234,62.524z M385.144,62.588l1.016,1.063l-1.587,1.662l-1.586-1.662l0.981-1.028L385.144,62.588z M383.049,62.651
		l-0.509,0.531l-0.479-0.502L383.049,62.651z M379.782,62.749l1.413-0.042l0.9,0.944l-1.587,1.663l-1.586-1.663L379.782,62.749z
		 M378.865,62.778l-0.387,0.404l-0.366-0.383L378.865,62.778z M375.598,62.877l1.647-0.05l0.786,0.824l-1.586,1.662l-1.587-1.662
		L375.598,62.877z M374.681,62.904l-0.268,0.28l-0.25-0.265L374.681,62.904z M371.413,63.003l1.884-0.057l0.672,0.705l-1.586,1.662
		l-1.587-1.662L371.413,63.003z M370.496,63.032l-0.145,0.15l-0.139-0.144L370.496,63.032z M369.906,63.651L369.906,63.651
		L369.906,63.651L369.906,63.651z M370.008,64.478l0.344-0.36l1.585,1.663l-1.567,1.642L370.008,64.478z M370.508,68.541
		l1.429,1.496l-1.102,1.154L370.508,68.541z M370.938,72.02l1.445-1.514l1.586,1.661l-1.586,1.663l-1.403-1.47L370.938,72.02z
		 M371.113,73.432l0.825,0.864l-0.636,0.668L371.113,73.432z M371.405,75.789l0.979-1.027l1.586,1.663l-1.586,1.662l-0.799-0.837
		L371.405,75.789z M371.716,78.322l0.222,0.232l-0.171,0.179L371.716,78.322z M371.868,79.561l0.515-0.54l1.586,1.663l-1.586,1.662
		l-0.196-0.205L371.868,79.561z M372.334,83.33l0.049-0.051l1.586,1.663l-1.272,1.332L372.334,83.33z M373.715,89.466l-0.629-0.031
		l-0.164-1.331l1.047,1.098L373.715,89.466z M372.828,87.071l1.585-1.662L376,87.071l-1.587,1.663L372.828,87.071z M377.597,89.655
		l-2.416-0.119l-0.322-0.336l1.587-1.662l1.586,1.662L377.597,89.655z M378.449,89.696l0.028-0.03l0.03,0.034L378.449,89.696z
		 M381.481,89.845l-2.038-0.1l-0.52-0.545l1.586-1.662l1.587,1.662L381.481,89.845z M382.332,89.886l0.208-0.22l0.229,0.241
		L382.332,89.886z M385.363,90.033l-1.659-0.081l-0.718-0.752l1.587-1.662l1.586,1.662L385.363,90.033z M386.215,90.076l0.389-0.41
		l0.427,0.448L386.215,90.076z M387.965,90.16l-0.916-0.959l1.586-1.663l1.586,1.663l-0.974,1.022L387.965,90.16z M390.097,90.264
		l0.57-0.598l0.625,0.656L390.097,90.264z M392.226,90.367l-1.114-1.167l1.587-1.662l1.587,1.662l-1.156,1.212L392.226,90.367z
		 M393.981,90.452l0.749-0.787l0.823,0.863L393.981,90.452z M396.488,90.575l-1.312-1.375l1.587-1.662l1.587,1.662l-1.336,1.4
		L396.488,90.575z M397.863,90.643l0.93-0.977l1.021,1.071L397.863,90.643z M400.748,90.782l-1.51-1.582l1.587-1.663l1.585,1.662
		l-1.517,1.59L400.748,90.782z M401.744,90.831l1.112-1.165l1.22,1.279L401.744,90.831z M403.301,89.2l1.586-1.663l1.588,1.663
		l-1.588,1.662L403.301,89.2z M405.628,91.021l1.292-1.355l1.417,1.485L405.628,91.021z M407.365,89.2l1.585-1.662l1.588,1.662
		l-1.587,1.662L407.365,89.2z M412.543,91.357l-3.032-0.147l1.472-1.544l1.587,1.663L412.543,91.357z M411.428,89.2l1.587-1.663
		l1.588,1.663l-1.588,1.662L411.428,89.2z M414.412,91.449l-0.88-0.043l-0.071-0.076l1.479-1.551L414.412,91.449z M415.379,88.386
		l-0.333,0.347l-1.586-1.661l1.586-1.662l0.957,1.002L415.379,88.386z M416.225,85.709l-0.734-0.767l1.458-1.527L416.225,85.709z
		 M417.389,82.02l-0.312,0.326l-1.585-1.662l1.585-1.662l0.945,0.991L417.389,82.02z M418.244,79.311l-0.722-0.756l1.435-1.505
		L418.244,79.311z M419.4,75.655l-0.29,0.304l-1.588-1.663l1.588-1.662l0.934,0.979L419.4,75.655z M420.266,72.911l-0.711-0.744
		l1.413-1.481L420.266,72.911z M421.408,69.29l-0.268,0.281l-1.587-1.662l1.587-1.663l0.924,0.969L421.408,69.29z M422.285,66.513
		l-0.699-0.732l1.391-1.459L422.285,66.513z M423.418,62.927l-0.246,0.258l-1.585-1.663l0.037-0.04l2.272-0.067L423.418,62.927z
		 M431.608,52.608c-0.898,0-1.627-0.729-1.627-1.627c0-0.898,0.729-1.629,1.627-1.629s1.628,0.731,1.628,1.629
		C433.236,51.878,432.506,52.608,431.608,52.608z"/>
	<path fill="#8792A4" d="M373.994,105.104c-1.185,0-2.147,0.963-2.147,2.147s0.964,2.148,2.147,2.148s2.147-0.964,2.147-2.148
		S375.178,105.104,373.994,105.104z"/>
	<path fill="#8792A4" d="M417.9,104.426c-1.371,0-2.487,1.116-2.487,2.487s1.116,2.487,2.487,2.487c1.372,0,2.486-1.116,2.486-2.487
		S419.272,104.426,417.9,104.426z"/>
</g>
</svg>
