<?xml version="1.0" encoding="utf-8"?>
<!-- Generator: Adobe Illustrator 16.0.0, SVG Export Plug-In . SVG Version: 6.00 Build 0)  -->
<!DOCTYPE svg PUBLIC "-//W3C//DTD SVG 1.1//EN" "http://www.w3.org/Graphics/SVG/1.1/DTD/svg11.dtd">
<svg version="1.1" id="Layer_1" xmlns="http://www.w3.org/2000/svg" xmlns:xlink="http://www.w3.org/1999/xlink" x="0px" y="0px"
	 width="71.138px" height="62.205px" viewBox="91.138 47.196 71.138 62.205" enable-background="new 91.138 47.196 71.138 62.205"
	 xml:space="preserve">
<path fill="#8792A4" d="M139.079,83.498c0,5.873,5.098,10.649,11.364,10.649c6.265,0,11.361-4.775,11.361-10.649l-0.881-0.881
	l-9.026-18.061c0.335-0.271,0.624-0.594,0.811-0.983c0.228-0.38,0.29-0.719,0.268-1.007c0.006-0.084,0.009-0.168,0.008-0.255
	c-0.016-1.568-1.304-2.845-2.906-2.845c-0.767,0.009-1.486,0.315-2.021,0.864c-0.188,0.19-0.344,0.403-0.47,0.631
	c-0.093-0.088-0.188-0.173-0.277-0.257l-0.096-0.088c-0.723-0.666-1.356-1.283-1.937-1.85c-2.443-2.383-4.209-4.105-7.742-4.573
	c-0.476-0.063-0.955-0.096-1.424-0.096c-2.152,0-3.793,0.652-5.11,1.177c-0.701,0.281-1.307,0.521-1.751,0.559
	c-0.277,0.023-0.526,0.044-0.747,0.061c-0.023-0.046-0.049-0.089-0.075-0.133c0.119-0.412,0.146-0.902,0.016-1.451
	c-0.149-0.612-0.646-3.283-0.824-4.261l-2.894,0.029c-0.158,0.979-0.597,3.651-0.736,4.278c-0.117,0.549-0.075,1.037,0.055,1.449
	c-0.026,0.046-0.052,0.092-0.075,0.14c-0.222-0.013-0.47-0.027-0.747-0.046c-0.442-0.026-1.057-0.254-1.766-0.52
	c-1.274-0.475-2.86-1.064-4.896-1.064c-0.546,0-1.103,0.044-1.656,0.13c-3.521,0.551-5.244,2.309-7.633,4.741
	c-0.568,0.579-1.191,1.214-1.902,1.898c-0.13,0.126-0.253,0.243-0.369,0.353c-0.502-0.858-1.44-1.438-2.521-1.438
	c-0.767,0.009-1.483,0.316-2.021,0.866c-0.537,0.551-0.827,1.274-0.818,2.041c0.002,0.082,0.006,0.162,0.013,0.242
	c-0.019,0.291,0.051,0.634,0.292,1.014c0.188,0.38,0.482,0.692,0.818,0.956l-8.749,17.505l-0.875,0.875
	c0,5.872,5.097,10.648,11.362,10.648c6.267,0,11.366-4.775,11.366-10.648l-0.876-0.877l-8.453-16.898
	c1.682-0.537,3.383-1.86,5.039-3.159c0.523-0.41,1.031-0.81,1.508-1.153c1.42-1.025,2.187-1.163,2.75-1.163
	c0.745,0,1.579,0.279,2.857,0.797c2.145,0.865,3.936,0.993,4.813,0.993c0.309,0,0.53-0.015,0.646-0.025l1.518-0.017
	c-0.196,0.332-0.352,0.757-0.438,1.298c-0.313,0.348-0.416,0.721-0.451,0.916c-0.097,0.576,0.093,1.058,0.324,1.41l0.2,17.941
	c-0.553,0.537-0.652,1.132-0.652,1.48c-0.001,0.373,0.104,0.715,0.269,1.016l-0.185,0.547c-0.006,0.062-0.607,6.745-0.99,9.747
	c-0.33,2.535-0.197,4.582,0.032,5.318h-17.173l-1.35,0.524L101,107.222l1.35,1.804h49.165l0.706,0.088v0.032l0.987-2.044
	l-2.424-4.906l-1.522-0.526h-17.58c0.215-2.207,0.341-2.82-0.054-5.429c-0.457-2.995-1.193-9.477-1.201-9.539l-0.199-0.637
	c0.161-0.305,0.256-0.694,0.247-1.067c-0.01-0.349-0.122-0.96-0.686-1.484l-0.202-17.956c0.224-0.355,0.399-0.847,0.292-1.418
	c-0.039-0.196-0.148-0.569-0.471-0.91c-0.101-0.539-0.266-0.964-0.471-1.291l1.52-0.018c0.48,0.035,2.693,0.088,5.44-1.09
	c1.297-0.56,2.145-0.863,2.901-0.863c0.549,0,1.299,0.132,2.711,1.103c0.489,0.338,1.009,0.727,1.546,1.13
	c1.828,1.366,3.707,2.764,5.537,3.146l-8.639,17.275L139.079,83.498z M157.351,82.541h-13.819l6.912-13.82L157.351,82.541z
	 M102.5,68.72l6.912,13.821H95.59L102.5,68.72z"/>
</svg>
