<?xml version="1.0" encoding="utf-8"?>
<!-- Generator: Adobe Illustrator 17.0.2, SVG Export Plug-In . SVG Version: 6.00 Build 0)  -->
<!DOCTYPE svg PUBLIC "-//W3C//DTD SVG 1.1//EN" "http://www.w3.org/Graphics/SVG/1.1/DTD/svg11.dtd">
<svg version="1.1" id="Layer_1" xmlns="http://www.w3.org/2000/svg" xmlns:xlink="http://www.w3.org/1999/xlink" x="0px" y="0px"
	 width="71.275px" height="63.283px" viewBox="1458.895 45.921 71.275 63.283"
	 enable-background="new 1458.895 45.921 71.275 63.283" xml:space="preserve">
<g id="Your_Icon_2_">
	<g>
		<path fill="#8792A4" d="M1507.938,98.812V75.009h2.814v-1.587h-30.696v1.587h3.148v23.803h-2.855v1.193h30.694v-1.193H1507.938z
			 M1504.704,98.812h-4.036V75.009h4.036V98.812z M1497.434,98.812h-3.881V75.009h3.881V98.812z M1486.435,75.009h3.887v23.803
			h-3.887V75.009z"/>
		<g>
			<rect x="1476.991" y="101.741" fill="#8792A4" width="37.409" height="2.834"/>
		</g>
		<g>
			<rect x="1474.039" y="106.366" fill="#8792A4" width="42.733" height="2.838"/>
		</g>
		<g>
			<path fill="#8792A4" d="M1479.97,72.186c0-8.561,6.934-15.495,15.492-15.495s15.495,6.934,15.495,15.495"/>
		</g>
		<g>
			<g>
				<rect x="1494.775" y="46.241" fill="#8792A4" width="1.196" height="11.171"/>
			</g>
			<g>
				<rect x="1494.775" y="46.241" fill="#8792A4" width="8.547" height="5.643"/>
			</g>
		</g>
	</g>
</g>
</svg>
