<?xml version="1.0" encoding="utf-8"?>
<!-- Generator: Adobe Illustrator 16.0.0, SVG Export Plug-In . SVG Version: 6.00 Build 0)  -->
<!DOCTYPE svg PUBLIC "-//W3C//DTD SVG 1.1//EN" "http://www.w3.org/Graphics/SVG/1.1/DTD/svg11.dtd">
<svg version="1.1" id="Layer_1" xmlns="http://www.w3.org/2000/svg" xmlns:xlink="http://www.w3.org/1999/xlink" x="0px" y="0px"
	 width="71.138px" height="62.205px" viewBox="182.276 47.196 71.138 62.205" enable-background="new 182.276 47.196 71.138 62.205"
	 xml:space="preserve">
<g>
	<path fill="#8792A4" d="M227.235,101.685c-1.205,1.109-2.931,1.966-3.609,3.25c-0.738,1.397-0.204,3.129,1.191,3.869
		c1.397,0.736,3.129,0.202,3.868-1.193c0.678-1.284,0.419-3.192,0.652-4.815c0.357-2.431,0.763-3.985,0.763-3.985
		S229.047,100.019,227.235,101.685z"/>
	<path fill="#8792A4" d="M212.185,101.685c-1.21,1.109-2.933,1.966-3.61,3.25c-0.738,1.397-0.203,3.129,1.189,3.869
		c1.398,0.736,3.131,0.202,3.87-1.193c0.677-1.284,0.415-3.192,0.651-4.815c0.355-2.431,0.767-3.985,0.767-3.985
		C215.05,98.81,213.995,100.019,212.185,101.685z"/>
	<path fill="#8792A4" d="M197.134,101.685c-1.208,1.109-2.932,1.966-3.608,3.25c-0.739,1.397-0.206,3.129,1.189,3.869
		c1.398,0.736,3.129,0.202,3.869-1.193c0.678-1.284,0.416-3.192,0.653-4.815c0.354-2.431,0.762-3.985,0.762-3.985
		S198.946,100.019,197.134,101.685z"/>
	<path fill="#8792A4" d="M197.709,95.77v0.045h33.757c5.081,0,9.205-4.124,9.205-9.204c0-5.083-4.124-9.207-9.205-9.207
		c-0.526,0-1.037,0.054-1.54,0.139c-1.697-5.442-6.607-9.46-12.508-9.849v0.011c-0.312-0.021-0.62-0.047-0.938-0.047
		c-0.429,0-0.85,0.024-1.268,0.062c-0.109,0.013-0.219,0.021-0.327,0.034c-0.386,0.044-0.77,0.099-1.146,0.175
		c-0.03,0.003-0.063,0.009-0.093,0.015c-0.39,0.079-0.771,0.183-1.147,0.294c-0.124,0.036-0.247,0.073-0.367,0.114
		c-0.304,0.097-0.6,0.205-0.891,0.323c-0.116,0.049-0.233,0.094-0.35,0.145c-0.298,0.127-0.585,0.269-0.871,0.415
		c-0.148,0.078-0.297,0.157-0.443,0.242c-0.198,0.112-0.395,0.232-0.59,0.356c-0.227,0.143-0.446,0.29-0.663,0.445
		c-0.175,0.126-0.35,0.251-0.521,0.385c-0.164,0.13-0.325,0.267-0.486,0.4c-0.12,0.105-0.236,0.214-0.353,0.321
		c-0.283,0.261-0.557,0.534-0.816,0.815c-0.089,0.097-0.177,0.19-0.263,0.288c-0.156,0.175-0.302,0.357-0.447,0.54
		c-0.083,0.105-0.163,0.211-0.24,0.318c-0.119,0.16-0.226,0.332-0.339,0.497c-1.277,2.028-2.027,4.425-2.032,7.001h-1.979
		c0-2.536,0.632-4.922,1.73-7.02c-1.235-0.473-2.563-0.754-3.965-0.754c-6.281,0.003-11.376,5.092-11.376,11.373
		C187.239,90.419,191.852,95.309,197.709,95.77z"/>
	<path fill="#8792A4" d="M231.004,62.217c-1.77-1.125-3.746-1.663-5.704-1.663c-3.491,0-6.912,1.715-8.949,4.842
		c0.044-0.001,0.089-0.004,0.13-0.004c0.334,0,0.663,0.021,0.992,0.044l0.094-0.002c6.071,0.398,11.438,4.221,13.873,9.704h0.023
		c1.213,0,2.383,0.192,3.481,0.544C237.152,70.917,235.551,65.113,231.004,62.217z"/>
	<path fill="#8792A4" d="M207.783,67.911c0.222-0.14,0.445-0.276,0.676-0.407c0.172-0.097,0.345-0.191,0.522-0.283
		c0.359-0.188,0.689-0.346,1.001-0.479c0.107-0.048,0.214-0.09,0.323-0.134l0.091-0.034c0.347-0.143,0.698-0.27,1.023-0.375
		c0.146-0.046,0.289-0.093,0.442-0.139c0.502-0.146,0.924-0.254,1.294-0.329c0.062-0.014,0.132-0.025,0.195-0.037
		c0.085-0.015,0.181-0.029,0.269-0.046c0.226-0.473,0.472-0.937,0.755-1.385c2.383-3.741,6.47-5.977,10.925-5.977
		c2.458,0,4.851,0.697,6.923,2.019c2.906,1.85,4.92,4.729,5.67,8.105c0.619,2.789,0.301,5.631-0.87,8.172
		c0.848,0.472,1.62,1.048,2.315,1.707c0.688-0.412,1.57-0.654,2.613-0.664l6.499-0.07l-5.659-3.396
		c-3.105-1.868-3.381-5.106-0.611-7.194l5.043-3.801l-6.474,0.421c-3.551,0.228-5.711-2.315-4.8-5.656l1.661-6.082l-4.809,4.079
		c-2.639,2.237-5.856,1.356-7.153-1.96l-2.358-6.043L221.98,54.1c-0.719,3.395-3.772,4.512-6.777,2.485l-5.474-3.692l2.688,5.919
		c1.473,3.253-0.24,5.941-3.808,5.979l-6.503,0.07l5.398,3.238C207.597,68.039,207.686,67.974,207.783,67.911z"/>
</g>
</svg>
