<?xml version="1.0" encoding="utf-8"?>
<!-- Generator: Adobe Illustrator 17.0.2, SVG Export Plug-In . SVG Version: 6.00 Build 0)  -->
<!DOCTYPE svg PUBLIC "-//W3C//DTD SVG 1.1//EN" "http://www.w3.org/Graphics/SVG/1.1/DTD/svg11.dtd">
<svg version="1.1" id="Layer_1" xmlns="http://www.w3.org/2000/svg" xmlns:xlink="http://www.w3.org/1999/xlink" x="0px" y="0px"
	 width="70.821px" height="63.283px" viewBox="1732.938 46.117 70.821 63.283"
	 enable-background="new 1732.938 46.117 70.821 63.283" xml:space="preserve">
<g>
	<path fill="#8792A4" d="M1782.787,83.74l7.602,15.979l-15.979-7.601l-5.973,16.677l-5.973-16.677l-15.979,7.601l7.602-15.979
		l-16.677-5.973l16.677-5.895l-7.602-16.056l15.979,7.601l5.973-16.677l5.973,16.677l15.978-7.601l-7.601,16.056l16.677,5.895
		L1782.787,83.74z M1776.892,74.277l4.499-9.464l-9.463,4.499l-3.491-9.851l-3.491,9.851l-9.463-4.499l4.499,9.464l-9.851,3.491
		l9.851,3.49l-4.499,9.463l9.463-4.499l3.491,9.852l3.491-9.852l9.463,4.499l-4.499-9.463l9.851-3.491L1776.892,74.277z"/>
</g>
</svg>
