<?xml version="1.0" encoding="utf-8"?>
<!-- Generator: Adobe Illustrator 16.0.0, SVG Export Plug-In . SVG Version: 6.00 Build 0)  -->
<!DOCTYPE svg PUBLIC "-//W3C//DTD SVG 1.1//EN" "http://www.w3.org/Graphics/SVG/1.1/DTD/svg11.dtd">
<svg version="1.1" id="Layer_1" xmlns="http://www.w3.org/2000/svg" xmlns:xlink="http://www.w3.org/1999/xlink" x="0px" y="0px"
	 width="71.138px" height="62.205px" viewBox="455.689 47.196 71.138 62.205" enable-background="new 455.689 47.196 71.138 62.205"
	 xml:space="preserve">
<g>
	<path fill="#8792A4" d="M480.584,64.243c7.642-2.497,15.281-4.993,22.923-7.491c2.708-0.885,1.546-5.171-1.182-4.28
		c-7.64,2.498-15.281,4.996-22.92,7.494C476.698,60.85,477.856,65.136,480.584,64.243z"/>
	<path fill="#8792A4" d="M485.061,91.38l-0.178-0.117C484.941,91.306,484.998,91.343,485.061,91.38z"/>
	<path fill="#8792A4" d="M497.186,94.358h-12.251c-0.507,0-0.919,0.413-0.919,0.92v0.612c0,0.508,0.412,0.918,0.919,0.918h12.251
		c0.507,0,0.918-0.41,0.918-0.918v-0.612C498.104,94.771,497.693,94.358,497.186,94.358z"/>
	<path fill="#8792A4" d="M497.186,98.034h-12.251c-0.507,0-0.919,0.411-0.919,0.918v0.613c0,0.509,0.412,0.919,0.919,0.919h12.251
		c0.507,0,0.918-0.41,0.918-0.919v-0.613C498.104,98.445,497.693,98.034,497.186,98.034z"/>
	<path fill="#8792A4" d="M497.186,101.709h-12.251c-0.507,0-0.919,0.412-0.919,0.919v0.612c0,0.509,0.412,0.918,0.919,0.918h12.251
		c0.507,0,0.918-0.409,0.918-0.918v-0.612C498.104,102.121,497.693,101.709,497.186,101.709z"/>
	<path fill="#8792A4" d="M486.467,105.384h9.188c0,1.838-2.451,3.062-4.595,3.062S486.467,107.222,486.467,105.384z"/>
	<path fill="#8792A4" d="M480.546,56.819c5.327-1.74,10.652-3.482,15.979-5.222c2.707-0.886,1.547-5.172-1.181-4.28
		c-5.326,1.741-10.651,3.482-15.978,5.223C476.658,53.425,477.819,57.711,480.546,56.819z"/>
	<path fill="#8792A4" d="M502.413,67.129c-2.836,0.014-6.004,0.52-8.101,2.616c-2.489,2.489-2.679,6.007-2.216,9.301h-2.038
		c0.412-3.21,0.167-6.599-2.253-9.019c-0.226-0.226-0.463-0.427-0.712-0.616c5.339-1.746,10.678-3.491,16.015-5.235
		c2.71-0.885,1.548-5.173-1.179-4.279c-7.641,2.497-15.279,4.994-22.922,7.494c-2.157,0.704-1.856,3.566-0.267,4.25
		c0.029,0.013,0.06,0.026,0.09,0.038c0.002,0,0.002,0.002,0.003,0.002c0.254,0.105,0.544,0.166,0.871,0.168
		c0.503,0.003,1.006,0.021,1.506,0.058c0.139,0.013,0.275,0.026,0.412,0.042c0.014,0.002,0.022,0.002,0.037,0.006
		c0.269,0.04,0.532,0.097,0.798,0.158c0.257,0.06,0.511,0.134,0.762,0.215c0.106,0.035,0.212,0.074,0.317,0.113
		c0.014,0.008,0.028,0.014,0.044,0.02c0.228,0.106,0.444,0.235,0.657,0.363c0.069,0.045,0.136,0.094,0.202,0.14
		c0.022,0.02,0.051,0.043,0.09,0.076c0.14,0.123,0.27,0.26,0.396,0.396c0.026,0.032,0.044,0.054,0.062,0.073
		c0.057,0.083,0.113,0.163,0.165,0.247c0.039,0.062,0.294,0.58,0.269,0.492c0.09,0.24,0.161,0.489,0.227,0.736
		c0.294,1.111,0.202,2.626-0.033,3.989c-0.005,0.025-0.004,0.049-0.006,0.073h-2.206c-1.185,0-2.144,0.959-2.144,2.144v8.359
		c0,0.704,0.344,1.322,0.867,1.714l2.808,1.871h12.251l2.807-1.871c0.523-0.392,0.868-1.01,0.868-1.714v-8.359
		c0-1.185-0.961-2.144-2.144-2.144h-2.177c-0.005-0.117-0.016-0.237-0.037-0.356c-0.236-1.362-0.326-2.874-0.034-3.987
		c0.065-0.249,0.137-0.497,0.227-0.737c-0.024,0.089,0.23-0.431,0.268-0.491c0.052-0.085,0.109-0.166,0.166-0.247
		c0.018-0.02,0.036-0.044,0.062-0.072c0.127-0.138,0.255-0.274,0.396-0.397c0.037-0.031,0.065-0.056,0.089-0.075
		c0.068-0.049,0.133-0.094,0.204-0.139c0.213-0.131,0.429-0.258,0.656-0.364c0.015-0.007,0.03-0.014,0.043-0.02
		c0.104-0.039,0.211-0.078,0.318-0.114c0.252-0.079,0.505-0.157,0.762-0.217c0.263-0.06,0.528-0.115,0.799-0.157
		c0.013-0.003,0.023-0.004,0.036-0.005c0.138-0.016,0.274-0.03,0.411-0.042c0.503-0.038,1.005-0.055,1.507-0.058
		C505.274,71.552,505.277,67.112,502.413,67.129z"/>
</g>
</svg>
