<?xml version="1.0" encoding="utf-8"?>
<!-- Generator: Adobe Illustrator 16.0.0, SVG Export Plug-In . SVG Version: 6.00 Build 0)  -->
<!DOCTYPE svg PUBLIC "-//W3C//DTD SVG 1.1//EN" "http://www.w3.org/Graphics/SVG/1.1/DTD/svg11.dtd">
<svg version="1.1" id="Layer_1" xmlns="http://www.w3.org/2000/svg" xmlns:xlink="http://www.w3.org/1999/xlink" x="0px" y="0px"
	 width="71.139px" height="62.205px" viewBox="0 0 71.139 62.205" enable-background="new 0 0 71.139 62.205" xml:space="preserve">
<polygon fill="#8792A4" points="54.281,39.642 54.281,47.973 36.322,58.703 17.857,47.973 17.857,39.642 36.431,48.835 "/>
<path fill="#8792A4" d="M36.41,46.578l34.728-17.315L36.408,14.605L0.71,29.263l7.791,3.779C8.324,37.529,7.837,46.28,7.271,49.11
	c-0.468,2.341-2.732,5.676-6.972,9.914c-0.163,0.163-0.369,0.404-0.276,0.627c0.097,0.234,0.441,0.234,0.555,0.234
	c1.095,0,4.082-1.011,5.633-2.045c0.228-0.151,0.434-0.228,0.616-0.228c0.68,0,1.076,1.12,1.459,2.204
	c0.363,1.029,0.706,2.002,1.334,2.316c0.095,0.047,0.193,0.071,0.292,0.071c0.219,0,0.427-0.116,0.629-0.347
	c1.157-1.31,2.032-6.534,1.435-11.308c-0.544-4.354-0.271-11.774,0.149-15.749L36.41,46.578z M35.944,21.904
	c1.601,0,2.906,1.304,2.906,2.907s-1.305,2.906-2.906,2.906c-1.602,0-2.906-1.304-2.906-2.906S34.342,21.904,35.944,21.904z"/>
</svg>
